<?xml version="1.0" standalone="no"?>
<!DOCTYPE svg PUBLIC "-//W3C//DTD SVG 1.1//EN" "http://www.w3.org/Graphics/SVG/1.1/DTD/svg11.dtd" >
<svg xmlns="http://www.w3.org/2000/svg" xmlns:xlink="http://www.w3.org/1999/xlink" version="1.1">
<metadata>
Created by FontForge 20170731 at Thu Oct 29 10:06:23 2020
 By Aleksey,,,
Copyright (C)2015 Commercial Type.
</metadata>
<defs>
<font id="VoltaModernDisplay-76BoldItalic" horiz-adv-x="1007" >
  <font-face 
    font-family="Volta Modern Display 75 Bld"
    font-weight="700"
    font-style="italic"
    font-stretch="normal"
    units-per-em="2048"
    panose-1="2 0 6 3 5 0 0 2 0 4"
    ascent="1708"
    descent="-340"
    x-height="1047"
    cap-height="1464"
    bbox="-426 -539 2472 1915"
    underline-thickness="124"
    underline-position="-339"
    slope="-11"
    unicode-range="U+0020-FB04"
  />
<missing-glyph 
 />
    <glyph glyph-name="f_f" unicode="ff" horiz-adv-x="1308" 
d="M51 0l162 836h-133l41 213h133l16 88q31 165 129 241q104 78 293 78q66 0 144 -10l-45 -234q-8 1 -20.5 2t-21 2t-14.5 1q-62 0 -97 -25.5t-48 -91.5l-10 -51h282l21 98q30 165 129 242q103 77 293 77q63 0 155 -10l-45 -233q-54 4 -65 4q-65 0 -101 -25.5t-47 -91.5
l-12 -61h190l-41 -213h-192l-160 -836h-328l162 836h-282l-162 -836h-326z" />
    <glyph glyph-name="fi" unicode="fi" horiz-adv-x="1183" 
d="M1077 1495q77 0 128.5 -49t51.5 -125t-51.5 -125t-128.5 -49t-128.5 49t-51.5 125t51.5 125t128.5 49zM674 0l203 1049h327l-203 -1049h-327zM51 0l162 836h-133l41 213h133l18 98q35 169 129 242q103 77 281 77q88 0 168 -12l-45 -231q-50 4 -66 4q-64 0 -100 -25.5
t-47 -91.5l-12 -61h192l-43 -213h-190l-162 -836h-326z" />
    <glyph glyph-name="fl" unicode="fl" horiz-adv-x="1191" 
d="M676 0l282 1464h334l-282 -1464h-334zM51 0l162 836h-133l41 213h133l18 98q35 169 129 242q103 77 281 77q88 0 168 -12l-45 -231q-50 4 -66 4q-64 0 -100 -25.5t-47 -91.5l-12 -61h192l-43 -213h-190l-162 -836h-326z" />
    <glyph glyph-name="f_f_i" unicode="ffi" horiz-adv-x="1792" 
d="M1686 1495q77 0 128.5 -49t51.5 -125t-51.5 -125t-128.5 -49t-129 49t-52 125t52 125t129 49zM1282 0l203 1049h327l-202 -1049h-328zM51 0l162 836h-133l41 213h133l16 88q31 165 129 241q104 78 293 78q66 0 144 -10l-45 -234q-8 1 -20.5 2t-21 2t-14.5 1
q-62 0 -97 -25.5t-48 -91.5l-10 -51h282l21 98q30 165 129 242q103 77 293 77q63 0 155 -10l-45 -233q-54 4 -65 4q-65 0 -101 -25.5t-47 -91.5l-12 -61h190l-41 -213h-192l-160 -836h-328l162 836h-282l-162 -836h-326z" />
    <glyph glyph-name="f_f_l" unicode="ffl" horiz-adv-x="1800" 
d="M51 0l162 836h-133l41 213h133l16 88q31 165 129 241q104 78 293 78q66 0 144 -10l-45 -234q-8 1 -20.5 2t-21 2t-14.5 1q-62 0 -97 -25.5t-48 -91.5l-10 -51h282l21 98q30 165 129 242q103 77 293 77q63 0 155 -10l-45 -233q-54 4 -65 4q-65 0 -101 -25.5t-47 -91.5
l-12 -61h190l-41 -213h-192l-160 -836h-328l162 836h-282l-162 -836h-326zM1284 0l283 1464h334l-283 -1464h-334z" />
    <glyph glyph-name=".notdef" 
 />
    <glyph glyph-name=".null" horiz-adv-x="0" 
 />
    <glyph glyph-name="nonmarkingreturn" horiz-adv-x="682" 
 />
    <glyph glyph-name="space" unicode=" " horiz-adv-x="317" 
 />
    <glyph glyph-name="exclam" unicode="!" horiz-adv-x="532" 
d="M168 479l43 645l65 340h340l-69 -362l-211 -623h-168zM215 365q84 0 138.5 -53t54.5 -134q0 -82 -55 -135t-138 -53t-136.5 53t-53.5 135t53.5 134.5t136.5 52.5z" />
    <glyph glyph-name="quotedbl" unicode="&#x22;" horiz-adv-x="856" 
d="M565 913l105 551h284l-104 -551h-285zM156 913l106 551h285l-105 -551h-286z" />
    <glyph glyph-name="numbersign" unicode="#" horiz-adv-x="1185" 
d="M498 610h209l55 207h-207zM119 0l98 354h-188l73 256h187l55 207h-186l73 258h187l92 330h209l-92 -330h207l92 330h211l-93 -330h189l-74 -258h-186l-58 -207h187l-74 -256h-184l-99 -354h-208l98 354h-209l-96 -354h-211z" />
    <glyph glyph-name="dollar" unicode="$" horiz-adv-x="1232" 
d="M588 -29h-19l-34 -182h-123l37 193q-102 14 -184 49.5t-143.5 92t-93 140.5t-26.5 189h336q-6 -171 162 -209l63 336q-110 45 -178 82t-123.5 85.5t-79.5 108.5t-24 139q0 208 153 323.5t398 113.5h20l25 124h123l-27 -135q85 -14 154 -44.5t124.5 -81.5t85.5 -128
t29 -174l-321 -2q0 128 -123 168l-58 -297q106 -41 180 -81.5t129.5 -92t82 -115.5t26.5 -143q0 -115 -45 -204t-123.5 -144t-180.5 -83t-222 -28zM821 385q0 49 -28 79.5t-115 67.5l-57 -296q87 7 143.5 43t56.5 106zM485 1042q-2 -43 27 -70.5t115 -64.5l53 267
q-76 0 -135.5 -32.5t-59.5 -99.5z" />
    <glyph glyph-name="percent" unicode="%" horiz-adv-x="1732" 
d="M453 612q-153 0 -242.5 94.5t-89.5 243.5q0 130 50 239.5t146.5 177t219.5 67.5q151 0 241 -92t90 -246q0 -130 -49 -239.5t-145 -177t-221 -67.5zM283 0l1038 1405h195l-1039 -1405h-194zM463 788q42 0 74.5 33t51 85t27.5 107t9 107q0 61 -23.5 100.5t-73.5 39.5
q-42 0 -74.5 -33t-51 -84t-28 -105.5t-9.5 -105.5q0 -144 98 -144zM1257 -35q-151 0 -240 94.5t-89 243.5q0 130 49.5 239.5t145 176.5t218.5 67q152 0 243 -91.5t91 -243.5q0 -130 -49.5 -240t-146 -178t-222.5 -68zM1268 141q42 0 74.5 33t51 85t27.5 107t9 107
q0 141 -97 141q-42 0 -75 -33t-51.5 -84.5t-28 -106t-9.5 -105.5q0 -144 99 -144z" />
    <glyph glyph-name="ampersand" unicode="&#x26;" horiz-adv-x="1394" 
d="M719 936q151 71 151 186q0 49 -27 83t-79 34q-51 0 -84 -37.5t-33 -97.5q0 -82 72 -168zM547 238q98 0 188 63l-200 340q-75 -31 -124.5 -87.5t-50.5 -135.5q-1 -84 49 -132t138 -48zM504 -25q-98 0 -182.5 24t-153.5 71.5t-108.5 128.5t-39.5 186q0 89 31.5 165t88 132
t125 96.5t151.5 69.5q-74 115 -74 250q0 169 122 272t302 103q78 0 147.5 -20t127 -59.5t91 -106.5t33.5 -154q0 -130 -86 -219.5t-241 -151.5l141 -238q55 86 90 209h287q-59 -243 -232 -448l174 -285h-389l-49 84q-161 -109 -356 -109z" />
    <glyph glyph-name="quotesingle" unicode="'" horiz-adv-x="448" 
d="M156 913l106 551h285l-105 -551h-286z" />
    <glyph glyph-name="parenleft" unicode="(" horiz-adv-x="686" 
d="M229 -283q-129 285 -129 605q0 689 478 1222h290q-452 -607 -452 -1255q0 -289 82 -572h-269z" />
    <glyph glyph-name="parenright" unicode=")" horiz-adv-x="686" 
d="M-143 -283q452 606 452 1258q0 301 -82 569h271q127 -288 127 -602q0 -689 -475 -1225h-293z" />
    <glyph glyph-name="asterisk" unicode="*" horiz-adv-x="876" 
d="M631 721l-115 215l-188 -205l-127 117l186 196l-215 95l86 164l215 -97l49 258h189l-49 -264l235 64l35 -170l-252 -66l117 -209z" />
    <glyph glyph-name="plus" unicode="+" horiz-adv-x="1140" 
d="M358 162l74 381h-350l53 264h348l72 379h283l-74 -379h350l-51 -264h-350l-74 -381h-281z" />
    <glyph glyph-name="comma" unicode="," horiz-adv-x="473" 
d="M-66 -303l27 147q146 34 186 162q-76 5 -123 51t-47 121q0 81 52.5 134t130.5 53q98 0 150 -67.5t52 -193.5q0 -164 -119.5 -278t-308.5 -129z" />
    <glyph glyph-name="hyphen" unicode="-" horiz-adv-x="675" 
d="M33 375l55 280h547l-53 -280h-549z" />
    <glyph glyph-name="period" unicode="." horiz-adv-x="473" 
d="M168 365q83 0 137.5 -52.5t54.5 -134.5t-54.5 -135t-137.5 -53t-137 53t-54 135t54 134.5t137 52.5z" />
    <glyph glyph-name="slash" unicode="/" horiz-adv-x="880" 
d="M-80 0l813 1464h293l-811 -1464h-295z" />
    <glyph glyph-name="zero" unicode="0" horiz-adv-x="1316" 
d="M618 -33q-254 0 -402 159t-148 433q0 131 29 257.5t89 238t142.5 196.5t198 134t247.5 49q248 0 394.5 -158t146.5 -432q0 -132 -27 -257.5t-84 -238t-137.5 -197t-196.5 -134.5t-252 -50zM627 236q75 0 136 44t98 111.5t62.5 154.5t35.5 167t10 155q0 299 -209 299
q-75 0 -136.5 -45.5t-99.5 -115.5t-64 -158t-36 -168t-10 -152q0 -292 213 -292z" />
    <glyph glyph-name="one" unicode="1" horiz-adv-x="800" 
d="M229 0l172 897h-295l46 233q158 5 263.5 72t159.5 213h269l-275 -1415h-340z" />
    <glyph glyph-name="two" unicode="2" horiz-adv-x="1169" 
d="M-59 0q16 94 47 171.5t76 137.5t94 105t114 90q86 61 233.5 148.5t188.5 115.5q78 52 114 106t36 125q0 72 -40 114t-114 42q-94 0 -160 -63q-66 -72 -88 -209h-321q17 129 53 216.5t100 155.5q72 81 185.5 129t253.5 48q98 0 183 -25.5t151.5 -74.5t104.5 -128.5
t38 -179.5q0 -87 -25 -160t-73 -129.5t-100.5 -98t-125.5 -85.5q-50 -31 -146.5 -84t-164.5 -95.5t-113 -86.5v-2h615l-53 -283h-1063z" />
    <glyph glyph-name="three" unicode="3" horiz-adv-x="1206" 
d="M578 -33q-266 0 -418.5 138.5t-134.5 379.5h325q-5 -116 51.5 -186t180.5 -70q97 0 158 55.5t61 147.5q0 86 -59 133t-173 47h-59l45 238h90q93 0 154 43t61 131q0 68 -46.5 110t-125.5 42q-100 0 -159.5 -59t-77.5 -159h-324q28 215 183.5 344.5t391.5 129.5
q80 0 152.5 -14t135.5 -43.5t108.5 -72.5t71.5 -105t26 -136q0 -120 -67 -204t-189 -124v-4q91 -34 148 -108.5t57 -190.5q0 -141 -77.5 -248t-205 -161t-284.5 -54z" />
    <glyph glyph-name="four" unicode="4" horiz-adv-x="1249" 
d="M584 0l59 313h-645l63 316l793 788h332l-164 -844h201l-52 -260h-200l-60 -313h-327zM319 573h375l90 469h-4l-461 -464v-5z" />
    <glyph glyph-name="five" unicode="5" horiz-adv-x="1204" 
d="M549 -33q-110 0 -205.5 27t-171.5 80t-121 142t-49 204h334q6 -80 65.5 -129t155.5 -49q109 0 179.5 73.5t70.5 192.5q0 93 -53 150t-150 57q-120 0 -198 -88h-312l230 776h897l-54 -277h-635l-77 -256h6q102 91 276 91q190 0 304 -116t114 -313q0 -252 -169.5 -408.5
t-436.5 -156.5z" />
    <glyph glyph-name="six" unicode="6" horiz-adv-x="1234" 
d="M606 -33q-251 0 -397.5 148t-145.5 413q0 203 72.5 407.5t212.5 332.5q178 164 434 164q93 0 171.5 -20.5t144 -63.5t106.5 -117.5t49 -173.5h-323q-6 63 -50 97t-118 34q-115 0 -197 -95.5t-125 -263.5h4q133 136 322 136q113 0 209 -51t157 -153.5t60 -236.5
q0 -123 -45 -227.5t-123.5 -176t-186 -112t-231.5 -41.5zM604 223q113 0 187.5 75.5t74.5 199.5q0 95 -56.5 155t-156.5 60q-111 0 -187.5 -76t-76.5 -197q0 -97 58.5 -157t156.5 -60z" />
    <glyph glyph-name="seven" unicode="7" horiz-adv-x="1097" 
d="M145 0q39 181 114.5 355.5t169.5 314t186.5 247.5t187.5 191v4h-653l55 291h1022l-51 -262q-234 -201 -418.5 -500t-255.5 -641h-357z" />
    <glyph glyph-name="eight" unicode="8" horiz-adv-x="1226" 
d="M575 -33q-82 0 -160 14t-152 45.5t-129 78t-88 117t-32 157.5q0 146 80.5 240t222.5 141v6q-68 40 -102.5 105t-34.5 143q0 129 77 226t198 144.5t264 47.5q77 0 148 -13t137 -42t114.5 -71t77.5 -104.5t29 -138.5q0 -219 -234 -324v-6q87 -42 133.5 -121t46.5 -178
q0 -114 -49.5 -205t-133 -147t-189.5 -85.5t-224 -29.5zM692 852q92 0 152.5 44.5t60.5 135.5q-1 75 -54 118.5t-138 43.5q-90 0 -153.5 -46.5t-63.5 -135.5q-1 -80 52 -120t144 -40zM588 221q105 2 176.5 61t71.5 164q-1 89 -65 139t-163 50q-65 0 -121 -23t-94.5 -75.5
t-38.5 -124.5q0 -90 65.5 -140.5t168.5 -50.5z" />
    <glyph glyph-name="nine" unicode="9" horiz-adv-x="1243" 
d="M657 690q113 0 189 73t76 195q0 98 -59.5 159t-160.5 61q-114 0 -188 -76.5t-74 -198.5q-2 -97 57 -155t160 -58zM532 -33q-94 0 -176.5 21.5t-151.5 65t-112.5 119t-50.5 175.5h328q8 -61 55.5 -98t124.5 -37q124 0 201 90t118 268h-4q-142 -135 -315 -135
q-187 0 -313.5 115.5t-126.5 312.5q0 169 80 299.5t214.5 199.5t298.5 69q250 0 396.5 -140t146.5 -409q0 -215 -62.5 -412t-187.5 -326q-172 -178 -463 -178z" />
    <glyph glyph-name="colon" unicode=":" horiz-adv-x="485" 
d="M297 999q84 0 138 -52.5t54 -133.5q0 -82 -54.5 -135t-137.5 -53t-137 53t-54 135t54 134t137 52zM174 365q84 0 138.5 -53t54.5 -134q0 -82 -55 -135t-138 -53t-136.5 53t-53.5 135t53.5 134.5t136.5 52.5z" />
    <glyph glyph-name="semicolon" unicode=";" horiz-adv-x="485" 
d="M-59 -303l26 147q147 34 187 162q-76 5 -123 51t-47 121q0 81 52 134t130 53q98 0 150.5 -67.5t52.5 -193.5q0 -164 -119.5 -278t-308.5 -129zM297 999q84 0 138 -52.5t54 -133.5q0 -82 -54.5 -135t-137.5 -53t-137 53t-54 135t54 134t137 52z" />
    <glyph glyph-name="less" unicode="&#x3c;" horiz-adv-x="1011" 
d="M840 129l-758 377l59 301l893 328l-57 -295l-395 -138q-38 -14 -90 -30t-84 -26l-33 -9v-4q104 -33 180 -64l342 -139z" />
    <glyph glyph-name="equal" unicode="=" horiz-adv-x="1134" 
d="M133 723l51 256h944l-49 -256h-946zM49 289l51 256h944l-49 -256h-946z" />
    <glyph glyph-name="greater" unicode="&#x3e;" horiz-adv-x="1011" 
d="M16 131l58 293l395 139q38 14 90 30t85 25l32 9v4q-104 32 -180 63l-342 142l57 299l758 -377l-60 -299z" />
    <glyph glyph-name="question" unicode="?" horiz-adv-x="1114" 
d="M371 479q20 104 49.5 170t64 102.5t95.5 77.5q23 16 64.5 39.5t70 41.5t58.5 42.5t45.5 56t15.5 68.5q0 68 -43 104t-117 36q-89 0 -151.5 -54t-80.5 -159h-329q39 234 195.5 360.5t391.5 126.5q73 0 140 -12.5t129.5 -41t108.5 -71.5t74 -109t28 -147q0 -129 -63 -222.5
t-189 -162.5q-25 -14 -65.5 -35.5t-58 -31t-38.5 -23t-35 -25.5q-50 -42 -65 -131h-295zM479 365q84 0 138.5 -53t54.5 -134q0 -82 -55 -135t-138 -53t-136.5 53t-53.5 135t53.5 134.5t136.5 52.5z" />
    <glyph glyph-name="at" unicode="@" horiz-adv-x="1841" 
d="M887 -223q-176 0 -325 53t-256.5 150t-167.5 242.5t-60 322.5q0 193 70 363t192 291.5t294.5 192t369.5 70.5q166 0 311.5 -49t256 -140t174.5 -232t64 -314q0 -82 -16.5 -161t-53.5 -153t-90 -130t-132 -89.5t-175 -33.5q-233 0 -286 166h-4q-112 -160 -277 -160
q-147 0 -228 93.5t-81 260.5q0 97 28.5 191t81.5 173.5t139.5 128t192.5 48.5q165 0 221 -148h5l26 125h281l-125 -555q-35 -147 63 -147q61 0 107.5 35.5t72.5 94t39 123t13 132.5q0 139 -44.5 247.5t-126.5 177.5t-193.5 104.5t-248.5 35.5q-147 0 -276.5 -51t-227 -143.5
t-154 -233.5t-56.5 -311q0 -270 160 -433t452 -163q186 0 373 76l59 -162q-189 -88 -442 -88zM877 385q50 0 90.5 28.5t64.5 74t36.5 97.5t12.5 105q0 70 -30 112t-86 42q-67 0 -114.5 -49t-68 -117t-20.5 -143q0 -66 30 -108t85 -42z" />
    <glyph glyph-name="A" unicode="A" horiz-adv-x="1384" 
d="M684 879l-174 -355h336l-45 353l-21 210h-4q-57 -134 -92 -208zM918 0l-37 266h-496l-129 -266h-362l774 1464h364l256 -1464h-370z" />
    <glyph glyph-name="B" unicode="B" horiz-adv-x="1345" 
d="M-4 0l283 1464h626q207 0 324 -90q121 -96 121 -266q0 -120 -68 -205.5t-188 -124.5v-6q99 -36 152.5 -111.5t53.5 -187.5q0 -103 -43.5 -194.5t-128.5 -157.5q-152 -121 -389 -121h-743zM520 883h291q37 0 69.5 8t61 26.5t45.5 52.5t17 81q0 60 -39 95.5t-111 35.5h-276
zM406 289h323q100 0 160.5 48t60.5 144q0 76 -48.5 117t-127.5 41h-301z" />
    <glyph glyph-name="C" unicode="C" horiz-adv-x="1413" 
d="M707 -33q-297 0 -469 170.5t-172 466.5q0 173 55.5 333t154.5 283.5t249.5 198t328.5 74.5q252 0 399 -117q174 -134 189 -415h-357q-13 233 -245 233q-83 0 -152.5 -34.5t-116 -92t-79.5 -133.5t-47.5 -157t-14.5 -165q0 -72 15.5 -132.5t48 -110.5t90 -78.5
t135.5 -28.5q116 0 196.5 64t112.5 182h358q-59 -268 -243 -408q-178 -133 -436 -133z" />
    <glyph glyph-name="D" unicode="D" horiz-adv-x="1411" 
d="M-4 0l283 1464h524q283 0 450.5 -163.5t167.5 -460.5q0 -387 -213 -617q-101 -107 -248.5 -165t-324.5 -58h-639zM412 303h223q200 0 311 140t111 378q0 168 -78.5 255t-230.5 87h-170z" />
    <glyph glyph-name="E" unicode="E" horiz-adv-x="1245" 
d="M-4 0l283 1464h1062l-57 -295h-704l-52 -268h607l-54 -278h-608l-61 -318h729l-60 -305h-1085z" />
    <glyph glyph-name="F" unicode="F" horiz-adv-x="1191" 
d="M-4 0l283 1464h1050l-57 -303h-694l-58 -299h592l-57 -291h-592l-109 -571h-358z" />
    <glyph glyph-name="G" unicode="G" horiz-adv-x="1474" 
d="M655 -33q-294 0 -456 201q-136 161 -136 432q0 136 35.5 266.5t106 243.5t166.5 199t226 135t277 49q95 -1 179.5 -19.5t158 -58t127.5 -98t86.5 -143.5t36.5 -189h-350q-11 99 -77.5 155t-176.5 56q-103 0 -186.5 -50.5t-135 -134t-79 -187.5t-27.5 -216
q0 -166 75.5 -258t233.5 -92q132 0 219.5 70.5t114.5 193.5h-268l51 264h600l-151 -786h-250l10 164h-4q-67 -92 -173.5 -144.5t-232.5 -52.5z" />
    <glyph glyph-name="H" unicode="H" horiz-adv-x="1396" 
d="M-4 0l283 1464h358l-109 -557h486l108 557h357l-283 -1464h-356l116 612h-485l-117 -612h-358z" />
    <glyph glyph-name="I" unicode="I" horiz-adv-x="557" 
d="M-4 0l285 1464h356l-283 -1464h-358z" />
    <glyph glyph-name="J" unicode="J" horiz-adv-x="1093" 
d="M455 -27q-113 0 -203.5 29t-156 89.5t-88 154.5t0.5 225l21 98h325l-22 -112q-18 -90 15.5 -138.5t119.5 -48.5q73 0 112.5 41.5t53.5 120.5l201 1032h354l-205 -1067q-36 -186 -141 -286q-145 -138 -387 -138z" />
    <glyph glyph-name="K" unicode="K" horiz-adv-x="1382" 
d="M903 0l-291 643l-163 -147l-95 -496h-358l283 1464h358l-105 -540l574 540h424l-643 -587l407 -877h-391z" />
    <glyph glyph-name="L" unicode="L" horiz-adv-x="1118" 
d="M-4 0l283 1464h358l-225 -1159h630l-57 -305h-989z" />
    <glyph glyph-name="M" unicode="M" horiz-adv-x="1681" 
d="M-4 0l283 1464h475l47 -596l24 -383h2q111 269 152 359l287 620h491l-282 -1464h-328l139 723l68 309h-4q-102 -234 -131 -295l-338 -737h-295l-58 739l-14 293h-4q-43 -248 -55 -307l-140 -725h-319z" />
    <glyph glyph-name="N" unicode="N" horiz-adv-x="1406" 
d="M-4 0l283 1464h358l256 -719l68 -215h4q35 199 45 250l133 684h346l-283 -1464h-358l-250 698l-74 236h-4q-41 -226 -51 -277l-127 -657h-346z" />
    <glyph glyph-name="O" unicode="O" horiz-adv-x="1488" 
d="M725 -35q-293 0 -476.5 168.5t-182.5 470.5q1 142 35.5 274.5t102.5 244t161.5 194.5t218.5 129.5t268 46.5q296 0 472.5 -174t176.5 -477q0 -175 -53.5 -333t-151 -279t-245.5 -192.5t-326 -72.5zM735 258q84 0 153.5 35.5t115 93t77 134t45 156t13.5 161.5
q0 79 -17 143.5t-52.5 115t-95 78t-138.5 27.5q-84 -1 -154 -37.5t-116 -96t-78 -137.5t-46 -159t-14 -164q0 -75 17.5 -136.5t53 -110.5t96 -76t140.5 -27z" />
    <glyph glyph-name="P" unicode="P" horiz-adv-x="1306" 
d="M-4 0l283 1464h575q267 0 399 -141q109 -119 109 -303q0 -244 -154.5 -387.5t-404.5 -143.5h-350l-95 -489h-362zM508 774h264q98 0 163.5 56.5t65.5 164.5q0 166 -180 166h-237z" />
    <glyph glyph-name="Q" unicode="Q" horiz-adv-x="1488" 
d="M1225 -113l-158 158q-154 -80 -342 -80q-293 0 -476.5 168.5t-182.5 470.5q1 179 55.5 339.5t153 283t247 194.5t326.5 72q299 0 476 -174t177 -477q0 -187 -59.5 -353.5t-171.5 -287.5l135 -135zM735 256q59 0 109 12l-135 135l182 175l156 -154q92 147 92 414
q0 79 -17 143.5t-52.5 115t-95 78t-138.5 27.5q-84 -1 -154 -37.5t-116 -96t-78 -137.5t-46 -159t-14 -164q0 -75 17.5 -137t53 -111t96 -76.5t140.5 -27.5z" />
    <glyph glyph-name="R" unicode="R" horiz-adv-x="1349" 
d="M582 1180l-70 -365h264q101 0 166.5 51t65.5 152q0 78 -45.5 120t-133.5 42h-247zM-4 0l283 1464h606q219 0 350 -103t131 -288q0 -301 -309 -391v-6q174 -63 174 -277q0 -35 -5 -134t-5 -148q0 -80 28 -99v-18h-354q-18 23 -18 102q0 36 4 124t4 130q0 96 -48 145.5
t-153 49.5h-225l-105 -551h-358z" />
    <glyph glyph-name="S" unicode="S" horiz-adv-x="1284" 
d="M616 -35q-100 0 -189 16t-171 53t-140.5 92.5t-91.5 141.5t-30 193h358q-3 -109 71.5 -160t203.5 -51q65 0 115.5 14t85 50.5t34.5 93.5q0 60 -61 98t-228 98q-86 30 -146 56.5t-117 63.5t-91 78.5t-54 98.5t-20 127q0 221 155 342t407 121q89 0 169.5 -14t155.5 -47.5
t128.5 -83.5t83.5 -128.5t26 -177.5h-348q1 86 -59 132.5t-169 46.5q-50 0 -94 -13t-77 -46t-34 -81q0 -57 50 -86t211 -84q35 -12 53 -18q102 -35 172.5 -70.5t131 -86t90.5 -119t30 -156.5q0 -121 -48.5 -216.5t-133 -155.5t-194 -91t-235.5 -31z" />
    <glyph glyph-name="T" unicode="T" horiz-adv-x="1245" 
d="M340 0l225 1161h-411l57 303h1184l-58 -303h-415l-226 -1161h-356z" />
    <glyph glyph-name="U" unicode="U" horiz-adv-x="1378" 
d="M653 -27q-115 0 -210.5 22t-172 67t-123 115t-63 165.5t7.5 218.5l176 903h357l-183 -940q-24 -124 31.5 -193t190.5 -69q218 0 262 230l188 972h356l-192 -991q-46 -245 -202 -372.5t-423 -127.5z" />
    <glyph glyph-name="V" unicode="V" horiz-adv-x="1300" 
d="M381 0l-207 1464h367l82 -757l20 -271h4q60 147 113 260l356 768h367l-733 -1464h-369z" />
    <glyph glyph-name="W" unicode="W" horiz-adv-x="1886" 
d="M305 0l-127 1464h357l28 -614q3 -65 3.5 -157.5t-0.5 -152.5l-1 -59h4q74 205 133 359l246 624h330l27 -622q3 -67 4.5 -157t1.5 -147v-57h4q80 223 137 373l244 610h362l-641 -1464h-350l-31 705q-3 55 -4 125.5t0 113.5v43h-4q-49 -157 -98 -282l-275 -705h-350z" />
    <glyph glyph-name="X" unicode="X" horiz-adv-x="1378" 
d="M-104 0l624 782l-303 682h393l170 -436h4l326 436h401l-563 -710l330 -754h-408l-182 502h-4l-371 -502h-417z" />
    <glyph glyph-name="Y" unicode="Y" horiz-adv-x="1308" 
d="M369 0l104 547l-297 917h375l106 -372q13 -44 26 -101t19 -92l7 -35h4q71 121 139 223l254 377h387l-664 -929l-102 -535h-358z" />
    <glyph glyph-name="Z" unicode="Z" horiz-adv-x="1288" 
d="M-53 0l53 281l752 759l129 123v6q-105 -2 -144 -2h-514l58 297h1112l-54 -276l-729 -739l-153 -144v-6q110 2 155 2h580l-57 -301h-1188z" />
    <glyph glyph-name="bracketleft" unicode="[" horiz-adv-x="796" 
d="M-43 -283l356 1827h619l-51 -254h-308l-256 -1321h310l-49 -252h-621z" />
    <glyph glyph-name="backslash" unicode="\" horiz-adv-x="856" 
d="M479 0l-303 1464h270l304 -1464h-271z" />
    <glyph glyph-name="bracketright" unicode="]" horiz-adv-x="796" 
d="M-96 -283l49 252h309l256 1321h-309l49 254h621l-355 -1827h-620z" />
    <glyph glyph-name="asciicircum" unicode="^" horiz-adv-x="937" 
d="M80 870l440 594h240l235 -594h-284l-113 310h-2l-223 -310h-293z" />
    <glyph glyph-name="underscore" unicode="_" horiz-adv-x="866" 
d="M-174 -346l39 205h876l-39 -205h-876z" />
    <glyph glyph-name="grave" unicode="`" 
d="M541 1171l-199 304h358l88 -304h-247z" />
    <glyph glyph-name="a" unicode="a" horiz-adv-x="1081" 
d="M440 186q85 0 142.5 46.5t76.5 132.5l25 129q-61 -30 -178 -48q-6 -1 -28.5 -4.5t-31.5 -5t-29 -6t-30 -9t-25.5 -12t-23.5 -17t-17 -22t-12.5 -29t-3.5 -36.5q0 -59 36.5 -89t98.5 -30zM317 -27q-142 0 -235.5 80t-93.5 223q0 75 22.5 133t60.5 95.5t96 63.5t122 38.5
t145 18.5q71 5 111 9t79.5 12.5t58.5 22t30.5 34t11.5 51.5q0 46 -33.5 73t-97.5 27q-152 0 -186 -137h-306q30 169 158 264.5t350 95.5q209 0 318 -84q146 -107 100 -346l-94 -483q-23 -113 6 -150v-14h-315q-17 35 -17 115h-4q-121 -142 -287 -142z" />
    <glyph glyph-name="b" unicode="b" horiz-adv-x="1179" 
d="M641 -33q-107 0 -191.5 46.5t-125.5 142.5h-5l-28 -156h-316l283 1464h328l-103 -528h6q126 143 297 143t268 -125.5t97 -324.5q0 -96 -19 -189.5t-60.5 -179.5t-100 -151t-144 -103.5t-186.5 -38.5zM575 229q64 0 113 35t76.5 92t41 121t13.5 131q0 44 -8 81t-26.5 70
t-52.5 51.5t-81 18.5q-64 0 -116 -34.5t-83 -90.5t-47 -119.5t-16 -127.5q0 -98 45 -163t141 -65z" />
    <glyph glyph-name="c" unicode="c" horiz-adv-x="1089" 
d="M526 -33q-103 0 -191.5 27t-158 81.5t-109.5 146t-40 210.5q0 129 42 246t117.5 205.5t189 141t247.5 52.5q97 0 177 -23.5t142.5 -70.5t98.5 -125.5t40 -181.5h-315q-14 158 -152 158q-65 0 -117 -38.5t-82 -100t-45.5 -131t-15.5 -138.5q0 -95 42.5 -153t135.5 -58
q73 0 127 45.5t78 136.5h314q-39 -201 -181.5 -314.5t-343.5 -115.5z" />
    <glyph glyph-name="d" unicode="d" horiz-adv-x="1191" 
d="M543 225q62 0 113.5 34.5t82.5 89t47.5 118.5t16.5 127q0 102 -46 168.5t-139 66.5q-63 0 -113 -35t-79 -92t-44 -121.5t-15 -129.5q0 -100 41.5 -163t134.5 -63zM420 -33q-179 0 -285.5 125t-105.5 334q0 98 22 192.5t67 177.5t107 146.5t148.5 100t185.5 36.5
q204 0 295 -166h6l107 551h327l-282 -1464h-314l23 121h-4q-116 -154 -297 -154z" />
    <glyph glyph-name="e" unicode="e" horiz-adv-x="1112" 
d="M602 844q-84 0 -143.5 -54.5t-87.5 -152.5h401q3 91 -39 149t-131 58zM864 70q-140 -98 -325 -101q-110 0 -203 31t-162 90t-108 152t-39 211q0 165 71.5 307.5t205.5 230.5t302 88t281 -69q121 -78 166.5 -226t15.5 -346h-725q2 -108 47 -169.5t150 -61.5q135 0 182 106
h319q-52 -159 -178 -243z" />
    <glyph glyph-name="f" unicode="f" horiz-adv-x="698" 
d="M51 0l162 836h-133l41 213h133l18 98q35 169 129 242q103 77 281 77q88 0 168 -12l-45 -231q-50 4 -66 4q-64 0 -100 -25.5t-47 -91.5l-12 -61h192l-43 -213h-190l-162 -836h-326z" />
    <glyph glyph-name="g" unicode="g" horiz-adv-x="1150" 
d="M528 301q112 0 180 97t68 223q-2 92 -47 151t-131 59q-76 0 -132.5 -47.5t-84 -120t-27.5 -155.5q0 -91 44 -149t130 -58zM449 -362q-87 0 -165 19t-144 58t-109.5 105.5t-53.5 154.5h324q21 -104 156 -104q164 0 202 195l21 106h-6q-53 -55 -113.5 -84.5t-140.5 -30.5
q-170 0 -279.5 118t-109.5 304q0 112 35 219t98 192t160 137t211 52q210 0 296 -159h5l24 129h314l-191 -986q-43 -216 -180 -323q-127 -102 -354 -102z" />
    <glyph glyph-name="h" unicode="h" horiz-adv-x="1138" 
d="M-25 0l283 1464h328l-109 -559h6q65 86 141 130t183 44q161 0 241 -117.5t42 -316.5l-125 -645h-328l121 621q18 89 -12.5 138.5t-110.5 49.5q-83 0 -141.5 -65.5t-79.5 -168.5l-111 -575h-328z" />
    <glyph glyph-name="i" unicode="i" horiz-adv-x="485" 
d="M379 1495q77 0 128.5 -49t51.5 -125t-51.5 -125t-128.5 -49t-128.5 49t-51.5 125t51.5 125t128.5 49zM-25 0l203 1049h328l-203 -1049h-328z" />
    <glyph glyph-name="j" unicode="j" horiz-adv-x="485" 
d="M379 1495q77 0 128.5 -49t51.5 -125t-51.5 -125t-128.5 -49t-128.5 49t-51.5 125t51.5 125t128.5 49zM-78 -352q-100 0 -176 20l43 232q40 -3 71 -1.5t53 10t36.5 28.5t21.5 55l207 1057h328l-211 -1090q-35 -168 -123 -240q-95 -71 -250 -71z" />
    <glyph glyph-name="k" unicode="k" horiz-adv-x="1105" 
d="M657 0l-168 430l-131 -123l-59 -307h-324l283 1464h324l-152 -782l361 367h380l-426 -404l273 -645h-361z" />
    <glyph glyph-name="l" unicode="l" horiz-adv-x="493" 
d="M-23 0l283 1464h334l-283 -1464h-334z" />
    <glyph glyph-name="m" unicode="m" horiz-adv-x="1730" 
d="M-25 0l203 1049h316l-31 -158h6q64 92 139.5 140t177.5 48q197 0 258 -194h5q136 194 348 194q167 0 244.5 -120t37.5 -322l-123 -637h-327l121 625q18 88 -9 136t-98 48q-78 0 -130 -63t-73 -175l-110 -571h-328l121 625q18 86 -9 135t-98 49q-77 0 -129 -63.5
t-73 -174.5l-111 -571h-328z" />
    <glyph glyph-name="n" unicode="n" horiz-adv-x="1138" 
d="M-25 0l203 1049h318l-33 -166h6q136 196 338 196q161 0 241 -117.5t42 -316.5l-125 -645h-328l121 621q18 89 -12.5 138.5t-110.5 49.5q-82 0 -141 -66t-80 -168l-111 -575h-328z" />
    <glyph glyph-name="o" unicode="o" horiz-adv-x="1161" 
d="M532 -33q-102 0 -191.5 30.5t-160.5 88.5t-112 151.5t-41 211.5q0 172 73 314.5t211 228t316 85.5q102 0 192 -30t160.5 -87.5t111.5 -150t42 -209.5q0 -174 -72.5 -317.5t-211 -229.5t-317.5 -86zM539 201q68 0 121 39t82.5 101.5t44.5 131.5t14 137q0 64 -17.5 115
t-60.5 85t-107 34q-67 0 -119.5 -40t-82 -103t-44.5 -131.5t-14 -135.5q0 -103 44 -168t139 -65z" />
    <glyph glyph-name="p" unicode="p" horiz-adv-x="1183" 
d="M571 217q65 0 115.5 35.5t78.5 93.5t42 122t14 130q0 43 -9 80.5t-27.5 70t-53.5 51.5t-82 19q-81 0 -143.5 -59.5t-91.5 -143.5t-29 -172q0 -95 46 -161t140 -66zM-92 -346l270 1395h314l-25 -136h4q132 166 322 166q170 0 267 -127.5t97 -328.5q0 -95 -19 -187
t-60 -177.5t-100 -150t-145.5 -103t-189.5 -38.5q-104 0 -184 43t-123 127h-6l-94 -483h-328z" />
    <glyph glyph-name="q" unicode="q" horiz-adv-x="1187" 
d="M612 -346l88 461h-4q-51 -68 -125 -108t-161 -40q-178 0 -280.5 118.5t-102.5 328.5q0 99 22.5 195t68.5 181t109.5 149.5t150.5 102t187 37.5q101 0 179.5 -46.5t117.5 -131.5h6l29 148h313l-270 -1395h-328zM530 223q82 0 145 55.5t93.5 137.5t30.5 174q0 103 -45 168
t-136 65q-65 0 -116 -34.5t-81 -91t-45.5 -121.5t-15.5 -132q0 -221 170 -221z" />
    <glyph glyph-name="r" unicode="r" horiz-adv-x="770" 
d="M-25 0l203 1049h316l-35 -172h6q116 188 303 188q50 0 74 -8l-56 -287h-6q-161 24 -257 -50.5t-132 -260.5l-88 -459h-328z" />
    <glyph glyph-name="s" unicode="s" horiz-adv-x="1005" 
d="M469 -33q-77 0 -145 11.5t-131 38.5t-108.5 69t-74 107t-30.5 147h311q11 -154 184 -154q68 0 108 24.5t40 76.5q0 32 -29 55.5t-60 35t-108 33.5q-8 2 -12.5 3.5t-11.5 3.5t-13 4q-73 21 -124.5 44t-97 58t-68.5 86.5t-23 118.5q0 166 125.5 258t326.5 92q89 0 166 -19
t139 -58.5t100 -105.5t42 -153h-301q-6 57 -47.5 90t-110.5 33q-57 0 -98 -22t-41 -66q0 -43 63 -72q35 -16 162 -53q55 -15 97.5 -31t88 -42t75 -57.5t48.5 -78.5t19 -104q0 -181 -122 -277t-339 -96z" />
    <glyph glyph-name="t" unicode="t" horiz-adv-x="702" 
d="M401 -12q-177 0 -249 79t-39 244l102 529h-133l41 209h133l63 331h322l-66 -331h187l-41 -209h-186l-95 -490q-10 -61 9.5 -85.5t78.5 -24.5q54 0 78 4l-47 -238q-52 -18 -158 -18z" />
    <glyph glyph-name="u" unicode="u" horiz-adv-x="1128" 
d="M334 -31q-169 0 -250.5 113t-42.5 311l125 656h328l-119 -611q-38 -198 114 -198q84 0 142 60.5t80 168.5l110 580h328l-203 -1049h-313l31 158h-7q-128 -189 -323 -189z" />
    <glyph glyph-name="v" unicode="v" horiz-adv-x="1056" 
d="M268 0l-170 1049h334l55 -469l21 -220h2q45 109 96 213l221 476h332l-536 -1049h-355z" />
    <glyph glyph-name="w" unicode="w" horiz-adv-x="1574" 
d="M223 0l-123 1049h328l31 -435l8 -211h4q49 132 86 218l186 428h277l37 -428l12 -220h4q49 129 86 213l182 435h330l-491 -1049h-306l-43 477l-12 205h-4q-43 -121 -80 -205l-207 -477h-305z" />
    <glyph glyph-name="x" unicode="x" horiz-adv-x="1112" 
d="M-102 0l464 559l-225 490h361l102 -295h4l201 295h364l-413 -517l245 -532h-364l-119 328h-4l-242 -328h-374z" />
    <glyph glyph-name="y" unicode="y" horiz-adv-x="1067" 
d="M-31 -346l51 258h111q154 0 154 149q0 49 -27 181l-160 807h342l58 -443q6 -45 12 -108.5t9 -104.5l3 -41h4q54 144 103 248l207 449h329l-553 -1102q-78 -155 -174.5 -224t-247.5 -69h-221z" />
    <glyph glyph-name="z" unicode="z" horiz-adv-x="989" 
d="M-59 0l45 242l479 456l108 97v6q-96 -2 -129 -2h-315l49 248h840l-45 -240l-453 -432l-135 -119v-6q96 2 143 2h371l-49 -252h-909z" />
    <glyph glyph-name="braceleft" unicode="{" horiz-adv-x="796" 
d="M549 -283q-246 0 -348.5 97.5t-59.5 322.5l47 240q16 77 -14 116t-123 46l47 241q98 1 140.5 33t56.5 109l49 254q20 110 57 182.5t95 113t127.5 56.5t167.5 16h141l-51 -256h-64q-81 0 -118 -31.5t-52 -117.5l-57 -297q-18 -92 -58 -135t-116 -70v-6q64 -33 85.5 -84
t2.5 -146l-58 -286q-16 -81 19 -111.5t123 -30.5h39l-49 -256h-29z" />
    <glyph glyph-name="bar" unicode="|" horiz-adv-x="489" 
d="M186 -283v1827h199v-1827h-199z" />
    <glyph glyph-name="braceright" unicode="}" horiz-adv-x="796" 
d="M-96 -283l49 256h65q79 0 117 33t53 119l58 301q19 93 59 135.5t117 69.5v6q-64 33 -86.5 83.5t-3.5 145.5l55 281q16 81 -18.5 111t-122.5 30h-37l49 256h29q246 0 348 -97t59 -321l-47 -235q-14 -77 15.5 -116t121.5 -46l-47 -242q-97 -1 -139.5 -33t-56.5 -108
l-49 -260q-16 -87 -44 -151t-65.5 -105.5t-89.5 -67t-111 -35.5t-137 -10h-141z" />
    <glyph glyph-name="asciitilde" unicode="~" horiz-adv-x="892" 
d="M51 489q19 177 99.5 268t191.5 91q56 0 108 -22t93.5 -44t72.5 -22q37 0 56 21.5t28 66.5h205q-19 -167 -87.5 -257.5t-184.5 -90.5q-57 0 -112.5 21t-101 42t-77.5 21q-62 0 -84 -95h-207z" />
    <glyph glyph-name="uni00A0" unicode="&#xa0;" horiz-adv-x="317" 
 />
    <glyph glyph-name="exclamdown" unicode="&#xa1;" horiz-adv-x="532" 
d="M389 725l-43 -645l-65 -340h-340l69 362l211 623h168zM342 840q-84 0 -138 52.5t-54 133.5q0 82 54.5 135t137.5 53t136.5 -53t53.5 -135t-53.5 -134t-136.5 -52z" />
    <glyph glyph-name="cent" unicode="&#xa2;" horiz-adv-x="1089" 
d="M346 422q0 -152 94 -195l119 600q-72 -18 -122 -87t-70.5 -150.5t-20.5 -167.5zM1047 397q-39 -202 -181.5 -315t-351.5 -113l-37 -188h-123l39 199q-79 14 -143.5 47.5t-115.5 87t-79 133.5t-28 180q0 126 41.5 241.5t115.5 204.5t183.5 144t238.5 59l29 140h123
l-29 -146q157 -25 251.5 -122.5t98.5 -272.5h-311q-6 114 -88 147l-119 -610q63 9 109 55t69 129h308z" />
    <glyph glyph-name="sterling" unicode="&#xa3;" horiz-adv-x="1206" 
d="M1122 84q-143 -115 -311 -115q-64 0 -129 16t-110 34.5t-101.5 34.5t-105.5 16q-57 0 -109 -22t-119 -64l-129 247q103 58 174.5 148t71.5 196v17h-178l37 188h92q-43 118 -43 199q0 109 44 196.5t120 142.5t173 84.5t206 29.5q253 0 382 -115q149 -133 130 -397h-328
q15 243 -187 243q-86 0 -137 -51.5t-51 -148.5q0 -53 33 -183h287l-37 -188h-219q0 -88 -51 -156.5t-138 -130.5l2 -6q79 27 129 27q61 0 156.5 -26t146.5 -26q94 0 185 72z" />
    <glyph glyph-name="currency" unicode="&#xa4;" horiz-adv-x="1048" 
d="M233 201l-172 168l132 131q-52 96 -52 215q0 117 52 213l-132 135l172 168l134 -139q84 41 190 41q104 0 188 -41l136 139l172 -168l-135 -135q53 -92 53 -213q0 -119 -51 -213l133 -133l-172 -168l-136 137q-86 -39 -188 -39q-109 0 -188 39zM557 487q85 0 130.5 61.5
t45.5 166.5t-45.5 167t-130.5 62q-86 0 -134 -62t-48 -167t48 -166.5t134 -61.5z" />
    <glyph glyph-name="yen" unicode="&#xa5;" horiz-adv-x="1292" 
d="M371 0l51 262h-336l25 131h335l23 119h-336l27 131h291l-283 762h369l106 -344q14 -45 27.5 -98.5t20.5 -84.5l7 -30h4q60 109 121 199l252 358h375l-576 -762h289l-24 -131h-340l-25 -119h340l-24 -131h-340l-50 -262h-329z" />
    <glyph glyph-name="brokenbar" unicode="&#xa6;" horiz-adv-x="471" 
d="M176 786v758h201v-758h-201zM176 -283v785h201v-785h-201z" />
    <glyph glyph-name="section" unicode="&#xa7;" horiz-adv-x="1259" 
d="M682 662q-129 70 -193 114q-46 -12 -76 -39.5t-30 -70.5q0 -45 43.5 -84t173.5 -111q25 -16 84.5 -50.5t87.5 -53.5q50 10 84.5 36.5t34.5 67.5q0 51 -44 88t-165 103zM1204 535q0 -123 -69.5 -195t-200.5 -117q72 -84 72 -207q0 -182 -131.5 -284.5t-331.5 -102.5
q-82 0 -154 16t-132.5 50.5t-103.5 84t-65.5 120t-19.5 155.5h301q-2 -84 43.5 -129t132.5 -45q61 0 103 31t42 88t-57.5 99.5t-222.5 126.5q-10 4 -15 7q-166 87 -240.5 171.5t-74.5 203.5q0 240 282 318q-49 66 -49 159q0 90 36 163t98 119t141.5 70.5t169.5 24.5
q93 0 170.5 -21.5t139.5 -66t96 -122t32 -181.5h-287q0 150 -151 150q-57 0 -95 -27.5t-38 -79.5q0 -48 51.5 -88t206.5 -123q80 -42 131 -76t98.5 -78.5t69.5 -97t22 -116.5z" />
    <glyph glyph-name="dieresis" unicode="&#xa8;" 
d="M866 1468q71 0 118.5 -45.5t47.5 -115.5q0 -69 -47.5 -114.5t-118.5 -45.5t-118.5 45.5t-47.5 114.5q0 70 47.5 115.5t118.5 45.5zM412 1468q71 0 118.5 -45.5t47.5 -115.5q0 -69 -47.5 -114.5t-118.5 -45.5t-118.5 45.5t-47.5 114.5q0 70 47.5 115.5t118.5 45.5z" />
    <glyph glyph-name="copyright" unicode="&#xa9;" horiz-adv-x="1658" 
d="M868 -35q-209 0 -381 98.5t-272 273.5t-100 390q0 161 58.5 303.5t159 243t240 159t295.5 58.5q209 0 381.5 -99t272.5 -274.5t100 -390.5t-100 -390t-272.5 -273.5t-381.5 -98.5zM868 72q177 0 321 85t226 235t82 335q0 139 -48.5 261.5t-131.5 209t-200 136.5t-249 50
q-177 0 -320.5 -85t-225.5 -235.5t-82 -336.5q0 -185 82 -335t225.5 -235t320.5 -85zM877 276q-198 0 -320.5 129.5t-122.5 329.5t123 330.5t320 130.5q150 0 258 -80q118 -87 137 -252h-246q-9 52 -48 85.5t-101 33.5q-89 0 -136 -68.5t-47 -179.5q0 -109 50 -178.5
t135 -69.5q66 0 106.5 37t48.5 94h246q-9 -140 -111 -239q-109 -103 -292 -103z" />
    <glyph glyph-name="ordfeminine" unicode="&#xaa;" horiz-adv-x="1011" 
d="M500 647q72 0 121.5 40.5t66.5 115.5l23 112q-50 -22 -156 -38q-34 -5 -48 -8t-43.5 -12.5t-43 -21t-25.5 -33t-12 -50.5q0 -52 32 -78.5t85 -26.5zM385 463q-129 0 -210 67t-81 191q0 82 28.5 140.5t85 93t127.5 52.5t169 25q139 10 190 30.5t51 82.5q0 39 -27.5 63.5
t-80.5 24.5q-127 0 -158 -119h-278q27 149 139.5 233.5t310.5 84.5q170 0 271 -64q145 -97 100 -317l-82 -422q-20 -104 6 -133l-2 -13h-287q-14 28 -14 103h-4q-99 -123 -254 -123z" />
    <glyph glyph-name="guillemotleft" unicode="&#xab;" horiz-adv-x="886" 
d="M698 86l-252 279l62 319l356 260l-57 -299l-186 -137v-4l131 -139zM313 86l-256 279l62 319l360 260l-59 -299l-191 -137v-4l138 -139z" />
    <glyph glyph-name="logicalnot" unicode="&#xac;" horiz-adv-x="1056" 
d="M614 274l66 342h-584l51 265h867l-119 -607h-281z" />
    <glyph glyph-name="uni00AD" unicode="&#xad;" horiz-adv-x="675" 
d="M33 375l55 280h547l-53 -280h-549z" />
    <glyph glyph-name="registered" unicode="&#xae;" horiz-adv-x="1071" 
d="M629 500q-207 0 -349.5 141.5t-142.5 353.5t142.5 354t349.5 142q135 0 247 -64t177 -178t65 -254q0 -212 -141 -353.5t-348 -141.5zM629 580q171 0 283 117.5t112 297.5q0 178 -112.5 296t-282.5 118q-171 0 -284.5 -118t-113.5 -296q0 -179 113.5 -297t284.5 -118z
M567 1030h78q70 0 70 55q0 56 -70 56h-78v-111zM412 737v525h258q84 0 141 -41.5t57 -114.5q0 -94 -88 -125v-4q60 -18 76 -90q4 -23 6.5 -58.5t6 -55t12.5 -23.5v-13h-152q-6 4 -9.5 21.5t-6.5 50.5t-6 49q-4 34 -22.5 49t-53.5 15h-64v-185h-155z" />
    <glyph glyph-name="macron" unicode="&#xaf;" 
d="M352 1202l41 205h578l-41 -205h-578z" />
    <glyph glyph-name="degree" unicode="&#xb0;" horiz-adv-x="755" 
d="M489 819q-131 0 -225 88t-94 217q0 128 94.5 219t224.5 91q131 0 225.5 -91t94.5 -219q0 -129 -94 -217t-226 -88zM489 979q63 0 102.5 42t39.5 103t-40 105.5t-102 44.5t-100.5 -44.5t-38.5 -105.5q0 -62 38 -103.5t101 -41.5z" />
    <glyph glyph-name="plusminus" unicode="&#xb1;" horiz-adv-x="1140" 
d="M397 344l56 291h-353l52 262h354l53 289h275l-56 -289h352l-51 -262h-352l-55 -291h-275zM-23 0l50 250h979l-48 -250h-981z" />
    <glyph glyph-name="twosuperior" unicode="&#xb2;" horiz-adv-x="780" 
d="M733 590h-676q31 183 187 291q42 31 87.5 58t99.5 55.5t77 41.5q48 29 70 55t22 68q0 37 -23 57.5t-63 20.5q-49 0 -84 -37.5t-49 -105.5h-225q24 157 127.5 241t253.5 84q125 0 212 -61.5t87 -177.5q0 -143 -150 -246q-44 -31 -140.5 -80.5t-127.5 -77.5h352z" />
    <glyph glyph-name="threesuperior" unicode="&#xb3;" horiz-adv-x="792" 
d="M434 571q-152 0 -249.5 76.5t-94.5 218.5h225q0 -59 30.5 -92t90.5 -33q51 0 83 27.5t32 75.5q0 90 -115 90h-49l31 151h53q53 0 86 23t33 66q0 39 -26.5 59t-67.5 20q-50 0 -82 -29t-43 -75h-219q22 121 119.5 195.5t242.5 74.5q130 0 216.5 -58.5t86.5 -166.5
q-1 -64 -41 -111.5t-104 -70.5v-2q51 -23 82.5 -66.5t31.5 -103.5q0 -87 -52.5 -149.5t-130.5 -91t-169 -28.5z" />
    <glyph glyph-name="acute" unicode="&#xb4;" 
d="M469 1171l156 304h379l-283 -304h-252z" />
    <glyph glyph-name="mu" unicode="&#xb5;" horiz-adv-x="1142" 
d="M-92 -346l270 1395h328l-119 -611q-20 -96 10 -145t107 -49q84 0 141 62t78 169l111 574h327l-203 -1049h-313l29 152h-6q-120 -179 -262 -179q-64 0 -103 35h-4l-68 -354h-323z" />
    <glyph glyph-name="paragraph" unicode="&#xb6;" horiz-adv-x="1204" 
d="M449 0l131 686h-74q-167 0 -261.5 90.5t-94.5 239.5q0 219 151 346q114 102 322 102h655l-283 -1464h-209l246 1268h-129l-246 -1268h-208z" />
    <glyph glyph-name="periodcentered" unicode="&#xb7;" horiz-adv-x="473" 
d="M260 844q84 0 138.5 -53t54.5 -134q0 -82 -55 -135t-138 -53t-136.5 53t-53.5 135t53.5 134.5t136.5 52.5z" />
    <glyph glyph-name="cedilla" unicode="&#xb8;" 
d="M303 -395q-139 0 -227 59l45 72q64 -31 137 -31q45 0 79 15t34 51q0 49 -68 49q-35 0 -72 -15l-28 50l149 145h127l-117 -96v-4q88 8 142.5 -24.5t54.5 -100.5q0 -57 -37.5 -96.5t-93.5 -56.5t-125 -17z" />
    <glyph glyph-name="onesuperior" unicode="&#xb9;" horiz-adv-x="550" 
d="M223 590l94 481h-182l33 164q204 9 268 176h193l-160 -821h-246z" />
    <glyph glyph-name="ordmasculine" unicode="&#xba;" horiz-adv-x="1038" 
d="M553 457q-91 0 -170 25.5t-142.5 75t-100 131t-36.5 185.5q0 152 65 279t187 203t277 76q90 0 169 -25t143 -74.5t101 -130.5t37 -184q1 -155 -63.5 -282t-187 -203t-279.5 -76zM559 664q58 0 103 34.5t69.5 90t36.5 116t12 121.5q0 83 -37.5 141t-117.5 58
q-58 0 -102 -36t-68.5 -93.5t-36.5 -119t-12 -122.5q0 -82 36.5 -136t116.5 -54z" />
    <glyph glyph-name="guillemotright" unicode="&#xbb;" horiz-adv-x="886" 
d="M401 86l58 299l190 137v4l-135 140l53 278l256 -278l-61 -320zM14 86l60 299l186 137v4l-133 140l53 278l252 -278l-61 -320z" />
    <glyph glyph-name="onequarter" unicode="&#xbc;" horiz-adv-x="1609" 
d="M991 336h207l49 252h-2l-254 -248v-4zM1516 172h-119l-33 -172h-231l32 172h-387l37 190l471 459h238l-97 -485h121zM238 651l94 482h-182l30 163q207 10 269 177h192l-160 -822h-243zM80 0l1296 1464h205l-1294 -1464h-207z" />
    <glyph glyph-name="onehalf" unicode="&#xbd;" horiz-adv-x="1685" 
d="M856 0q17 102 65 170.5t121 120.5q43 31 88 57.5t101.5 56t77.5 41.5q47 28 68.5 54.5t21.5 68.5q0 36 -22.5 57t-61.5 21q-51 0 -86 -37.5t-49 -105.5h-224q23 157 126.5 241t254.5 84q124 0 210.5 -61.5t86.5 -177.5q0 -146 -149 -246q-44 -32 -140 -81.5t-128 -76.5
h352l-37 -186h-676zM68 0l1296 1464h205l-1295 -1464h-206zM238 651l94 482h-182l30 163q207 10 269 177h192l-160 -822h-243z" />
    <glyph glyph-name="threequarters" unicode="&#xbe;" horiz-adv-x="1748" 
d="M453 633q-152 0 -249.5 76.5t-94.5 218.5h225q0 -59 30.5 -92t90.5 -33q51 0 82.5 27t31.5 75q0 90 -114 90h-49l30 152h53q53 0 86 22.5t33 65.5q0 39 -26.5 59.5t-67.5 20.5q-50 0 -82 -29.5t-43 -75.5h-219q22 121 119.5 196t242.5 75q130 0 217 -59t87 -167
q-1 -64 -41.5 -111.5t-104.5 -70.5v-2q51 -24 83 -67t32 -103q0 -87 -52.5 -149.5t-130.5 -90.5t-169 -28zM1128 336h207l49 252h-2l-254 -248v-4zM1653 172h-119l-33 -172h-231l33 172h-388l37 190l471 459h238l-96 -485h121zM238 0l1296 1464h205l-1295 -1464h-206z" />
    <glyph glyph-name="questiondown" unicode="&#xbf;" horiz-adv-x="1101" 
d="M760 725q-20 -104 -49.5 -170t-64 -102.5t-95.5 -77.5q-23 -16 -64.5 -39.5t-70 -41.5t-58.5 -42.5t-45.5 -56t-15.5 -68.5q0 -67 43 -103t117 -36q88 0 150.5 54t80.5 159h330q-39 -234 -196 -361t-392 -127q-73 0 -139.5 12.5t-129.5 41t-109 71.5t-73.5 109t-27.5 147
q0 129 63 222.5t189 162.5q23 13 65 35.5t58 31.5t37.5 22.5t35.5 25.5q51 43 66 131h295zM651 840q-84 0 -138 52.5t-54 133.5q0 82 54.5 135t137.5 53t137 -53t54 -135t-54 -134t-137 -52z" />
    <glyph glyph-name="Agrave" unicode="&#xc0;" horiz-adv-x="1384" 
d="M684 879l-174 -355h336l-45 353l-21 210h-4q-57 -134 -92 -208zM918 0l-37 266h-496l-129 -266h-362l774 1464h364l256 -1464h-370zM758 1536l-170 266h358l60 -266h-248z" />
    <glyph glyph-name="Aacute" unicode="&#xc1;" horiz-adv-x="1384" 
d="M684 879l-174 -355h336l-45 353l-21 210h-4q-57 -134 -92 -208zM918 0l-37 266h-496l-129 -266h-362l774 1464h364l256 -1464h-370zM729 1536l127 266h371l-248 -266h-250z" />
    <glyph glyph-name="Acircumflex" unicode="&#xc2;" horiz-adv-x="1384" 
d="M684 879l-174 -355h336l-45 353l-21 210h-4q-57 -134 -92 -208zM918 0l-37 266h-496l-129 -266h-362l774 1464h364l256 -1464h-370zM477 1536l256 256h316l172 -256h-269l-73 113h-5l-106 -113h-291z" />
    <glyph glyph-name="Atilde" unicode="&#xc3;" horiz-adv-x="1384" 
d="M684 879l-174 -355h336l-45 353l-21 210h-4q-57 -134 -92 -208zM918 0l-37 266h-496l-129 -266h-362l774 1464h364l256 -1464h-370zM987 1540q-49 0 -96 18t-83 36t-60 18q-25 0 -45 -19.5t-27 -54.5h-170q23 134 89.5 205.5t156.5 71.5q47 0 92 -19t80.5 -38t58.5 -19
q30 0 47 18t27 53h170q-21 -124 -83 -197t-157 -73z" />
    <glyph glyph-name="Adieresis" unicode="&#xc4;" horiz-adv-x="1384" 
d="M684 879l-174 -355h336l-45 353l-21 210h-4q-57 -134 -92 -208zM918 0l-37 266h-496l-129 -266h-362l774 1464h364l256 -1464h-370zM1102 1853q71 0 118.5 -45.5t47.5 -115.5q0 -69 -47.5 -114.5t-118.5 -45.5t-118.5 45.5t-47.5 114.5q0 70 47.5 115.5t118.5 45.5z
M635 1853q71 0 118.5 -45.5t47.5 -115.5q0 -69 -47.5 -114.5t-118.5 -45.5t-118.5 45.5t-47.5 114.5q0 70 47.5 115.5t118.5 45.5z" />
    <glyph glyph-name="Aring" unicode="&#xc5;" horiz-adv-x="1384" 
d="M684 879l-174 -355h336l-45 353l-21 210h-4q-57 -134 -92 -208zM918 0l-37 266h-496l-129 -266h-362l774 1464h364l256 -1464h-370zM870 1513q-86 0 -147 58t-61 143q0 84 61.5 142.5t146.5 58.5q87 0 148 -58.5t61 -142.5q0 -85 -61 -143t-148 -58zM870 1626
q37 0 61.5 26t24.5 62t-24.5 62t-61.5 26q-36 0 -60 -26t-24 -62t24 -62t60 -26z" />
    <glyph glyph-name="AE" unicode="&#xc6;" horiz-adv-x="1988" 
d="M844 1167l-334 -659h344l127 659h-137zM758 0l49 260h-422l-131 -260h-358l766 1464h1423l-57 -295h-689l-49 -268h588l-53 -278h-590l-61 -318h710l-59 -305h-1067z" />
    <glyph glyph-name="Ccedilla" unicode="&#xc7;" horiz-adv-x="1413" 
d="M565 -395q-139 0 -227 59l45 72q64 -31 137 -31q45 0 79 15t34 51q0 49 -68 49q-33 0 -71 -15l-29 50l123 120q-244 34 -382 199.5t-138 429.5q0 173 55.5 333t154.5 283.5t249.5 198t328.5 74.5q252 0 399 -117q174 -134 189 -415h-357q-13 233 -245 233
q-83 0 -152.5 -34.5t-116 -92t-79.5 -133.5t-47.5 -157t-14.5 -165q0 -72 15.5 -132.5t48 -110.5t90 -78.5t135.5 -28.5q116 0 196.5 64t112.5 182h359q-59 -268 -244 -408q-178 -133 -436 -133h-9l-75 -63v-4q88 8 142 -24.5t54 -100.5q0 -57 -37.5 -96.5t-93.5 -56.5
t-125 -17z" />
    <glyph glyph-name="Egrave" unicode="&#xc8;" horiz-adv-x="1245" 
d="M733 1536l-170 266h359l59 -266h-248zM-4 0l283 1464h1062l-57 -295h-704l-52 -268h607l-54 -278h-608l-61 -318h729l-60 -305h-1085z" />
    <glyph glyph-name="Eacute" unicode="&#xc9;" horiz-adv-x="1245" 
d="M705 1536l126 266h371l-248 -266h-249zM-4 0l283 1464h1062l-57 -295h-704l-52 -268h607l-54 -278h-608l-61 -318h729l-60 -305h-1085z" />
    <glyph glyph-name="Ecircumflex" unicode="&#xca;" horiz-adv-x="1245" 
d="M-4 0l283 1464h1062l-57 -295h-704l-52 -268h607l-54 -278h-608l-61 -318h729l-60 -305h-1085zM459 1536l256 256h315l172 -256h-268l-74 113h-4l-106 -113h-291z" />
    <glyph glyph-name="Edieresis" unicode="&#xcb;" horiz-adv-x="1245" 
d="M1079 1853q71 0 118.5 -45.5t47.5 -115.5q0 -69 -47.5 -114.5t-118.5 -45.5t-118.5 45.5t-47.5 114.5q0 70 47.5 115.5t118.5 45.5zM612 1853q71 0 118.5 -45.5t47.5 -115.5q0 -69 -47.5 -114.5t-118.5 -45.5t-118.5 45.5t-47.5 114.5q0 70 47.5 115.5t118.5 45.5zM-4 0
l283 1464h1062l-57 -295h-704l-52 -268h607l-54 -278h-608l-61 -318h729l-60 -305h-1085z" />
    <glyph glyph-name="Igrave" unicode="&#xcc;" horiz-adv-x="557" 
d="M-4 0l285 1464h356l-283 -1464h-358zM358 1536l-170 266h359l59 -266h-248z" />
    <glyph glyph-name="Iacute" unicode="&#xcd;" horiz-adv-x="557" 
d="M-4 0l285 1464h356l-283 -1464h-358zM319 1536l127 266h371l-248 -266h-250z" />
    <glyph glyph-name="Icircumflex" unicode="&#xce;" horiz-adv-x="557" 
d="M-4 0l285 1464h356l-283 -1464h-358zM82 1536l256 256h315l172 -256h-268l-74 113h-4l-106 -113h-291z" />
    <glyph glyph-name="Idieresis" unicode="&#xcf;" horiz-adv-x="557" 
d="M-4 0l285 1464h356l-283 -1464h-358zM715 1853q71 0 118.5 -45.5t47.5 -115.5q0 -69 -47.5 -114.5t-118.5 -45.5t-118.5 45.5t-47.5 114.5q0 70 47.5 115.5t118.5 45.5zM248 1853q71 0 118.5 -45.5t47.5 -115.5q0 -69 -47.5 -114.5t-118.5 -45.5t-118.5 45.5t-47.5 114.5
q0 70 47.5 115.5t118.5 45.5z" />
    <glyph glyph-name="Eth" unicode="&#xd0;" horiz-adv-x="1433" 
d="M18 0l119 608h-110l51 275h110l113 581h524q284 0 451.5 -163.5t167.5 -460.5q0 -387 -213 -617q-101 -107 -249 -165t-325 -58h-639zM434 303h223q200 0 311 140t111 378q0 168 -78.5 255t-230.5 87h-170l-53 -280h309l-51 -275h-311z" />
    <glyph glyph-name="Ntilde" unicode="&#xd1;" horiz-adv-x="1406" 
d="M1038 1540q-49 0 -96 18t-83 36t-60 18q-25 0 -45 -19.5t-27 -54.5h-170q23 134 89.5 205.5t156.5 71.5q47 0 92 -19t80.5 -38t58.5 -19q30 0 47 18t27 53h170q-21 -124 -83 -197t-157 -73zM-4 0l283 1464h358l256 -719l68 -215h4q35 199 45 250l133 684h346l-283 -1464
h-358l-250 698l-74 236h-4q-41 -226 -51 -277l-127 -657h-346z" />
    <glyph glyph-name="Ograve" unicode="&#xd2;" horiz-adv-x="1488" 
d="M776 1536l-170 266h359l59 -266h-248zM725 -35q-293 0 -476.5 168.5t-182.5 470.5q1 142 35.5 274.5t102.5 244t161.5 194.5t218.5 129.5t268 46.5q296 0 472.5 -174t176.5 -477q0 -175 -53.5 -333t-151 -279t-245.5 -192.5t-326 -72.5zM735 258q84 0 153.5 35.5t115 93
t77 134t45 156t13.5 161.5q0 79 -17 143.5t-52.5 115t-95 78t-138.5 27.5q-84 -1 -154 -37.5t-116 -96t-78 -137.5t-46 -159t-14 -164q0 -75 17.5 -136.5t53 -110.5t96 -76t140.5 -27z" />
    <glyph glyph-name="Oacute" unicode="&#xd3;" horiz-adv-x="1488" 
d="M756 1536l127 266h370l-247 -266h-250zM725 -35q-293 0 -476.5 168.5t-182.5 470.5q1 142 35.5 274.5t102.5 244t161.5 194.5t218.5 129.5t268 46.5q296 0 472.5 -174t176.5 -477q0 -175 -53.5 -333t-151 -279t-245.5 -192.5t-326 -72.5zM735 258q84 0 153.5 35.5t115 93
t77 134t45 156t13.5 161.5q0 79 -17 143.5t-52.5 115t-95 78t-138.5 27.5q-84 -1 -154 -37.5t-116 -96t-78 -137.5t-46 -159t-14 -164q0 -75 17.5 -136.5t53 -110.5t96 -76t140.5 -27z" />
    <glyph glyph-name="Ocircumflex" unicode="&#xd4;" horiz-adv-x="1488" 
d="M725 -35q-293 0 -476.5 168.5t-182.5 470.5q1 142 35.5 274.5t102.5 244t161.5 194.5t218.5 129.5t268 46.5q296 0 472.5 -174t176.5 -477q0 -175 -53.5 -333t-151 -279t-245.5 -192.5t-326 -72.5zM735 258q84 0 153.5 35.5t115 93t77 134t45 156t13.5 161.5
q0 79 -17 143.5t-52.5 115t-95 78t-138.5 27.5q-84 -1 -154 -37.5t-116 -96t-78 -137.5t-46 -159t-14 -164q0 -75 17.5 -136.5t53 -110.5t96 -76t140.5 -27zM514 1536l256 256h315l172 -256h-268l-74 113h-4l-106 -113h-291z" />
    <glyph glyph-name="Otilde" unicode="&#xd5;" horiz-adv-x="1488" 
d="M1012 1540q-49 0 -96 18t-83.5 36t-60.5 18q-25 0 -45 -19.5t-27 -54.5h-170q23 134 89.5 205.5t156.5 71.5q47 0 92.5 -19t81 -38t58.5 -19q30 0 46.5 18t26.5 53h170q-21 -124 -82.5 -197t-156.5 -73zM725 -35q-293 0 -476.5 168.5t-182.5 470.5q1 142 35.5 274.5
t102.5 244t161.5 194.5t218.5 129.5t268 46.5q296 0 472.5 -174t176.5 -477q0 -175 -53.5 -333t-151 -279t-245.5 -192.5t-326 -72.5zM735 258q84 0 153.5 35.5t115 93t77 134t45 156t13.5 161.5q0 79 -17 143.5t-52.5 115t-95 78t-138.5 27.5q-84 -1 -154 -37.5t-116 -96
t-78 -137.5t-46 -159t-14 -164q0 -75 17.5 -136.5t53 -110.5t96 -76t140.5 -27z" />
    <glyph glyph-name="Odieresis" unicode="&#xd6;" horiz-adv-x="1488" 
d="M1137 1853q71 0 118.5 -45.5t47.5 -115.5q0 -69 -47.5 -114.5t-118.5 -45.5t-118.5 45.5t-47.5 114.5q0 70 47.5 115.5t118.5 45.5zM670 1853q71 0 118.5 -45.5t47.5 -115.5q0 -69 -47.5 -114.5t-118.5 -45.5t-118.5 45.5t-47.5 114.5q0 70 47.5 115.5t118.5 45.5z
M725 -35q-293 0 -476.5 168.5t-182.5 470.5q1 142 35.5 274.5t102.5 244t161.5 194.5t218.5 129.5t268 46.5q296 0 472.5 -174t176.5 -477q0 -175 -53.5 -333t-151 -279t-245.5 -192.5t-326 -72.5zM735 258q84 0 153.5 35.5t115 93t77 134t45 156t13.5 161.5q0 79 -17 143.5
t-52.5 115t-95 78t-138.5 27.5q-84 -1 -154 -37.5t-116 -96t-78 -137.5t-46 -159t-14 -164q0 -75 17.5 -136.5t53 -110.5t96 -76t140.5 -27z" />
    <glyph glyph-name="multiply" unicode="&#xd7;" horiz-adv-x="1140" 
d="M815 170l-248 309l-346 -311l-168 186l357 320l-250 313l207 178l247 -309l344 309l170 -184l-356 -319l250 -312z" />
    <glyph glyph-name="Oslash" unicode="&#xd8;" horiz-adv-x="1488" 
d="M422 608q0 -72 16 -141l606 668q-76 67 -208 67q-85 0 -156 -36.5t-117.5 -96t-79 -137.5t-47 -159.5t-14.5 -164.5zM735 258q85 0 155.5 35.5t116.5 93t78 134t46 156t14 161.5q0 91 -21 161l-608 -667q77 -74 219 -74zM725 -35q-255 0 -426 127l-149 -164l-109 103
l149 166q-124 158 -124 407q1 179 56 339.5t153.5 283t247.5 194.5t327 72q243 0 412 -121l133 148l110 -101l-137 -149q133 -169 133 -428q0 -175 -53.5 -333t-151 -279t-245.5 -192.5t-326 -72.5z" />
    <glyph glyph-name="Ugrave" unicode="&#xd9;" horiz-adv-x="1378" 
d="M766 1536l-170 266h358l60 -266h-248zM653 -27q-115 0 -210.5 22t-172 67t-123 115t-63 165.5t7.5 218.5l176 903h357l-183 -940q-24 -124 31.5 -193t190.5 -69q218 0 262 230l188 972h356l-192 -991q-46 -245 -202 -372.5t-423 -127.5z" />
    <glyph glyph-name="Uacute" unicode="&#xda;" horiz-adv-x="1378" 
d="M745 1536l127 266h371l-248 -266h-250zM653 -27q-115 0 -210.5 22t-172 67t-123 115t-63 165.5t7.5 218.5l176 903h357l-183 -940q-24 -124 31.5 -193t190.5 -69q218 0 262 230l188 972h356l-192 -991q-46 -245 -202 -372.5t-423 -127.5z" />
    <glyph glyph-name="Ucircumflex" unicode="&#xdb;" horiz-adv-x="1378" 
d="M653 -27q-115 0 -210.5 22t-172 67t-123 115t-63 165.5t7.5 218.5l176 903h357l-183 -940q-24 -124 31.5 -193t190.5 -69q218 0 262 230l188 972h356l-192 -991q-46 -245 -202 -372.5t-423 -127.5zM498 1536l256 256h315l172 -256h-268l-74 113h-4l-107 -113h-290z" />
    <glyph glyph-name="Udieresis" unicode="&#xdc;" horiz-adv-x="1378" 
d="M1118 1853q71 0 118.5 -45.5t47.5 -115.5q0 -69 -47.5 -114.5t-118.5 -45.5t-118.5 45.5t-47.5 114.5q0 70 47.5 115.5t118.5 45.5zM651 1853q71 0 118.5 -45.5t47.5 -115.5q0 -69 -47.5 -114.5t-118.5 -45.5t-118.5 45.5t-47.5 114.5q0 70 47.5 115.5t118.5 45.5z
M653 -27q-115 0 -210.5 22t-172 67t-123 115t-63 165.5t7.5 218.5l176 903h357l-183 -940q-24 -124 31.5 -193t190.5 -69q218 0 262 230l188 972h356l-192 -991q-46 -245 -202 -372.5t-423 -127.5z" />
    <glyph glyph-name="Yacute" unicode="&#xdd;" horiz-adv-x="1308" 
d="M369 0l104 547l-297 917h375l106 -372q13 -44 26 -101t19 -92l7 -35h4q71 121 139 223l254 377h387l-664 -929l-102 -535h-358zM700 1536l127 266h371l-248 -266h-250z" />
    <glyph glyph-name="Thorn" unicode="&#xde;" horiz-adv-x="1304" 
d="M-4 0l283 1464h362l-39 -202h213q253 0 381 -125q127 -124 127 -320q0 -244 -155.5 -387t-405.5 -143h-348l-56 -287h-362zM469 571h264q97 0 163.5 58t66.5 166q0 166 -181 166h-237z" />
    <glyph glyph-name="germandbls" unicode="&#xdf;" horiz-adv-x="1163" 
d="M621 -18q-123 0 -209 30l47 238h2q49 -12 104 -12q105 0 170.5 75t65.5 211q0 98 -51.5 151.5t-153.5 53.5h-41l37 189h39q98 0 158.5 44.5t60.5 141.5q0 62 -41.5 99.5t-106.5 37.5q-157 0 -194 -186l-205 -1055h-328l207 1075q38 196 177.5 307t351.5 111
q83 0 158 -19.5t140.5 -59.5t105 -111t40.5 -164q2 -108 -58 -191.5t-171 -124.5v-6q89 -40 141.5 -122t52.5 -197q0 -230 -137 -373t-362 -143z" />
    <glyph glyph-name="agrave" unicode="&#xe0;" horiz-adv-x="1081" 
d="M440 186q85 0 142.5 46.5t76.5 132.5l25 129q-61 -30 -178 -48q-6 -1 -28.5 -4.5t-31.5 -5t-29 -6t-30 -9t-25.5 -12t-23.5 -17t-17 -22t-12.5 -29t-3.5 -36.5q0 -59 36.5 -89t98.5 -30zM317 -27q-142 0 -235.5 80t-93.5 223q0 75 22.5 133t60.5 95.5t96 63.5t122 38.5
t145 18.5q71 5 111 9t79.5 12.5t58.5 22t30.5 34t11.5 51.5q0 46 -33.5 73t-97.5 27q-152 0 -186 -137h-306q30 169 158 264.5t350 95.5q209 0 318 -84q146 -107 100 -346l-94 -483q-23 -113 6 -150v-14h-315q-17 35 -17 115h-4q-121 -142 -287 -142zM547 1171l-199 304h359
l88 -304h-248z" />
    <glyph glyph-name="aacute" unicode="&#xe1;" horiz-adv-x="1081" 
d="M440 186q85 0 142.5 46.5t76.5 132.5l25 129q-61 -30 -178 -48q-6 -1 -28.5 -4.5t-31.5 -5t-29 -6t-30 -9t-25.5 -12t-23.5 -17t-17 -22t-12.5 -29t-3.5 -36.5q0 -59 36.5 -89t98.5 -30zM317 -27q-142 0 -235.5 80t-93.5 223q0 75 22.5 133t60.5 95.5t96 63.5t122 38.5
t145 18.5q71 5 111 9t79.5 12.5t58.5 22t30.5 34t11.5 51.5q0 46 -33.5 73t-97.5 27q-152 0 -186 -137h-306q30 169 158 264.5t350 95.5q209 0 318 -84q146 -107 100 -346l-94 -483q-23 -113 6 -150v-14h-315q-17 35 -17 115h-4q-121 -142 -287 -142zM528 1171l156 304h379
l-283 -304h-252z" />
    <glyph glyph-name="acircumflex" unicode="&#xe2;" horiz-adv-x="1081" 
d="M440 186q85 0 142.5 46.5t76.5 132.5l25 129q-61 -30 -178 -48q-6 -1 -28.5 -4.5t-31.5 -5t-29 -6t-30 -9t-25.5 -12t-23.5 -17t-17 -22t-12.5 -29t-3.5 -36.5q0 -59 36.5 -89t98.5 -30zM317 -27q-142 0 -235.5 80t-93.5 223q0 75 22.5 133t60.5 95.5t96 63.5t122 38.5
t145 18.5q71 5 111 9t79.5 12.5t58.5 22t30.5 34t11.5 51.5q0 46 -33.5 73t-97.5 27q-152 0 -186 -137h-306q30 169 158 264.5t350 95.5q209 0 318 -84q146 -107 100 -346l-94 -483q-23 -113 6 -150v-14h-315q-17 35 -17 115h-4q-121 -142 -287 -142zM281 1176l260 280h315
l170 -280h-270l-70 135h-4l-113 -135h-288z" />
    <glyph glyph-name="atilde" unicode="&#xe3;" horiz-adv-x="1081" 
d="M440 186q85 0 142.5 46.5t76.5 132.5l25 129q-61 -30 -178 -48q-6 -1 -28.5 -4.5t-31.5 -5t-29 -6t-30 -9t-25.5 -12t-23.5 -17t-17 -22t-12.5 -29t-3.5 -36.5q0 -59 36.5 -89t98.5 -30zM317 -27q-142 0 -235.5 80t-93.5 223q0 75 22.5 133t60.5 95.5t96 63.5t122 38.5
t145 18.5q71 5 111 9t79.5 12.5t58.5 22t30.5 34t11.5 51.5q0 46 -33.5 73t-97.5 27q-152 0 -186 -137h-306q30 169 158 264.5t350 95.5q209 0 318 -84q146 -107 100 -346l-94 -483q-23 -113 6 -150v-14h-315q-17 35 -17 115h-4q-121 -142 -287 -142zM788 1171
q-49 0 -92.5 18t-77 36t-57.5 18q-25 0 -45 -19.5t-27 -54.5h-170q23 134 89.5 205.5t156.5 71.5q47 0 89.5 -19t75.5 -38t56 -19q54 0 74 72h168q-21 -125 -82 -198t-158 -73z" />
    <glyph glyph-name="adieresis" unicode="&#xe4;" horiz-adv-x="1081" 
d="M440 186q85 0 142.5 46.5t76.5 132.5l25 129q-61 -30 -178 -48q-6 -1 -28.5 -4.5t-31.5 -5t-29 -6t-30 -9t-25.5 -12t-23.5 -17t-17 -22t-12.5 -29t-3.5 -36.5q0 -59 36.5 -89t98.5 -30zM317 -27q-142 0 -235.5 80t-93.5 223q0 75 22.5 133t60.5 95.5t96 63.5t122 38.5
t145 18.5q71 5 111 9t79.5 12.5t58.5 22t30.5 34t11.5 51.5q0 46 -33.5 73t-97.5 27q-152 0 -186 -137h-306q30 169 158 264.5t350 95.5q209 0 318 -84q146 -107 100 -346l-94 -483q-23 -113 6 -150v-14h-315q-17 35 -17 115h-4q-121 -142 -287 -142zM901 1468
q71 0 118.5 -45.5t47.5 -115.5q0 -69 -47.5 -114.5t-118.5 -45.5t-118.5 45.5t-47.5 114.5q0 70 47.5 115.5t118.5 45.5zM446 1468q71 0 118.5 -45.5t47.5 -115.5q0 -69 -47.5 -114.5t-118.5 -45.5t-118 45.5t-47 114.5q0 70 47 115.5t118 45.5z" />
    <glyph glyph-name="aring" unicode="&#xe5;" horiz-adv-x="1081" 
d="M440 186q85 0 142.5 46.5t76.5 132.5l25 129q-61 -30 -178 -48q-6 -1 -28.5 -4.5t-31.5 -5t-29 -6t-30 -9t-25.5 -12t-23.5 -17t-17 -22t-12.5 -29t-3.5 -36.5q0 -59 36.5 -89t98.5 -30zM317 -27q-142 0 -235.5 80t-93.5 223q0 75 22.5 133t60.5 95.5t96 63.5t122 38.5
t145 18.5q71 5 111 9t79.5 12.5t58.5 22t30.5 34t11.5 51.5q0 46 -33.5 73t-97.5 27q-152 0 -186 -137h-306q30 169 158 264.5t350 95.5q209 0 318 -84q146 -107 100 -346l-94 -483q-23 -113 6 -150v-14h-315q-17 35 -17 115h-4q-121 -142 -287 -142zM662 1143
q-87 0 -148 58t-61 142q0 85 61.5 144t147.5 59q85 0 146.5 -59.5t61.5 -143.5t-61 -142t-147 -58zM662 1257q36 0 59.5 25t23.5 61t-23.5 62.5t-59.5 26.5q-37 0 -62 -26.5t-25 -62.5t24.5 -61t62.5 -25z" />
    <glyph glyph-name="ae" unicode="&#xe6;" horiz-adv-x="1759" 
d="M1249 844q-84 0 -141.5 -54t-85.5 -153h399q3 91 -40 149t-132 58zM305 305q0 -59 36.5 -89t98.5 -30q86 0 144 47.5t78 139.5l22 119q-61 -30 -178 -48q-7 -1 -32 -5t-35.5 -6t-32.5 -7.5t-32.5 -11t-26.5 -16t-23 -23t-13 -30.5t-6 -40zM1513 70q-141 -99 -331 -99
q-285 0 -406 191q-133 -189 -403 -189q-179 0 -282 80.5t-103 227.5q0 74 22.5 130.5t60.5 93.5t96 62t122 37.5t145 18.5q169 11 230 35t61 96q0 46 -33.5 73t-97.5 27q-152 0 -186 -137h-306q30 169 158 264.5t350 95.5q238 0 328 -112q130 114 319 114q167 0 277 -69
q121 -78 167.5 -226t16.5 -346h-723q2 -109 45.5 -170t149.5 -61q133 0 180 106h320q-48 -153 -177 -243z" />
    <glyph glyph-name="ccedilla" unicode="&#xe7;" horiz-adv-x="1089" 
d="M385 -395q-139 0 -227 59l45 72q64 -31 137 -31q45 0 79 15t34 51q0 49 -68 49q-35 0 -72 -15l-28 50l125 122q-172 28 -277.5 142t-105.5 313q0 129 42 246t117.5 205.5t189 141t247.5 52.5q97 0 177 -23.5t142.5 -70.5t98.5 -125.5t40 -181.5h-315q-14 158 -152 158
q-65 0 -117 -38.5t-82 -100t-45.5 -131t-15.5 -138.5q0 -95 42.5 -153t135.5 -58q73 0 127 45.5t78 136.5h314q-39 -201 -181.5 -314.5t-343.5 -115.5h-6l-76 -63v-4q88 8 142.5 -24.5t54.5 -100.5q0 -57 -37.5 -96.5t-93.5 -56.5t-125 -17z" />
    <glyph glyph-name="egrave" unicode="&#xe8;" horiz-adv-x="1112" 
d="M602 844q-84 0 -143.5 -54.5t-87.5 -152.5h401q3 91 -39 149t-131 58zM864 70q-140 -98 -325 -101q-110 0 -203 31t-162 90t-108 152t-39 211q0 165 71.5 307.5t205.5 230.5t302 88t281 -69q121 -78 166.5 -226t15.5 -346h-725q2 -108 47 -169.5t150 -61.5q135 0 182 106
h319q-52 -159 -178 -243zM516 1171l-199 304h359l88 -304h-248z" />
    <glyph glyph-name="eacute" unicode="&#xe9;" horiz-adv-x="1112" 
d="M504 1171l155 304h379l-282 -304h-252zM602 844q-84 0 -143.5 -54.5t-87.5 -152.5h401q3 91 -39 149t-131 58zM864 70q-140 -98 -325 -101q-110 0 -203 31t-162 90t-108 152t-39 211q0 165 71.5 307.5t205.5 230.5t302 88t281 -69q121 -78 166.5 -226t15.5 -346h-725
q2 -108 47 -169.5t150 -61.5q135 0 182 106h319q-52 -159 -178 -243z" />
    <glyph glyph-name="ecircumflex" unicode="&#xea;" horiz-adv-x="1112" 
d="M254 1176l260 280h315l170 -280h-270l-70 135h-4l-112 -135h-289zM602 844q-84 0 -143.5 -54.5t-87.5 -152.5h401q3 91 -39 149t-131 58zM864 70q-140 -98 -325 -101q-110 0 -203 31t-162 90t-108 152t-39 211q0 165 71.5 307.5t205.5 230.5t302 88t281 -69
q121 -78 166.5 -226t15.5 -346h-725q2 -108 47 -169.5t150 -61.5q135 0 182 106h319q-52 -159 -178 -243z" />
    <glyph glyph-name="edieresis" unicode="&#xeb;" horiz-adv-x="1112" 
d="M872 1468q71 0 118.5 -45.5t47.5 -115.5q0 -69 -47.5 -114.5t-118.5 -45.5t-118 45.5t-47 114.5q0 70 47 115.5t118 45.5zM418 1468q71 0 118.5 -45.5t47.5 -115.5q0 -69 -47.5 -114.5t-118.5 -45.5t-118.5 45.5t-47.5 114.5q0 70 47.5 115.5t118.5 45.5zM602 844
q-84 0 -143.5 -54.5t-87.5 -152.5h401q3 91 -39 149t-131 58zM864 70q-140 -98 -325 -101q-110 0 -203 31t-162 90t-108 152t-39 211q0 165 71.5 307.5t205.5 230.5t302 88t281 -69q121 -78 166.5 -226t15.5 -346h-725q2 -108 47 -169.5t150 -61.5q135 0 182 106h319
q-52 -159 -178 -243z" />
    <glyph glyph-name="igrave" unicode="&#xec;" horiz-adv-x="485" 
d="M-25 0l203 1049h328l-203 -1049h-328zM256 1171l-199 304h359l88 -304h-248z" />
    <glyph glyph-name="iacute" unicode="&#xed;" horiz-adv-x="485" 
d="M227 1171l156 304h379l-283 -304h-252zM-25 0l203 1049h328l-203 -1049h-328z" />
    <glyph glyph-name="icircumflex" unicode="&#xee;" horiz-adv-x="485" 
d="M8 1176l238 280h309l145 -280h-260l-55 131h-4l-96 -131h-277zM-25 0l203 1049h328l-203 -1049h-328z" />
    <glyph glyph-name="idieresis" unicode="&#xef;" horiz-adv-x="485" 
d="M412 1307q0 70 47.5 115.5t118.5 45.5t118 -45.5t47 -115.5q0 -69 -47 -114.5t-118 -45.5t-118.5 45.5t-47.5 114.5zM33 1307q0 70 47.5 115.5t118.5 45.5t118.5 -45.5t47.5 -115.5q0 -69 -47.5 -114.5t-118.5 -45.5t-118.5 45.5t-47.5 114.5zM-25 0l203 1049h328
l-203 -1049h-328z" />
    <glyph glyph-name="eth" unicode="&#xf0;" horiz-adv-x="1167" 
d="M537 -33q-229 0 -369.5 129t-140.5 359q1 164 65.5 300.5t186 219t276.5 82.5q140 0 227 -96h4q-45 107 -147 227l-283 -88l-32 112l223 70q-99 96 -219 182h391q72 -50 119 -92l213 68l30 -113l-153 -49q209 -248 209 -588q0 -156 -39.5 -288t-114 -229t-189 -151.5
t-257.5 -54.5zM354 434q0 -102 44 -167.5t139 -65.5q68 0 121 39t83.5 101.5t46 132.5t15.5 140q0 96 -47 159t-142 63q-54 0 -99 -25t-74 -66t-49.5 -94.5t-29 -108t-8.5 -108.5z" />
    <glyph glyph-name="ntilde" unicode="&#xf1;" horiz-adv-x="1138" 
d="M-25 0l203 1049h318l-33 -166h6q136 196 338 196q161 0 241 -117.5t42 -316.5l-125 -645h-328l121 621q18 89 -12.5 138.5t-110.5 49.5q-82 0 -141 -66t-80 -168l-111 -575h-328zM819 1171q-49 0 -92.5 18t-77 36t-57.5 18q-25 0 -45 -19.5t-27 -54.5h-170
q23 134 89.5 205.5t156.5 71.5q47 0 89.5 -19t75.5 -38t56 -19q54 0 74 72h168q-21 -125 -82 -198t-158 -73z" />
    <glyph glyph-name="ograve" unicode="&#xf2;" horiz-adv-x="1161" 
d="M535 -33q-102 0 -192 30.5t-160.5 88.5t-112 151.5t-41.5 211.5q0 172 73 314.5t211 228t316 85.5q102 0 192 -30t160.5 -87.5t111.5 -150t42 -209.5q0 -175 -72.5 -318t-210.5 -229t-317 -86zM541 201q68 0 121 39t82.5 101.5t44.5 131.5t14 137q0 64 -17.5 115
t-60.5 85t-107 34q-67 0 -119.5 -40t-82 -103t-44.5 -131.5t-14 -135.5q0 -103 44 -168t139 -65zM543 1171l-199 304h358l89 -304h-248z" />
    <glyph glyph-name="oacute" unicode="&#xf3;" horiz-adv-x="1161" 
d="M530 1171l156 304h379l-283 -304h-252zM535 -33q-102 0 -192 30.5t-160.5 88.5t-112 151.5t-41.5 211.5q0 172 73 314.5t211 228t316 85.5q102 0 192 -30t160.5 -87.5t111.5 -150t42 -209.5q0 -175 -72.5 -318t-210.5 -229t-317 -86zM541 201q68 0 121 39t82.5 101.5
t44.5 131.5t14 137q0 64 -17.5 115t-60.5 85t-107 34q-67 0 -119.5 -40t-82 -103t-44.5 -131.5t-14 -135.5q0 -103 44 -168t139 -65z" />
    <glyph glyph-name="ocircumflex" unicode="&#xf4;" horiz-adv-x="1161" 
d="M283 1176l260 280h315l170 -280h-270l-70 135h-4l-113 -135h-288zM535 -33q-102 0 -192 30.5t-160.5 88.5t-112 151.5t-41.5 211.5q0 172 73 314.5t211 228t316 85.5q102 0 192 -30t160.5 -87.5t111.5 -150t42 -209.5q0 -175 -72.5 -318t-210.5 -229t-317 -86zM541 201
q68 0 121 39t82.5 101.5t44.5 131.5t14 137q0 64 -17.5 115t-60.5 85t-107 34q-67 0 -119.5 -40t-82 -103t-44.5 -131.5t-14 -135.5q0 -103 44 -168t139 -65z" />
    <glyph glyph-name="otilde" unicode="&#xf5;" horiz-adv-x="1161" 
d="M535 -33q-102 0 -192 30.5t-160.5 88.5t-112 151.5t-41.5 211.5q0 172 73 314.5t211 228t316 85.5q102 0 192 -30t160.5 -87.5t111.5 -150t42 -209.5q0 -175 -72.5 -318t-210.5 -229t-317 -86zM541 201q68 0 121 39t82.5 101.5t44.5 131.5t14 137q0 64 -17.5 115
t-60.5 85t-107 34q-67 0 -119.5 -40t-82 -103t-44.5 -131.5t-14 -135.5q0 -103 44 -168t139 -65zM784 1171q-49 0 -92.5 18t-77 36t-57.5 18q-25 0 -45 -19.5t-27 -54.5h-170q23 134 89.5 205.5t156.5 71.5q47 0 89.5 -19t75.5 -38t56 -19q54 0 74 72h168q-21 -125 -82 -198
t-158 -73z" />
    <glyph glyph-name="odieresis" unicode="&#xf6;" horiz-adv-x="1161" 
d="M905 1468q71 0 118.5 -45.5t47.5 -115.5q0 -69 -47.5 -114.5t-118.5 -45.5t-118.5 45.5t-47.5 114.5q0 70 47.5 115.5t118.5 45.5zM451 1468q71 0 118 -45.5t47 -115.5q0 -69 -47 -114.5t-118 -45.5t-118.5 45.5t-47.5 114.5q0 70 47.5 115.5t118.5 45.5zM535 -33
q-102 0 -192 30.5t-160.5 88.5t-112 151.5t-41.5 211.5q0 172 73 314.5t211 228t316 85.5q102 0 192 -30t160.5 -87.5t111.5 -150t42 -209.5q0 -175 -72.5 -318t-210.5 -229t-317 -86zM541 201q68 0 121 39t82.5 101.5t44.5 131.5t14 137q0 64 -17.5 115t-60.5 85t-107 34
q-67 0 -119.5 -40t-82 -103t-44.5 -131.5t-14 -135.5q0 -103 44 -168t139 -65z" />
    <glyph glyph-name="divide" unicode="&#xf7;" horiz-adv-x="1140" 
d="M662 1276q84 0 138 -52.5t54 -133.5q0 -82 -54.5 -135.5t-137.5 -53.5t-137 53.5t-54 135.5t54 134t137 52zM72 547l49 256h1005l-51 -256h-1003zM524 449q84 0 138.5 -53t54.5 -134q0 -82 -55 -135t-138 -53t-136.5 53t-53.5 135t53.5 134.5t136.5 52.5z" />
    <glyph glyph-name="oslash" unicode="&#xf8;" horiz-adv-x="1161" 
d="M350 426q0 -19 4 -55l396 420q-50 53 -134 53q-67 0 -120.5 -40t-84.5 -103.5t-46.5 -134.5t-14.5 -140zM539 201q68 0 122 39.5t84.5 102t46.5 133t15 140.5q0 22 -4 54l-395 -420q49 -49 131 -49zM532 -33q-176 0 -309 86l-119 -127l-88 86l115 123q-104 120 -104 314
q0 172 73.5 314.5t212 228t316.5 85.5q179 0 309 -86l115 121l88 -84l-111 -119q103 -124 103 -309q0 -174 -73 -317.5t-211.5 -229.5t-316.5 -86z" />
    <glyph glyph-name="ugrave" unicode="&#xf9;" horiz-adv-x="1128" 
d="M334 -31q-169 0 -250.5 113t-42.5 311l125 656h328l-119 -611q-38 -198 114 -198q84 0 142 60.5t80 168.5l110 580h328l-203 -1049h-313l31 158h-7q-128 -189 -323 -189zM559 1171l-199 304h359l88 -304h-248z" />
    <glyph glyph-name="uacute" unicode="&#xfa;" horiz-adv-x="1128" 
d="M545 1171l155 304h379l-282 -304h-252zM334 -31q-169 0 -250.5 113t-42.5 311l125 656h328l-119 -611q-38 -198 114 -198q84 0 142 60.5t80 168.5l110 580h328l-203 -1049h-313l31 158h-7q-128 -189 -323 -189z" />
    <glyph glyph-name="ucircumflex" unicode="&#xfb;" horiz-adv-x="1128" 
d="M305 1176l260 280h316l170 -280h-271l-69 135h-4l-113 -135h-289zM334 -31q-169 0 -250.5 113t-42.5 311l125 656h328l-119 -611q-38 -198 114 -198q84 0 142 60.5t80 168.5l110 580h328l-203 -1049h-313l31 158h-7q-128 -189 -323 -189z" />
    <glyph glyph-name="udieresis" unicode="&#xfc;" horiz-adv-x="1128" 
d="M922 1468q71 0 118 -45.5t47 -115.5q0 -69 -47 -114.5t-118 -45.5t-118.5 45.5t-47.5 114.5q0 70 47.5 115.5t118.5 45.5zM467 1468q71 0 118.5 -45.5t47.5 -115.5q0 -69 -47.5 -114.5t-118.5 -45.5t-118.5 45.5t-47.5 114.5q0 70 47.5 115.5t118.5 45.5zM334 -31
q-169 0 -250.5 113t-42.5 311l125 656h328l-119 -611q-38 -198 114 -198q84 0 142 60.5t80 168.5l110 580h328l-203 -1049h-313l31 158h-7q-128 -189 -323 -189z" />
    <glyph glyph-name="yacute" unicode="&#xfd;" horiz-adv-x="1067" 
d="M-31 -346l51 258h111q154 0 154 149q0 49 -27 181l-160 807h342l58 -443q6 -45 12 -108.5t9 -104.5l3 -41h4q54 144 103 248l207 449h329l-553 -1102q-78 -155 -174.5 -224t-247.5 -69h-221zM518 1171l156 304h379l-283 -304h-252z" />
    <glyph glyph-name="thorn" unicode="&#xfe;" horiz-adv-x="1183" 
d="M573 223q65 0 115 34.5t78 91.5t41.5 121.5t13.5 133.5q0 59 -15.5 105.5t-56 79t-102.5 32.5q-80 0 -142 -60t-91 -144.5t-29 -172.5q0 -94 46.5 -157.5t141.5 -63.5zM-92 -346l350 1810h328l-103 -528h6q129 143 304 143q170 0 267 -127.5t97 -328.5q0 -95 -19.5 -187
t-61 -177.5t-101.5 -150t-147 -103t-191 -38.5q-102 0 -182.5 43t-120.5 123h-4l-94 -479h-328z" />
    <glyph glyph-name="ydieresis" unicode="&#xff;" horiz-adv-x="1067" 
d="M-31 -346l51 258h111q154 0 154 149q0 49 -27 181l-160 807h342l58 -443q6 -45 12 -108.5t9 -104.5l3 -41h4q54 144 103 248l207 449h329l-553 -1102q-78 -155 -174.5 -224t-247.5 -69h-221zM889 1468q71 0 118.5 -45.5t47.5 -115.5q0 -69 -47.5 -114.5t-118.5 -45.5
t-118.5 45.5t-47.5 114.5q0 70 47.5 115.5t118.5 45.5zM434 1468q71 0 118.5 -45.5t47.5 -115.5q0 -69 -47.5 -114.5t-118.5 -45.5t-118.5 45.5t-47.5 114.5q0 70 47.5 115.5t118.5 45.5z" />
    <glyph glyph-name="Amacron" unicode="&#x100;" horiz-adv-x="1384" 
d="M684 879l-174 -355h336l-45 353l-21 210h-4q-57 -134 -92 -208zM918 0l-37 266h-496l-129 -266h-362l774 1464h364l256 -1464h-370zM567 1561l41 204h578l-41 -204h-578z" />
    <glyph glyph-name="amacron" unicode="&#x101;" horiz-adv-x="1081" 
d="M440 186q85 0 142.5 46.5t76.5 132.5l25 129q-61 -30 -178 -48q-6 -1 -28.5 -4.5t-31.5 -5t-29 -6t-30 -9t-25.5 -12t-23.5 -17t-17 -22t-12.5 -29t-3.5 -36.5q0 -59 36.5 -89t98.5 -30zM317 -27q-142 0 -235.5 80t-93.5 223q0 75 22.5 133t60.5 95.5t96 63.5t122 38.5
t145 18.5q71 5 111 9t79.5 12.5t58.5 22t30.5 34t11.5 51.5q0 46 -33.5 73t-97.5 27q-152 0 -186 -137h-306q30 169 158 264.5t350 95.5q209 0 318 -84q146 -107 100 -346l-94 -483q-23 -113 6 -150v-14h-315q-17 35 -17 115h-4q-121 -142 -287 -142zM369 1202l41 205h577
l-41 -205h-577z" />
    <glyph glyph-name="Abreve" unicode="&#x102;" horiz-adv-x="1384" 
d="M684 879l-174 -355h336l-45 353l-21 210h-4q-57 -134 -92 -208zM918 0l-37 266h-496l-129 -266h-362l774 1464h364l256 -1464h-370zM870 1524q-146 0 -229.5 80t-81.5 217h184q3 -45 36 -71t95 -26q59 0 99 28t51 69h186q-22 -137 -114 -217t-226 -80z" />
    <glyph glyph-name="abreve" unicode="&#x103;" horiz-adv-x="1081" 
d="M440 186q85 0 142.5 46.5t76.5 132.5l25 129q-61 -30 -178 -48q-6 -1 -28.5 -4.5t-31.5 -5t-29 -6t-30 -9t-25.5 -12t-23.5 -17t-17 -22t-12.5 -29t-3.5 -36.5q0 -59 36.5 -89t98.5 -30zM317 -27q-142 0 -235.5 80t-93.5 223q0 75 22.5 133t60.5 95.5t96 63.5t122 38.5
t145 18.5q71 5 111 9t79.5 12.5t58.5 22t30.5 34t11.5 51.5q0 46 -33.5 73t-97.5 27q-152 0 -186 -137h-306q30 169 158 264.5t350 95.5q209 0 318 -84q146 -107 100 -346l-94 -483q-23 -113 6 -150v-14h-315q-17 35 -17 115h-4q-121 -142 -287 -142zM666 1159
q-146 0 -230.5 80.5t-81.5 216.5h185q3 -45 36 -70.5t95 -25.5q59 0 98.5 27.5t50.5 68.5h185q-20 -137 -112 -217t-226 -80z" />
    <glyph glyph-name="Aogonek" unicode="&#x104;" horiz-adv-x="1384" 
d="M1106 -362q-107 0 -169.5 43t-62.5 120q0 120 158 199h-114l-37 266h-498l-127 -266h-362l774 1464h364l254 -1454q-53 -30 -94 -69.5t-41 -75.5q0 -45 53 -45q23 0 47 8h2l-32 -172q-49 -18 -115 -18zM510 524h336l-45 353l-21 210h-4q-57 -134 -92 -208z" />
    <glyph glyph-name="aogonek" unicode="&#x105;" horiz-adv-x="1081" 
d="M768 -362q-107 0 -169 43t-62 120q0 68 50 115t132 84h-94q-17 35 -17 115h-4q-121 -142 -287 -142q-142 0 -235.5 80t-93.5 223q0 75 22.5 133t60.5 95.5t96 63.5t122 38.5t145 18.5q71 5 111 9t79.5 12.5t58.5 22t30.5 34t11.5 51.5q0 46 -33.5 73t-97.5 27
q-152 0 -186 -137h-306q30 169 158 264.5t350 95.5q225 0 332 -96q129 -107 86 -334l-94 -483q-23 -113 6 -150v-14q-46 -23 -86.5 -61t-40.5 -74q0 -45 53 -45q23 0 47 8h2l-32 -172q-49 -18 -115 -18zM440 186q85 0 142.5 46.5t76.5 132.5l25 129q-61 -30 -178 -48
q-6 -1 -28.5 -4.5t-31.5 -5t-29 -6t-30 -9t-25.5 -12t-23.5 -17t-17 -22t-12.5 -29t-3.5 -36.5q0 -59 36.5 -89t98.5 -30z" />
    <glyph glyph-name="Cacute" unicode="&#x106;" horiz-adv-x="1413" 
d="M709 -33q-297 0 -469 170.5t-172 466.5q0 173 55.5 333t154.5 283.5t249.5 198t328.5 74.5q252 0 399 -117q174 -134 189 -415h-357q-13 233 -245 233q-83 0 -152.5 -34.5t-116 -92t-79.5 -133.5t-47.5 -157t-14.5 -165q0 -72 15.5 -132.5t48 -110.5t90 -78.5
t135.5 -28.5q116 0 196.5 64t112.5 182h359q-59 -268 -244 -408q-178 -133 -436 -133zM750 1536l127 266h370l-248 -266h-249z" />
    <glyph glyph-name="cacute" unicode="&#x107;" horiz-adv-x="1089" 
d="M528 1171l156 304h379l-283 -304h-252zM526 -33q-103 0 -191.5 27t-158 81.5t-109.5 146t-40 210.5q0 129 42 246t117.5 205.5t189 141t247.5 52.5q97 0 177 -23.5t142.5 -70.5t98.5 -125.5t40 -181.5h-315q-14 158 -152 158q-65 0 -117 -38.5t-82 -100t-45.5 -131
t-15.5 -138.5q0 -95 42.5 -153t135.5 -58q73 0 127 45.5t78 136.5h314q-39 -201 -181.5 -314.5t-343.5 -115.5z" />
    <glyph glyph-name="Ccircumflex" unicode="&#x108;" horiz-adv-x="1413" 
d="M709 -33q-297 0 -469 170.5t-172 466.5q0 173 55.5 333t154.5 283.5t249.5 198t328.5 74.5q252 0 399 -117q174 -134 189 -415h-357q-13 233 -245 233q-83 0 -152.5 -34.5t-116 -92t-79.5 -133.5t-47.5 -157t-14.5 -165q0 -72 15.5 -132.5t48 -110.5t90 -78.5
t135.5 -28.5q116 0 196.5 64t112.5 182h359q-59 -268 -244 -408q-178 -133 -436 -133zM504 1536l256 256h315l172 -256h-268l-74 113h-4l-106 -113h-291z" />
    <glyph glyph-name="ccircumflex" unicode="&#x109;" horiz-adv-x="1089" 
d="M274 1176l261 280h315l170 -280h-270l-70 135h-4l-113 -135h-289zM526 -33q-103 0 -191.5 27t-158 81.5t-109.5 146t-40 210.5q0 129 42 246t117.5 205.5t189 141t247.5 52.5q97 0 177 -23.5t142.5 -70.5t98.5 -125.5t40 -181.5h-315q-14 158 -152 158q-65 0 -117 -38.5
t-82 -100t-45.5 -131t-15.5 -138.5q0 -95 42.5 -153t135.5 -58q73 0 127 45.5t78 136.5h314q-39 -201 -181.5 -314.5t-343.5 -115.5z" />
    <glyph glyph-name="Cdotaccent" unicode="&#x10a;" horiz-adv-x="1413" 
d="M899 1888q77 0 128.5 -49t51.5 -125t-51.5 -125t-128.5 -49t-128.5 49t-51.5 125t51.5 125t128.5 49zM709 -33q-297 0 -469 170.5t-172 466.5q0 173 55.5 333t154.5 283.5t249.5 198t328.5 74.5q252 0 399 -117q174 -134 189 -415h-357q-13 233 -245 233
q-83 0 -152.5 -34.5t-116 -92t-79.5 -133.5t-47.5 -157t-14.5 -165q0 -72 15.5 -132.5t48 -110.5t90 -78.5t135.5 -28.5q116 0 196.5 64t112.5 182h359q-59 -268 -244 -408q-178 -133 -436 -133z" />
    <glyph glyph-name="cdotaccent" unicode="&#x10b;" horiz-adv-x="1089" 
d="M526 -33q-103 0 -191.5 27t-158 81.5t-109.5 146t-40 210.5q0 129 42 246t117.5 205.5t189 141t247.5 52.5q97 0 177 -23.5t142.5 -70.5t98.5 -125.5t40 -181.5h-315q-14 158 -152 158q-65 0 -117 -38.5t-82 -100t-45.5 -131t-15.5 -138.5q0 -95 42.5 -153t135.5 -58
q73 0 127 45.5t78 136.5h314q-39 -201 -181.5 -314.5t-343.5 -115.5zM659 1495q77 0 129 -49t52 -125t-52 -125t-129 -49t-128.5 49t-51.5 125t51.5 125t128.5 49z" />
    <glyph glyph-name="Ccaron" unicode="&#x10c;" horiz-adv-x="1413" 
d="M709 -33q-297 0 -469 170.5t-172 466.5q0 173 55.5 333t154.5 283.5t249.5 198t328.5 74.5q252 0 399 -117q174 -134 189 -415h-357q-13 233 -245 233q-83 0 -152.5 -34.5t-116 -92t-79.5 -133.5t-47.5 -157t-14.5 -165q0 -72 15.5 -132.5t48 -110.5t90 -78.5
t135.5 -28.5q116 0 196.5 64t112.5 182h359q-59 -268 -244 -408q-178 -133 -436 -133zM721 1536l-172 256h268l74 -113h4l109 113h290l-256 -256h-317z" />
    <glyph glyph-name="ccaron" unicode="&#x10d;" horiz-adv-x="1089" 
d="M492 1169l-170 283h270l70 -135h4l112 135h289l-260 -283h-315zM526 -33q-103 0 -191.5 27t-158 81.5t-109.5 146t-40 210.5q0 129 42 246t117.5 205.5t189 141t247.5 52.5q97 0 177 -23.5t142.5 -70.5t98.5 -125.5t40 -181.5h-315q-14 158 -152 158q-65 0 -117 -38.5
t-82 -100t-45.5 -131t-15.5 -138.5q0 -95 42.5 -153t135.5 -58q73 0 127 45.5t78 136.5h314q-39 -201 -181.5 -314.5t-343.5 -115.5z" />
    <glyph glyph-name="Dcaron" unicode="&#x10e;" horiz-adv-x="1411" 
d="M657 1536l-172 256h269l73 -113h4l109 113h291l-256 -256h-318zM-4 0l283 1464h524q283 0 450.5 -163.5t167.5 -460.5q0 -387 -213 -617q-101 -107 -248.5 -165t-324.5 -58h-639zM412 303h223q200 0 311 140t111 378q0 168 -78.5 255t-230.5 87h-170z" />
    <glyph glyph-name="dcaron" unicode="&#x10f;" horiz-adv-x="1191" 
d="M1296 1116l103 348h241l-161 -348h-183zM541 225q62 0 113.5 34.5t82.5 89t47.5 118.5t16.5 127q0 102 -46 168.5t-139 66.5q-63 0 -113 -35t-79 -92t-44 -121.5t-15 -129.5q0 -100 41.5 -163t134.5 -63zM418 -33q-179 0 -285.5 125t-105.5 334q0 98 22 192.5t67 177.5
t107 146.5t148.5 100t185.5 36.5q204 0 295 -166h6l107 551h327l-282 -1464h-314l23 121h-4q-116 -154 -297 -154z" />
    <glyph glyph-name="Dcroat" unicode="&#x110;" horiz-adv-x="1433" 
d="M18 0l119 608h-110l51 275h110l113 581h524q284 0 451.5 -163.5t167.5 -460.5q0 -387 -213 -617q-101 -107 -249 -165t-325 -58h-639zM434 303h223q200 0 311 140t111 378q0 168 -78.5 255t-230.5 87h-170l-53 -280h309l-51 -275h-311z" />
    <glyph glyph-name="dcroat" unicode="&#x111;" horiz-adv-x="1191" 
d="M367 451q0 -100 41.5 -163t134.5 -63q62 0 113.5 34.5t82.5 89t47.5 118.5t16.5 127q0 102 -46 168.5t-139 66.5q-63 0 -113 -35t-79 -92t-44 -121.5t-15 -129.5zM717 121q-116 -154 -297 -154q-179 0 -285.5 125t-105.5 334q0 98 22 192.5t67 177.5t107 146.5t148.5 100
t185.5 36.5q204 0 295 -166h6l47 248h-239l30 166h242l27 137h327l-26 -137h104l-31 -166h-106l-223 -1161h-314l23 121h-4z" />
    <glyph glyph-name="Emacron" unicode="&#x112;" horiz-adv-x="1245" 
d="M555 1561l41 204h578l-41 -204h-578zM-4 0l283 1464h1062l-57 -295h-704l-52 -268h607l-54 -278h-608l-61 -318h729l-60 -305h-1085z" />
    <glyph glyph-name="emacron" unicode="&#x113;" horiz-adv-x="1112" 
d="M602 844q-84 0 -143.5 -54.5t-87.5 -152.5h401q3 91 -39 149t-131 58zM864 70q-140 -98 -325 -101q-110 0 -203 31t-162 90t-108 152t-39 211q0 165 71.5 307.5t205.5 230.5t302 88t281 -69q121 -78 166.5 -226t15.5 -346h-725q2 -108 47 -169.5t150 -61.5q135 0 182 106
h319q-52 -159 -178 -243zM342 1202l41 205h578l-41 -205h-578z" />
    <glyph glyph-name="Ebreve" unicode="&#x114;" horiz-adv-x="1245" 
d="M856 1524q-146 0 -229.5 80t-81.5 217h184q3 -45 36 -71t95 -26q59 0 99 28t51 69h186q-22 -137 -114 -217t-226 -80zM-4 0l283 1464h1062l-57 -295h-704l-52 -268h607l-54 -278h-608l-61 -318h729l-60 -305h-1085z" />
    <glyph glyph-name="ebreve" unicode="&#x115;" horiz-adv-x="1112" 
d="M602 844q-84 0 -143.5 -54.5t-87.5 -152.5h401q3 91 -39 149t-131 58zM864 70q-140 -98 -325 -101q-110 0 -203 31t-162 90t-108 152t-39 211q0 165 71.5 307.5t205.5 230.5t302 88t281 -69q121 -78 166.5 -226t15.5 -346h-725q2 -108 47 -169.5t150 -61.5q135 0 182 106
h319q-52 -159 -178 -243zM645 1159q-146 0 -230 80t-81 217h184q3 -45 36 -70.5t95 -25.5q59 0 99 27.5t51 68.5h184q-20 -137 -112 -217t-226 -80z" />
    <glyph glyph-name="Edotaccent" unicode="&#x116;" horiz-adv-x="1245" 
d="M862 1888q77 0 128.5 -49t51.5 -125t-51.5 -125t-128.5 -49t-128.5 49t-51.5 125t51.5 125t128.5 49zM-4 0l283 1464h1062l-57 -295h-704l-52 -268h607l-54 -278h-608l-61 -318h729l-60 -305h-1085z" />
    <glyph glyph-name="edotaccent" unicode="&#x117;" horiz-adv-x="1112" 
d="M602 844q-84 0 -143.5 -54.5t-87.5 -152.5h401q3 91 -39 149t-131 58zM864 70q-140 -98 -325 -101q-110 0 -203 31t-162 90t-108 152t-39 211q0 165 71.5 307.5t205.5 230.5t302 88t281 -69q121 -78 166.5 -226t15.5 -346h-725q2 -108 47 -169.5t150 -61.5q135 0 182 106
h319q-52 -159 -178 -243zM659 1495q77 0 129 -49t52 -125t-52 -125t-129 -49t-128.5 49t-51.5 125t51.5 125t128.5 49z" />
    <glyph glyph-name="Eogonek" unicode="&#x118;" horiz-adv-x="1245" 
d="M831 -362q-107 0 -169 43t-62 120q0 119 156 199h-760l283 1464h1062l-57 -295h-704l-52 -268h607l-54 -278h-608l-61 -318h729l-60 -305h-88q-116 -80 -116 -135q0 -45 53 -45q23 0 47 8h2l-33 -172q-49 -18 -115 -18z" />
    <glyph glyph-name="eogonek" unicode="&#x119;" horiz-adv-x="1112" 
d="M602 844q-84 0 -143.5 -54.5t-87.5 -152.5h401q3 91 -39 149t-131 58zM723 -344q-49 -18 -115 -18q-107 0 -169 43t-62 120q0 57 33.5 97t93.5 73q-217 8 -347 131.5t-130 350.5q0 165 71.5 307.5t205.5 230.5t302 88t281 -69q121 -78 166.5 -226t15.5 -346h-725
q2 -108 47 -169.5t150 -61.5q135 0 182 106h319q-55 -163 -194 -258q-15 -10 -50.5 -34.5t-54.5 -39t-43.5 -35.5t-35.5 -41t-11 -40q0 -21 14 -33t40 -12q23 0 47 8h2z" />
    <glyph glyph-name="Ecaron" unicode="&#x11a;" horiz-adv-x="1245" 
d="M680 1536l-172 256h268l74 -113h4l109 113h290l-256 -256h-317zM-4 0l283 1464h1062l-57 -295h-704l-52 -268h607l-54 -278h-608l-61 -318h729l-60 -305h-1085z" />
    <glyph glyph-name="ecaron" unicode="&#x11b;" horiz-adv-x="1112" 
d="M469 1169l-170 283h270l70 -135h4l113 135h288l-260 -283h-315zM602 844q-84 0 -143.5 -54.5t-87.5 -152.5h401q3 91 -39 149t-131 58zM864 70q-140 -98 -325 -101q-110 0 -203 31t-162 90t-108 152t-39 211q0 165 71.5 307.5t205.5 230.5t302 88t281 -69
q121 -78 166.5 -226t15.5 -346h-725q2 -108 47 -169.5t150 -61.5q135 0 182 106h319q-52 -159 -178 -243z" />
    <glyph glyph-name="Gcircumflex" unicode="&#x11c;" horiz-adv-x="1474" 
d="M655 -33q-294 0 -456 201q-136 161 -136 432q0 136 35.5 266.5t106 243.5t166.5 199t226 135t277 49q95 -1 179.5 -19.5t158 -58t127.5 -98t86.5 -143.5t36.5 -189h-350q-11 99 -77.5 155t-176.5 56q-103 0 -186.5 -50.5t-135 -134t-79 -187.5t-27.5 -216
q0 -166 75.5 -258t233.5 -92q132 0 219.5 70.5t114.5 193.5h-268l51 264h600l-151 -786h-250l10 164h-4q-67 -92 -173.5 -144.5t-232.5 -52.5zM508 1536l256 256h315l172 -256h-268l-74 113h-4l-106 -113h-291z" />
    <glyph glyph-name="gcircumflex" unicode="&#x11d;" horiz-adv-x="1150" 
d="M305 1176l260 280h316l170 -280h-271l-69 135h-4l-113 -135h-289zM528 301q112 0 180 97t68 223q-2 92 -47 151t-131 59q-76 0 -132.5 -47.5t-84 -120t-27.5 -155.5q0 -91 44 -149t130 -58zM449 -362q-87 0 -165 19t-144 58t-109.5 105.5t-53.5 154.5h324
q21 -104 156 -104q164 0 202 195l21 106h-6q-53 -55 -113.5 -84.5t-140.5 -30.5q-170 0 -279.5 118t-109.5 304q0 112 35 219t98 192t160 137t211 52q210 0 296 -159h5l24 129h314l-191 -986q-43 -216 -180 -323q-127 -102 -354 -102z" />
    <glyph glyph-name="Gbreve" unicode="&#x11e;" horiz-adv-x="1474" 
d="M905 1524q-146 0 -229.5 80t-81.5 217h184q3 -45 36 -71t95 -26q59 0 99 28t51 69h186q-22 -137 -114 -217t-226 -80zM655 -33q-294 0 -456 201q-136 161 -136 432q0 136 35.5 266.5t106 243.5t166.5 199t226 135t277 49q95 -1 179.5 -19.5t158 -58t127.5 -98
t86.5 -143.5t36.5 -189h-350q-11 99 -77.5 155t-176.5 56q-103 0 -186.5 -50.5t-135 -134t-79 -187.5t-27.5 -216q0 -166 75.5 -258t233.5 -92q132 0 219.5 70.5t114.5 193.5h-268l51 264h600l-151 -786h-250l10 164h-4q-67 -92 -173.5 -144.5t-232.5 -52.5z" />
    <glyph glyph-name="gbreve" unicode="&#x11f;" horiz-adv-x="1150" 
d="M528 301q112 0 180 97t68 223q-2 92 -47 151t-131 59q-76 0 -132.5 -47.5t-84 -120t-27.5 -155.5q0 -91 44 -149t130 -58zM449 -362q-87 0 -165 19t-144 58t-109.5 105.5t-53.5 154.5h324q21 -104 156 -104q164 0 202 195l21 106h-6q-53 -55 -113.5 -84.5t-140.5 -30.5
q-170 0 -279.5 118t-109.5 304q0 112 35 219t98 192t160 137t211 52q210 0 296 -159h5l24 129h314l-191 -986q-43 -216 -180 -323q-127 -102 -354 -102zM688 1159q-146 0 -230 80t-81 217h184q3 -45 36 -70.5t95 -25.5q59 0 99 27.5t51 68.5h184q-20 -137 -112 -217
t-226 -80z" />
    <glyph glyph-name="Gdotaccent" unicode="&#x120;" horiz-adv-x="1474" 
d="M899 1888q77 0 128.5 -49t51.5 -125t-51.5 -125t-128.5 -49t-128.5 49t-51.5 125t51.5 125t128.5 49zM655 -33q-294 0 -456 201q-136 161 -136 432q0 136 35.5 266.5t106 243.5t166.5 199t226 135t277 49q95 -1 179.5 -19.5t158 -58t127.5 -98t86.5 -143.5t36.5 -189
h-350q-11 99 -77.5 155t-176.5 56q-103 0 -186.5 -50.5t-135 -134t-79 -187.5t-27.5 -216q0 -166 75.5 -258t233.5 -92q132 0 219.5 70.5t114.5 193.5h-268l51 264h600l-151 -786h-250l10 164h-4q-67 -92 -173.5 -144.5t-232.5 -52.5z" />
    <glyph glyph-name="gdotaccent" unicode="&#x121;" horiz-adv-x="1150" 
d="M528 301q112 0 180 97t68 223q-2 92 -47 151t-131 59q-76 0 -132.5 -47.5t-84 -120t-27.5 -155.5q0 -91 44 -149t130 -58zM449 -362q-87 0 -165 19t-144 58t-109.5 105.5t-53.5 154.5h324q21 -104 156 -104q164 0 202 195l21 106h-6q-53 -55 -113.5 -84.5t-140.5 -30.5
q-170 0 -279.5 118t-109.5 304q0 112 35 219t98 192t160 137t211 52q210 0 296 -159h5l24 129h314l-191 -986q-43 -216 -180 -323q-127 -102 -354 -102zM690 1495q77 0 128.5 -49t51.5 -125t-51.5 -125t-128.5 -49t-128.5 49t-51.5 125t51.5 125t128.5 49z" />
    <glyph glyph-name="uni0122" unicode="&#x122;" horiz-adv-x="1474" 
d="M449 -539l22 105q124 21 147 98q-65 4 -99 37t-34 88q0 54 41.5 91.5t106.5 37.5q70 0 111.5 -50t41.5 -132q0 -114 -92 -191t-245 -84zM655 -33q-294 0 -456 201q-136 161 -136 432q0 136 35.5 266.5t106 243.5t166.5 199t226 135t277 49q95 -1 179.5 -19.5t158 -58
t127.5 -98t86.5 -143.5t36.5 -189h-350q-11 99 -77.5 155t-176.5 56q-103 0 -186.5 -50.5t-135 -134t-79 -187.5t-27.5 -216q0 -166 75.5 -258t233.5 -92q132 0 219.5 70.5t114.5 193.5h-268l51 264h600l-151 -786h-250l10 164h-4q-67 -92 -173.5 -144.5t-232.5 -52.5z" />
    <glyph glyph-name="uni0123" unicode="&#x123;" horiz-adv-x="1150" 
d="M893 1645l-23 -105q-124 -21 -147 -98q65 -4 99 -37t34 -88q0 -54 -41 -91.5t-106 -37.5q-70 0 -112 50t-42 132q0 114 92.5 191t245.5 84zM528 301q112 0 180 97t68 223q-2 92 -47 151t-131 59q-76 0 -132.5 -47.5t-84 -120t-27.5 -155.5q0 -91 44 -149t130 -58z
M449 -362q-87 0 -165 19t-144 58t-109.5 105.5t-53.5 154.5h324q21 -104 156 -104q164 0 202 195l21 106h-6q-53 -55 -113.5 -84.5t-140.5 -30.5q-170 0 -279.5 118t-109.5 304q0 112 35 219t98 192t160 137t211 52q210 0 296 -159h5l24 129h314l-191 -986
q-43 -216 -180 -323q-127 -102 -354 -102z" />
    <glyph glyph-name="Hcircumflex" unicode="&#x124;" horiz-adv-x="1396" 
d="M-4 0l283 1464h358l-109 -557h486l108 557h357l-283 -1464h-356l116 612h-485l-117 -612h-358zM496 1536l256 256h315l172 -256h-268l-74 113h-4l-107 -113h-290z" />
    <glyph glyph-name="hcircumflex" unicode="&#x125;" horiz-adv-x="1138" 
d="M-25 0l283 1464h328l-109 -559h6q65 86 141 130t183 44q161 0 241 -117.5t42 -316.5l-125 -645h-328l121 621q18 89 -12.5 138.5t-110.5 49.5q-83 0 -141.5 -65.5t-79.5 -168.5l-111 -575h-328zM369 1536l256 256h315l172 -256h-268l-74 113h-4l-107 -113h-290z" />
    <glyph glyph-name="Hbar" unicode="&#x126;" horiz-adv-x="1396" 
d="M528 907h486l30 158h-485zM94 1065l33 172h109l43 227h358l-45 -227h485l45 227h357l-43 -227h108l-33 -172h-110l-205 -1065h-356l116 612h-485l-117 -612h-358l205 1065h-107z" />
    <glyph glyph-name="hbar" unicode="&#x127;" horiz-adv-x="1138" 
d="M414 575l-111 -575h-328l224 1161h-101l33 166h100l27 137h328l-27 -137h246l-31 -166h-248l-49 -256h6q65 86 141 130t183 44q161 0 241 -117.5t42 -316.5l-125 -645h-328l121 621q18 89 -12.5 138.5t-110.5 49.5q-83 0 -141.5 -65.5t-79.5 -168.5z" />
    <glyph glyph-name="Itilde" unicode="&#x128;" horiz-adv-x="557" 
d="M-4 0l285 1464h356l-283 -1464h-358zM602 1540q-49 0 -96 18t-83.5 36t-60.5 18q-25 0 -44.5 -19.5t-26.5 -54.5h-170q23 134 89.5 205.5t156.5 71.5q47 0 92 -19t80.5 -38t58.5 -19q30 0 47 18t27 53h170q-21 -124 -83 -197t-157 -73z" />
    <glyph glyph-name="itilde" unicode="&#x129;" horiz-adv-x="485" 
d="M487 1171q-47 0 -89 18t-73 36t-51 18q-53 0 -69 -74h-166q20 133 84 205t149 72q45 0 86 -19t72.5 -38t52.5 -19q51 0 68 72h166q-15 -123 -76 -197t-154 -74zM-25 0l203 1049h328l-203 -1049h-328z" />
    <glyph glyph-name="Imacron" unicode="&#x12a;" horiz-adv-x="557" 
d="M-4 0l285 1464h356l-283 -1464h-358zM176 1561l41 204h578l-41 -204h-578z" />
    <glyph glyph-name="imacron" unicode="&#x12b;" horiz-adv-x="485" 
d="M111 1202l39 205h526l-39 -205h-526zM-25 0l203 1049h328l-203 -1049h-328z" />
    <glyph glyph-name="Ibreve" unicode="&#x12c;" horiz-adv-x="557" 
d="M-4 0l285 1464h356l-283 -1464h-358zM492 1524q-146 0 -230 80t-82 217h185q3 -45 36 -71t95 -26q59 0 98.5 28t50.5 69h186q-22 -137 -113.5 -217t-225.5 -80z" />
    <glyph glyph-name="ibreve" unicode="&#x12d;" horiz-adv-x="485" 
d="M-25 0l203 1049h328l-203 -1049h-328zM381 1159q-146 0 -230 80t-81 217h184q3 -45 36 -70.5t95 -25.5q59 0 99 27.5t51 68.5h184q-20 -137 -112 -217t-226 -80z" />
    <glyph glyph-name="Iogonek" unicode="&#x12e;" horiz-adv-x="557" 
d="M176 -362q-108 0 -170.5 43t-62.5 120q0 119 159 199h-106l285 1464h356l-281 -1454q-54 -30 -95.5 -69.5t-41.5 -75.5q0 -45 55 -45q20 0 48 8h2l-35 -172q-45 -18 -113 -18z" />
    <glyph glyph-name="iogonek" unicode="&#x12f;" horiz-adv-x="485" 
d="M379 1495q77 0 128.5 -49t51.5 -125t-51.5 -125t-128.5 -49t-128.5 49t-51.5 125t51.5 125t128.5 49zM129 -362q-108 0 -170.5 43t-62.5 120q0 68 50 115t132 84h-103l203 1049h328l-201 -1039q-133 -85 -133 -145q0 -45 55 -45q19 0 47 8h2l-34 -172q-45 -18 -113 -18z
" />
    <glyph glyph-name="Idotaccent" unicode="&#x130;" horiz-adv-x="557" 
d="M-4 0l285 1464h356l-283 -1464h-358zM492 1888q77 0 128.5 -49t51.5 -125t-51.5 -125t-128.5 -49t-129 49t-52 125t52 125t129 49z" />
    <glyph glyph-name="dotlessi" unicode="&#x131;" horiz-adv-x="485" 
d="M-25 0l203 1049h328l-203 -1049h-328z" />
    <glyph glyph-name="IJ" unicode="&#x132;" horiz-adv-x="1634" 
d="M-4 0l285 1464h356l-283 -1464h-358zM997 -27q-113 0 -203 29t-156 89.5t-88 154.5t1 225l20 98h326l-23 -112q-18 -90 16 -138.5t120 -48.5q73 0 112.5 41.5t53.5 120.5l200 1032h355l-205 -1067q-36 -185 -142 -286q-145 -138 -387 -138z" />
    <glyph glyph-name="ij" unicode="&#x133;" horiz-adv-x="968" 
d="M379 1495q77 0 128.5 -49t51.5 -125t-51.5 -125t-128.5 -49t-128.5 49t-51.5 125t51.5 125t128.5 49zM-25 0l203 1049h328l-203 -1049h-328zM864 1495q77 0 128.5 -49t51.5 -125t-51.5 -125t-128.5 -49t-128.5 49t-51.5 125t51.5 125t128.5 49zM408 -352q-101 0 -177 20
l43 232q40 -3 71 -1.5t53.5 10t37 29t21.5 54.5l207 1057h327l-211 -1090q-35 -168 -123 -240q-95 -71 -249 -71z" />
    <glyph glyph-name="Jcircumflex" unicode="&#x134;" horiz-adv-x="1093" 
d="M455 -27q-113 0 -203.5 29t-156 89.5t-88 154.5t0.5 225l21 98h325l-22 -112q-18 -90 15.5 -138.5t119.5 -48.5q73 0 112.5 41.5t53.5 120.5l201 1032h354l-205 -1067q-36 -186 -141 -286q-145 -138 -387 -138zM637 1536l256 256h315l172 -256h-268l-74 113h-4l-106 -113
h-291z" />
    <glyph glyph-name="jcircumflex" unicode="&#x135;" horiz-adv-x="485" 
d="M6 1176l238 280h307l147 -280h-262l-53 131h-4l-96 -131h-277zM-78 -352q-100 0 -176 20l43 232q40 -3 71 -1.5t53 10t36.5 28.5t21.5 55l207 1057h328l-211 -1090q-35 -168 -123 -240q-95 -71 -250 -71z" />
    <glyph glyph-name="uni0136" unicode="&#x136;" horiz-adv-x="1382" 
d="M389 -539l23 105q124 21 147 98q-65 4 -99 37t-34 88q0 54 41 91.5t106 37.5q70 0 112 -50t42 -132q0 -114 -92.5 -191t-245.5 -84zM903 0l-291 643l-163 -147l-95 -496h-358l283 1464h358l-105 -540l574 540h424l-643 -587l407 -877h-391z" />
    <glyph glyph-name="uni0137" unicode="&#x137;" horiz-adv-x="1105" 
d="M252 -539l22 105q125 21 148 98q-65 4 -99 37t-34 88q0 54 41 91.5t106 37.5q70 0 112 -50t42 -132q0 -114 -92.5 -191t-245.5 -84zM657 0l-168 430l-131 -123l-59 -307h-324l283 1464h324l-152 -782l361 367h380l-426 -404l273 -645h-361z" />
    <glyph glyph-name="Lacute" unicode="&#x139;" horiz-adv-x="1118" 
d="M330 1536l127 266h370l-247 -266h-250zM-4 0l283 1464h358l-225 -1159h630l-57 -305h-989z" />
    <glyph glyph-name="lacute" unicode="&#x13a;" horiz-adv-x="493" 
d="M301 1536l127 266h371l-248 -266h-250zM-23 0l283 1464h334l-283 -1464h-334z" />
    <glyph glyph-name="uni013B" unicode="&#x13b;" horiz-adv-x="1122" 
d="M279 -539l22 105q125 21 148 98q-65 4 -99.5 37t-34.5 88q0 54 41.5 91.5t106.5 37.5q70 0 111.5 -50t41.5 -132q0 -114 -92 -191t-245 -84zM-4 0l283 1464h358l-225 -1159h630l-57 -305h-989z" />
    <glyph glyph-name="uni013C" unicode="&#x13c;" horiz-adv-x="493" 
d="M-90 -539l22 105q125 21 148 98q-65 4 -99 37t-34 88q0 54 41 91.5t106 37.5q70 0 112 -50t42 -132q0 -114 -92.5 -191t-245.5 -84zM-23 0l283 1464h334l-283 -1464h-334z" />
    <glyph glyph-name="Lcaron" unicode="&#x13d;" horiz-adv-x="1118" 
d="M838 1464h258l-164 -374h-201zM-4 0l283 1464h358l-225 -1159h630l-57 -305h-989z" />
    <glyph glyph-name="lcaron" unicode="&#x13e;" horiz-adv-x="493" 
d="M598 1116l102 348h242l-162 -348h-182zM-23 0l283 1464h334l-283 -1464h-334z" />
    <glyph glyph-name="Ldot" unicode="&#x13f;" horiz-adv-x="1118" 
d="M-4 0l283 1464h358l-225 -1159h630l-57 -305h-989zM930 991q84 0 138 -52.5t54 -133.5q0 -82 -54.5 -135.5t-137.5 -53.5t-137 53.5t-54 135.5t54 134t137 52z" />
    <glyph glyph-name="ldot" unicode="&#x140;" horiz-adv-x="837" 
d="M-23 0l283 1464h334l-283 -1464h-334zM698 891q84 0 138.5 -52.5t54.5 -133.5q0 -82 -55 -135.5t-138 -53.5t-136.5 53.5t-53.5 135.5t53.5 134t136.5 52z" />
    <glyph glyph-name="Lslash" unicode="&#x141;" horiz-adv-x="1138" 
d="M999 0h-987l86 444l-135 -59l49 252l135 59l148 768h356l-114 -600l426 187l-50 -250l-426 -187l-59 -309h631z" />
    <glyph glyph-name="lslash" unicode="&#x142;" horiz-adv-x="565" 
d="M344 0h-334l92 477l-122 -76l49 246l121 76l143 741h334l-99 -506l138 86l-48 -245l-137 -84z" />
    <glyph glyph-name="Nacute" unicode="&#x143;" horiz-adv-x="1406" 
d="M772 1536l127 266h371l-248 -266h-250zM-4 0l283 1464h358l256 -719l68 -215h4q35 199 45 250l133 684h346l-283 -1464h-358l-250 698l-74 236h-4q-41 -226 -51 -277l-127 -657h-346z" />
    <glyph glyph-name="nacute" unicode="&#x144;" horiz-adv-x="1138" 
d="M561 1171l156 304h379l-283 -304h-252zM-25 0l203 1049h318l-33 -166h6q136 196 338 196q161 0 241 -117.5t42 -316.5l-125 -645h-328l121 621q18 89 -12.5 138.5t-110.5 49.5q-82 0 -141 -66t-80 -168l-111 -575h-328z" />
    <glyph glyph-name="uni0145" unicode="&#x145;" horiz-adv-x="1406" 
d="M389 -537l23 105q124 21 147 98q-65 4 -99 37t-34 88q0 54 41 91.5t106 37.5q70 0 112 -50t42 -132q0 -114 -92.5 -191t-245.5 -84zM-4 0l283 1464h358l256 -719l68 -215h4q35 199 45 250l133 684h346l-283 -1464h-358l-250 698l-74 236h-4q-41 -226 -51 -277l-127 -657
h-346z" />
    <glyph glyph-name="uni0146" unicode="&#x146;" horiz-adv-x="1138" 
d="M248 -539l22 105q125 21 148 98q-65 4 -99 37t-34 88q0 54 41 91.5t106 37.5q70 0 112 -50t42 -132q0 -114 -92.5 -191t-245.5 -84zM-25 0l203 1049h318l-33 -166h6q136 196 338 196q161 0 241 -117.5t42 -316.5l-125 -645h-328l121 621q18 89 -12.5 138.5t-110.5 49.5
q-82 0 -141 -66t-80 -168l-111 -575h-328z" />
    <glyph glyph-name="Ncaron" unicode="&#x147;" horiz-adv-x="1406" 
d="M750 1536l-172 256h268l74 -113h4l108 113h291l-256 -256h-317zM-4 0l283 1464h358l256 -719l68 -215h4q35 199 45 250l133 684h346l-283 -1464h-358l-250 698l-74 236h-4q-41 -226 -51 -277l-127 -657h-346z" />
    <glyph glyph-name="ncaron" unicode="&#x148;" horiz-adv-x="1138" 
d="M528 1169l-170 283h271l69 -135h4l113 135h289l-260 -283h-316zM-25 0l203 1049h318l-33 -166h6q136 196 338 196q161 0 241 -117.5t42 -316.5l-125 -645h-328l121 621q18 89 -12.5 138.5t-110.5 49.5q-82 0 -141 -66t-80 -168l-111 -575h-328z" />
    <glyph glyph-name="napostrophe" unicode="&#x149;" horiz-adv-x="1138" 
d="M-25 0l203 1049h318l-33 -166h6q136 196 338 196q161 0 241 -117.5t42 -316.5l-125 -645h-328l121 621q18 89 -12.5 138.5t-110.5 49.5q-82 0 -141 -66t-80 -168l-111 -575h-328zM-186 899l28 135q124 21 166 127q-71 3 -109 45.5t-38 108.5q0 71 46 116.5t116 45.5
q80 0 128 -55.5t48 -141.5q0 -164 -108.5 -268.5t-276.5 -112.5z" />
    <glyph glyph-name="Omacron" unicode="&#x14c;" horiz-adv-x="1488" 
d="M596 1561l41 204h577l-40 -204h-578zM725 -35q-293 0 -476.5 168.5t-182.5 470.5q1 142 35.5 274.5t102.5 244t161.5 194.5t218.5 129.5t268 46.5q296 0 472.5 -174t176.5 -477q0 -175 -53.5 -333t-151 -279t-245.5 -192.5t-326 -72.5zM735 258q84 0 153.5 35.5t115 93
t77 134t45 156t13.5 161.5q0 79 -17 143.5t-52.5 115t-95 78t-138.5 27.5q-84 -1 -154 -37.5t-116 -96t-78 -137.5t-46 -159t-14 -164q0 -75 17.5 -136.5t53 -110.5t96 -76t140.5 -27z" />
    <glyph glyph-name="omacron" unicode="&#x14d;" horiz-adv-x="1161" 
d="M367 1202l41 205h577l-41 -205h-577zM535 -33q-102 0 -192 30.5t-160.5 88.5t-112 151.5t-41.5 211.5q0 172 73 314.5t211 228t316 85.5q102 0 192 -30t160.5 -87.5t111.5 -150t42 -209.5q0 -175 -72.5 -318t-210.5 -229t-317 -86zM541 201q68 0 121 39t82.5 101.5
t44.5 131.5t14 137q0 64 -17.5 115t-60.5 85t-107 34q-67 0 -119.5 -40t-82 -103t-44.5 -131.5t-14 -135.5q0 -103 44 -168t139 -65z" />
    <glyph glyph-name="Obreve" unicode="&#x14e;" horiz-adv-x="1488" 
d="M909 1524q-146 0 -229.5 80t-81.5 217h184q3 -45 36 -71t95 -26q59 0 99 28t51 69h186q-22 -137 -114 -217t-226 -80zM725 -35q-293 0 -476.5 168.5t-182.5 470.5q1 142 35.5 274.5t102.5 244t161.5 194.5t218.5 129.5t268 46.5q296 0 472.5 -174t176.5 -477
q0 -175 -53.5 -333t-151 -279t-245.5 -192.5t-326 -72.5zM735 258q84 0 153.5 35.5t115 93t77 134t45 156t13.5 161.5q0 79 -17 143.5t-52.5 115t-95 78t-138.5 27.5q-84 -1 -154 -37.5t-116 -96t-78 -137.5t-46 -159t-14 -164q0 -75 17.5 -136.5t53 -110.5t96 -76
t140.5 -27z" />
    <glyph glyph-name="obreve" unicode="&#x14f;" horiz-adv-x="1161" 
d="M535 -33q-102 0 -192 30.5t-160.5 88.5t-112 151.5t-41.5 211.5q0 172 73 314.5t211 228t316 85.5q102 0 192 -30t160.5 -87.5t111.5 -150t42 -209.5q0 -175 -72.5 -318t-210.5 -229t-317 -86zM541 201q68 0 121 39t82.5 101.5t44.5 131.5t14 137q0 64 -17.5 115
t-60.5 85t-107 34q-67 0 -119.5 -40t-82 -103t-44.5 -131.5t-14 -135.5q0 -103 44 -168t139 -65zM676 1159q-146 0 -230 80t-81 217h184q3 -45 36 -70.5t95 -25.5q59 0 98.5 27.5t50.5 68.5h185q-20 -137 -112 -217t-226 -80z" />
    <glyph glyph-name="Ohungarumlaut" unicode="&#x150;" horiz-adv-x="1488" 
d="M725 -35q-293 0 -476.5 168.5t-182.5 470.5q1 142 35.5 274.5t102.5 244t161.5 194.5t218.5 129.5t268 46.5q296 0 472.5 -174t176.5 -477q0 -175 -53.5 -333t-151 -279t-245.5 -192.5t-326 -72.5zM735 258q84 0 153.5 35.5t115 93t77 134t45 156t13.5 161.5
q0 79 -17 143.5t-52.5 115t-95 78t-138.5 27.5q-84 -1 -154 -37.5t-116 -96t-78 -137.5t-46 -159t-14 -164q0 -75 17.5 -136.5t53 -110.5t96 -76t140.5 -27zM967 1536l118 287h318l-232 -287h-204zM573 1536l119 287h318l-232 -287h-205z" />
    <glyph glyph-name="ohungarumlaut" unicode="&#x151;" horiz-adv-x="1161" 
d="M739 1171l131 304h318l-244 -304h-205zM346 1171l131 304h318l-244 -304h-205zM535 -33q-102 0 -192 30.5t-160.5 88.5t-112 151.5t-41.5 211.5q0 172 73 314.5t211 228t316 85.5q102 0 192 -30t160.5 -87.5t111.5 -150t42 -209.5q0 -175 -72.5 -318t-210.5 -229
t-317 -86zM541 201q68 0 121 39t82.5 101.5t44.5 131.5t14 137q0 64 -17.5 115t-60.5 85t-107 34q-67 0 -119.5 -40t-82 -103t-44.5 -131.5t-14 -135.5q0 -103 44 -168t139 -65z" />
    <glyph glyph-name="OE" unicode="&#x152;" horiz-adv-x="2166" 
d="M705 258q129 0 220 72.5t142 193.5v105l59 311q-21 123 -96 192.5t-203 69.5q-101 -1 -180 -55t-125.5 -142t-70 -189.5t-23.5 -207.5q0 -163 70 -256.5t207 -93.5zM997 0l21 106q-167 -141 -379 -141q-120 0 -223.5 41t-182 119.5t-123.5 201.5t-44 277q1 140 35 271.5
t100 243.5t157 195.5t212.5 131t258.5 47.5q248 0 373 -154l25 125h1036l-57 -295h-678l-51 -268h579l-53 -278h-582l-61 -318h702l-59 -305h-1006z" />
    <glyph glyph-name="oe" unicode="&#x153;" horiz-adv-x="1865" 
d="M1354 844q-83 0 -140.5 -54t-85.5 -153h398q3 91 -39.5 149t-132.5 58zM356 426q0 -97 44 -161t139 -64q68 0 120 39t81 102.5t43 133t14 140.5q0 61 -16.5 110.5t-59 83.5t-105.5 34q-67 0 -119.5 -40t-82 -103.5t-44.5 -134t-14 -140.5zM1288 -31q-254 0 -373 162
q-148 -164 -387 -164q-102 0 -191.5 30t-159 87.5t-110 150.5t-40.5 211q1 129 43.5 244t118 200.5t187 136t242.5 50.5q258 0 373 -164q149 166 375 166q161 0 274 -69q121 -78 167 -226t16 -346h-721q2 -109 45.5 -170t148.5 -61q61 0 109 26.5t72 79.5h319
q-51 -155 -178 -243q-140 -98 -330 -101z" />
    <glyph glyph-name="Racute" unicode="&#x154;" horiz-adv-x="1349" 
d="M582 1180l-70 -365h264q101 0 166.5 51t65.5 152q0 78 -45.5 120t-133.5 42h-247zM-4 0l283 1464h606q219 0 350 -103t131 -288q0 -301 -309 -391v-6q174 -63 174 -277q0 -35 -5 -134t-5 -148q0 -80 28 -99v-18h-354q-18 23 -18 102q0 36 4 124t4 130q0 96 -48 145.5
t-153 49.5h-225l-105 -551h-358zM674 1536l127 266h370l-247 -266h-250z" />
    <glyph glyph-name="racute" unicode="&#x155;" horiz-adv-x="770" 
d="M412 1171l155 304h379l-282 -304h-252zM-25 0l203 1049h316l-35 -172h6q116 188 303 188q50 0 74 -8l-56 -287h-6q-161 24 -257 -50.5t-132 -260.5l-88 -459h-328z" />
    <glyph glyph-name="uni0156" unicode="&#x156;" horiz-adv-x="1349" 
d="M391 -539l23 105q124 21 147 98q-65 4 -99 37t-34 88q0 54 41 91.5t106 37.5q70 0 112 -50t42 -132q0 -114 -92.5 -191t-245.5 -84zM582 1180l-70 -365h264q101 0 166.5 51t65.5 152q0 78 -45.5 120t-133.5 42h-247zM-4 0l283 1464h606q219 0 350 -103t131 -288
q0 -301 -309 -391v-6q174 -63 174 -277q0 -35 -5 -134t-5 -148q0 -80 28 -99v-18h-354q-18 23 -18 102q0 36 4 124t4 130q0 96 -48 145.5t-153 49.5h-225l-105 -551h-358z" />
    <glyph glyph-name="uni0157" unicode="&#x157;" horiz-adv-x="770" 
d="M-100 -539l22 105q125 21 148 98q-65 4 -99 37t-34 88q0 54 41 91.5t106 37.5q70 0 112 -50t42 -132q0 -114 -92.5 -191t-245.5 -84zM-25 0l203 1049h316l-35 -172h6q116 188 303 188q50 0 74 -8l-56 -287h-6q-161 24 -257 -50.5t-132 -260.5l-88 -459h-328z" />
    <glyph glyph-name="Rcaron" unicode="&#x158;" horiz-adv-x="1349" 
d="M651 1536l-172 256h269l73 -113h4l109 113h291l-256 -256h-318zM582 1180l-70 -365h264q101 0 166.5 51t65.5 152q0 78 -45.5 120t-133.5 42h-247zM-4 0l283 1464h606q219 0 350 -103t131 -288q0 -301 -309 -391v-6q174 -63 174 -277q0 -35 -5 -134t-5 -148q0 -80 28 -99
v-18h-354q-18 23 -18 102q0 36 4 124t4 130q0 96 -48 145.5t-153 49.5h-225l-105 -551h-358z" />
    <glyph glyph-name="rcaron" unicode="&#x159;" horiz-adv-x="770" 
d="M383 1169l-170 283h270l70 -135h4l113 135h288l-260 -283h-315zM-25 0l203 1049h316l-35 -172h6q116 188 303 188q50 0 74 -8l-56 -287h-6q-161 24 -257 -50.5t-132 -260.5l-88 -459h-328z" />
    <glyph glyph-name="Sacute" unicode="&#x15a;" horiz-adv-x="1284" 
d="M616 -35q-100 0 -189 16t-171 53t-140.5 92.5t-91.5 141.5t-30 193h358q-3 -109 71.5 -160t203.5 -51q65 0 115.5 14t85 50.5t34.5 93.5q0 60 -61 98t-228 98q-86 30 -146 56.5t-117 63.5t-91 78.5t-54 98.5t-20 127q0 221 155 342t407 121q89 0 169.5 -14t155.5 -47.5
t128.5 -83.5t83.5 -128.5t26 -177.5h-348q1 86 -59 132.5t-169 46.5q-50 0 -94 -13t-77 -46t-34 -81q0 -57 50 -86t211 -84q35 -12 53 -18q102 -35 172.5 -70.5t131 -86t90.5 -119t30 -156.5q0 -121 -48.5 -216.5t-133 -155.5t-194 -91t-235.5 -31zM625 1536l127 266h370
l-248 -266h-249z" />
    <glyph glyph-name="sacute" unicode="&#x15b;" horiz-adv-x="1005" 
d="M428 1171l156 304h379l-283 -304h-252zM469 -33q-77 0 -145 11.5t-131 38.5t-108.5 69t-74 107t-30.5 147h311q11 -154 184 -154q68 0 108 24.5t40 76.5q0 32 -29 55.5t-60 35t-108 33.5q-8 2 -12.5 3.5t-11.5 3.5t-13 4q-73 21 -124.5 44t-97 58t-68.5 86.5t-23 118.5
q0 166 125.5 258t326.5 92q89 0 166 -19t139 -58.5t100 -105.5t42 -153h-301q-6 57 -47.5 90t-110.5 33q-57 0 -98 -22t-41 -66q0 -43 63 -72q35 -16 162 -53q55 -15 97.5 -31t88 -42t75 -57.5t48.5 -78.5t19 -104q0 -181 -122 -277t-339 -96z" />
    <glyph glyph-name="Scircumflex" unicode="&#x15c;" horiz-adv-x="1284" 
d="M616 -35q-100 0 -189 16t-171 53t-140.5 92.5t-91.5 141.5t-30 193h358q-3 -109 71.5 -160t203.5 -51q65 0 115.5 14t85 50.5t34.5 93.5q0 60 -61 98t-228 98q-86 30 -146 56.5t-117 63.5t-91 78.5t-54 98.5t-20 127q0 221 155 342t407 121q89 0 169.5 -14t155.5 -47.5
t128.5 -83.5t83.5 -128.5t26 -177.5h-348q1 86 -59 132.5t-169 46.5q-50 0 -94 -13t-77 -46t-34 -81q0 -57 50 -86t211 -84q35 -12 53 -18q102 -35 172.5 -70.5t131 -86t90.5 -119t30 -156.5q0 -121 -48.5 -216.5t-133 -155.5t-194 -91t-235.5 -31zM381 1536l256 256h315
l172 -256h-268l-74 113h-4l-106 -113h-291z" />
    <glyph glyph-name="scircumflex" unicode="&#x15d;" horiz-adv-x="1005" 
d="M190 1176l261 280h315l170 -280h-270l-70 135h-4l-113 -135h-289zM469 -33q-77 0 -145 11.5t-131 38.5t-108.5 69t-74 107t-30.5 147h311q11 -154 184 -154q68 0 108 24.5t40 76.5q0 32 -29 55.5t-60 35t-108 33.5q-8 2 -12.5 3.5t-11.5 3.5t-13 4q-73 21 -124.5 44
t-97 58t-68.5 86.5t-23 118.5q0 166 125.5 258t326.5 92q89 0 166 -19t139 -58.5t100 -105.5t42 -153h-301q-6 57 -47.5 90t-110.5 33q-57 0 -98 -22t-41 -66q0 -43 63 -72q35 -16 162 -53q55 -15 97.5 -31t88 -42t75 -57.5t48.5 -78.5t19 -104q0 -181 -122 -277t-339 -96z
" />
    <glyph glyph-name="uni015E" unicode="&#x15e;" horiz-adv-x="1284" 
d="M494 -395q-140 0 -228 59l45 72q64 -31 138 -31q45 0 78.5 15t33.5 51q0 49 -67 49q-34 0 -72 -15l-29 50l119 116q-87 8 -163 29t-143.5 60t-114.5 93.5t-73.5 133t-23.5 174.5h358q-3 -109 71.5 -160t203.5 -51q65 0 115.5 14t85 50.5t34.5 93.5q0 60 -61 98t-228 98
q-86 30 -146 56.5t-117 63.5t-91 78.5t-54 98.5t-20 127q0 221 155 342t407 121q89 0 169.5 -14t155.5 -47.5t128.5 -83.5t83.5 -128.5t26 -177.5h-348q1 86 -59 132.5t-169 46.5q-50 0 -94 -13t-77 -46t-34 -81q0 -57 50 -86t211 -84q35 -12 53 -18q102 -35 172.5 -70.5
t131 -86t90.5 -119t30 -156.5q0 -120 -47.5 -214.5t-130 -154.5t-190 -91.5t-232.5 -33.5l-74 -61v-4q88 8 142.5 -24.5t54.5 -100.5q0 -57 -37.5 -96.5t-93.5 -56.5t-125 -17z" />
    <glyph glyph-name="uni015F" unicode="&#x15f;" horiz-adv-x="1005" 
d="M311 -395q-139 0 -227 59l45 72q64 -31 137 -31q45 0 79 15t34 51q0 49 -68 49q-33 0 -71 -15l-29 50l125 122q-157 24 -253.5 112t-102.5 251h311q11 -154 184 -154q68 0 108 24.5t40 76.5q0 32 -29 55.5t-60 35t-108 33.5q-8 2 -12.5 3.5t-11.5 3.5t-13 4
q-73 21 -124.5 44t-97 58t-68.5 86.5t-23 118.5q0 166 125.5 258t326.5 92q89 0 166 -19t139 -58.5t100 -105.5t42 -153h-301q-6 57 -47.5 90t-110.5 33q-57 0 -98 -22t-41 -66q0 -43 63 -72q35 -16 162 -53q55 -15 97.5 -31t88 -42t75 -57.5t48.5 -78.5t19 -104
q0 -181 -122 -277t-339 -96h-23l-75 -63v-4q88 8 142 -24.5t54 -100.5q0 -57 -37.5 -96.5t-93.5 -56.5t-125 -17z" />
    <glyph glyph-name="Scaron" unicode="&#x160;" horiz-adv-x="1284" 
d="M616 -35q-100 0 -189 16t-171 53t-140.5 92.5t-91.5 141.5t-30 193h358q-3 -109 71.5 -160t203.5 -51q65 0 115.5 14t85 50.5t34.5 93.5q0 60 -61 98t-228 98q-86 30 -146 56.5t-117 63.5t-91 78.5t-54 98.5t-20 127q0 221 155 342t407 121q89 0 169.5 -14t155.5 -47.5
t128.5 -83.5t83.5 -128.5t26 -177.5h-348q1 86 -59 132.5t-169 46.5q-50 0 -94 -13t-77 -46t-34 -81q0 -57 50 -86t211 -84q35 -12 53 -18q102 -35 172.5 -70.5t131 -86t90.5 -119t30 -156.5q0 -121 -48.5 -216.5t-133 -155.5t-194 -91t-235.5 -31zM602 1536l-172 256h268
l74 -113h4l109 113h291l-256 -256h-318z" />
    <glyph glyph-name="scaron" unicode="&#x161;" horiz-adv-x="1005" 
d="M406 1169l-170 283h270l69 -135h5l112 135h289l-260 -283h-315zM469 -33q-77 0 -145 11.5t-131 38.5t-108.5 69t-74 107t-30.5 147h311q11 -154 184 -154q68 0 108 24.5t40 76.5q0 32 -29 55.5t-60 35t-108 33.5q-8 2 -12.5 3.5t-11.5 3.5t-13 4q-73 21 -124.5 44t-97 58
t-68.5 86.5t-23 118.5q0 166 125.5 258t326.5 92q89 0 166 -19t139 -58.5t100 -105.5t42 -153h-301q-6 57 -47.5 90t-110.5 33q-57 0 -98 -22t-41 -66q0 -43 63 -72q35 -16 162 -53q55 -15 97.5 -31t88 -42t75 -57.5t48.5 -78.5t19 -104q0 -181 -122 -277t-339 -96z" />
    <glyph glyph-name="Tcommaaccent" unicode="&#x162;" horiz-adv-x="1245" 
d="M285 -539l22 105q125 21 148 98q-65 4 -99 37t-34 88q0 54 41 91.5t106 37.5q70 0 112 -50t42 -132q0 -114 -92.5 -191t-245.5 -84zM340 0l225 1161h-411l57 303h1184l-58 -303h-415l-226 -1161h-356z" />
    <glyph glyph-name="tcommaaccent" unicode="&#x163;" horiz-adv-x="702" 
d="M59 -539l23 105q124 21 147 98q-65 4 -99 37t-34 88q0 54 41.5 91.5t106.5 37.5q70 0 111.5 -50t41.5 -132q0 -114 -92.5 -191t-245.5 -84zM401 -12q-177 0 -249 79t-39 244l102 529h-133l41 209h133l63 331h322l-66 -331h187l-41 -209h-186l-95 -490q-10 -61 9.5 -85.5
t78.5 -24.5q54 0 78 4l-47 -238q-52 -18 -158 -18z" />
    <glyph glyph-name="Tcaron" unicode="&#x164;" horiz-adv-x="1245" 
d="M643 1536l-172 256h268l74 -113h4l109 113h291l-256 -256h-318zM340 0l225 1161h-411l57 303h1184l-58 -303h-415l-226 -1161h-356z" />
    <glyph glyph-name="tcaron" unicode="&#x165;" horiz-adv-x="702" 
d="M848 1133h-182l98 331h237zM401 -12q-177 0 -249 79t-39 244l102 529h-133l41 209h133l63 331h322l-66 -331h187l-41 -209h-186l-95 -490q-10 -61 9.5 -85.5t78.5 -24.5q54 0 78 4l-47 -238q-52 -18 -158 -18z" />
    <glyph glyph-name="Tbar" unicode="&#x166;" horiz-adv-x="1245" 
d="M1085 606h-272l-117 -606h-356l117 606h-262l41 213h264l65 342h-411l57 303h1184l-58 -303h-415l-66 -342h270z" />
    <glyph glyph-name="tbar" unicode="&#x167;" horiz-adv-x="702" 
d="M559 6q-52 -18 -158 -18q-177 0 -249 79t-39 244l45 240h-133l32 164h133l25 125h-133l41 209h133l63 331h322l-66 -331h187l-41 -209h-186l-25 -125h186l-32 -164h-185l-39 -201q-10 -61 9.5 -85.5t78.5 -24.5q54 0 78 4z" />
    <glyph glyph-name="Utilde" unicode="&#x168;" horiz-adv-x="1378" 
d="M1022 1540q-49 0 -96 18t-83.5 36t-60.5 18q-25 0 -44.5 -19.5t-26.5 -54.5h-170q23 134 89.5 205.5t155.5 71.5q47 0 92.5 -19t81 -38t58.5 -19q30 0 47 18t27 53h170q-21 -124 -83 -197t-157 -73zM653 -27q-115 0 -210.5 22t-172 67t-123 115t-63 165.5t7.5 218.5
l176 903h357l-183 -940q-24 -124 31.5 -193t190.5 -69q218 0 262 230l188 972h356l-192 -991q-46 -245 -202 -372.5t-423 -127.5z" />
    <glyph glyph-name="utilde" unicode="&#x169;" horiz-adv-x="1128" 
d="M334 -31q-169 0 -250.5 113t-42.5 311l125 656h328l-119 -611q-38 -198 114 -198q84 0 142 60.5t80 168.5l110 580h328l-203 -1049h-313l31 158h-7q-128 -189 -323 -189zM819 1171q-49 0 -92.5 18t-77 36t-57.5 18q-25 0 -45 -19.5t-27 -54.5h-170q23 134 89.5 205.5
t156.5 71.5q47 0 89.5 -19t75.5 -38t56 -19q54 0 74 72h168q-21 -125 -82 -198t-158 -73z" />
    <glyph glyph-name="Umacron" unicode="&#x16a;" horiz-adv-x="1378" 
d="M590 1561l41 204h577l-41 -204h-577zM653 -27q-115 0 -210.5 22t-172 67t-123 115t-63 165.5t7.5 218.5l176 903h357l-183 -940q-24 -124 31.5 -193t190.5 -69q218 0 262 230l188 972h356l-192 -991q-46 -245 -202 -372.5t-423 -127.5z" />
    <glyph glyph-name="umacron" unicode="&#x16b;" horiz-adv-x="1128" 
d="M334 -31q-169 0 -250.5 113t-42.5 311l125 656h328l-119 -611q-38 -198 114 -198q84 0 142 60.5t80 168.5l110 580h328l-203 -1049h-313l31 158h-7q-128 -189 -323 -189zM393 1202l41 205h578l-41 -205h-578z" />
    <glyph glyph-name="Ubreve" unicode="&#x16c;" horiz-adv-x="1378" 
d="M879 1524q-146 0 -230 80t-82 217h185q3 -45 36 -71t95 -26q59 0 98.5 28t50.5 69h187q-22 -137 -114 -217t-226 -80zM653 -27q-115 0 -210.5 22t-172 67t-123 115t-63 165.5t7.5 218.5l176 903h357l-183 -940q-24 -124 31.5 -193t190.5 -69q218 0 262 230l188 972h356
l-192 -991q-46 -245 -202 -372.5t-423 -127.5z" />
    <glyph glyph-name="ubreve" unicode="&#x16d;" horiz-adv-x="1128" 
d="M334 -31q-169 0 -250.5 113t-42.5 311l125 656h328l-119 -611q-38 -198 114 -198q84 0 142 60.5t80 168.5l110 580h328l-203 -1049h-313l31 158h-7q-128 -189 -323 -189zM688 1159q-146 0 -230 80t-81 217h184q3 -45 36 -70.5t95 -25.5q59 0 99 27.5t51 68.5h184
q-20 -137 -112 -217t-226 -80z" />
    <glyph glyph-name="Uring" unicode="&#x16e;" horiz-adv-x="1378" 
d="M653 -27q-115 0 -210.5 22t-172 67t-123 115t-63 165.5t7.5 218.5l176 903h357l-183 -940q-24 -124 31.5 -193t190.5 -69q218 0 262 230l188 972h356l-192 -991q-46 -245 -202 -372.5t-423 -127.5zM879 1513q-86 0 -147.5 58t-61.5 143q0 84 61.5 142.5t147.5 58.5
q87 0 147.5 -58.5t60.5 -142.5q0 -86 -60.5 -143.5t-147.5 -57.5zM879 1626q37 0 61.5 26t24.5 62t-24.5 62t-61.5 26q-36 0 -60 -26t-24 -62t24 -62t60 -26z" />
    <glyph glyph-name="uring" unicode="&#x16f;" horiz-adv-x="1128" 
d="M684 1143q-87 0 -148 58t-61 142q0 85 61.5 144t147.5 59q85 0 147 -59.5t62 -143.5t-61.5 -142t-147.5 -58zM684 1257q36 0 60 25t24 61t-24 62.5t-60 26.5q-37 0 -61.5 -26.5t-24.5 -62.5t24 -61t62 -25zM334 -31q-169 0 -250.5 113t-42.5 311l125 656h328l-119 -611
q-38 -198 114 -198q84 0 142 60.5t80 168.5l110 580h328l-203 -1049h-313l31 158h-7q-128 -189 -323 -189z" />
    <glyph glyph-name="Uhungarumlaut" unicode="&#x170;" horiz-adv-x="1378" 
d="M653 -27q-115 0 -210.5 22t-172 67t-123 115t-63 165.5t7.5 218.5l176 903h357l-183 -940q-24 -124 31.5 -193t190.5 -69q218 0 262 230l188 972h356l-192 -991q-46 -245 -202 -372.5t-423 -127.5zM950 1536l119 287h317l-231 -287h-205zM557 1536l119 287h317l-231 -287
h-205z" />
    <glyph glyph-name="uhungarumlaut" unicode="&#x171;" horiz-adv-x="1128" 
d="M334 -31q-169 0 -250.5 113t-42.5 311l125 656h328l-119 -611q-38 -198 114 -198q84 0 142 60.5t80 168.5l110 580h328l-203 -1049h-313l31 158h-7q-128 -189 -323 -189zM754 1171l131 304h317l-244 -304h-204zM360 1171l132 304h317l-244 -304h-205z" />
    <glyph glyph-name="Uogonek" unicode="&#x172;" horiz-adv-x="1378" 
d="M641 -362q-107 0 -169 43t-62 120q0 108 139 179q-123 12 -217 51.5t-159 111.5t-85 175.5t4 242.5l176 903h357l-183 -940q-24 -124 31.5 -193t190.5 -69q218 0 262 230l188 972h356l-192 -991q-66 -351 -365 -459q-14 -5 -53.5 -18t-63 -22.5t-52.5 -25.5t-43.5 -36.5
t-14.5 -46.5q0 -45 53 -45q23 0 47 8h2l-32 -172q-49 -18 -115 -18z" />
    <glyph glyph-name="uogonek" unicode="&#x173;" horiz-adv-x="1128" 
d="M770 -362q-108 0 -169.5 43t-61.5 120q0 68 49.5 115t130.5 84h-86l29 152h-7q-128 -183 -325 -183q-166 0 -247 113.5t-42 310.5l125 656h328l-119 -611q-37 -194 117 -194q83 0 140 59.5t79 165.5l110 580h328l-201 -1039q-53 -31 -94 -70t-41 -75q0 -45 55 -45
q19 0 47 8h3l-35 -172q-45 -18 -113 -18z" />
    <glyph glyph-name="Wcircumflex" unicode="&#x174;" horiz-adv-x="1886" 
d="M301 0l-127 1464h356l29 -614q3 -65 3.5 -157.5t-0.5 -152.5l-1 -59h4q74 205 133 359l246 624h330l26 -622l7 -361h4q80 223 137 373l244 610h362l-641 -1464h-350l-31 705q-3 55 -4 125.5t0 113.5v43h-4q-49 -157 -98 -282l-275 -705h-350zM741 1536l256 256h316
l172 -256h-268l-74 113h-4l-107 -113h-291z" />
    <glyph glyph-name="wcircumflex" unicode="&#x175;" horiz-adv-x="1574" 
d="M508 1176l260 280h315l170 -280h-270l-70 135h-4l-112 -135h-289zM223 0l-123 1049h328l31 -435l8 -211h4q49 132 86 218l186 428h277l37 -428l12 -220h4q49 129 86 213l182 435h330l-491 -1049h-306l-43 477l-12 205h-4q-43 -121 -80 -205l-207 -477h-305z" />
    <glyph glyph-name="Ycircumflex" unicode="&#x176;" horiz-adv-x="1308" 
d="M369 0l104 547l-297 917h375l106 -372q13 -44 26 -101t19 -92l7 -35h4q71 121 139 223l254 377h387l-664 -929l-102 -535h-358zM449 1536l256 256h315l172 -256h-268l-74 113h-4l-107 -113h-290z" />
    <glyph glyph-name="ycircumflex" unicode="&#x177;" horiz-adv-x="1067" 
d="M-31 -346l51 258h111q154 0 154 149q0 49 -27 181l-160 807h342l58 -443q6 -45 12 -108.5t9 -104.5l3 -41h4q54 144 103 248l207 449h329l-553 -1102q-78 -155 -174.5 -224t-247.5 -69h-221zM262 1176l260 280h316l170 -280h-271l-69 135h-4l-113 -135h-289z" />
    <glyph glyph-name="Ydieresis" unicode="&#x178;" horiz-adv-x="1308" 
d="M369 0l104 547l-297 917h375l106 -372q13 -44 26 -101t19 -92l7 -35h4q71 121 139 223l254 377h387l-664 -929l-102 -535h-358zM1079 1853q71 0 118.5 -45.5t47.5 -115.5q0 -69 -47.5 -114.5t-118.5 -45.5t-118.5 45.5t-47.5 114.5q0 70 47.5 115.5t118.5 45.5zM612 1853
q71 0 118.5 -45.5t47.5 -115.5q0 -69 -47.5 -114.5t-118.5 -45.5t-118.5 45.5t-47.5 114.5q0 70 47.5 115.5t118.5 45.5z" />
    <glyph glyph-name="Zacute" unicode="&#x179;" horiz-adv-x="1288" 
d="M-53 0l53 281l752 759l129 123v6q-105 -2 -144 -2h-514l58 297h1112l-54 -276l-729 -739l-153 -144v-6q110 2 155 2h580l-57 -301h-1188zM713 1536l127 266h370l-247 -266h-250z" />
    <glyph glyph-name="zacute" unicode="&#x17a;" horiz-adv-x="989" 
d="M477 1171l156 304h379l-283 -304h-252zM-59 0l45 242l479 456l108 97v6q-96 -2 -129 -2h-315l49 248h840l-45 -240l-453 -432l-135 -119v-6q96 2 143 2h371l-49 -252h-909z" />
    <glyph glyph-name="Zdotaccent" unicode="&#x17b;" horiz-adv-x="1288" 
d="M866 1888q77 0 129 -49t52 -125t-52 -125t-129 -49t-128.5 49t-51.5 125t51.5 125t128.5 49zM-53 0l53 281l752 759l129 123v6q-105 -2 -144 -2h-514l58 297h1112l-54 -276l-729 -739l-153 -144v-6q110 2 155 2h580l-57 -301h-1188z" />
    <glyph glyph-name="zdotaccent" unicode="&#x17c;" horiz-adv-x="989" 
d="M-59 0l45 242l479 456l108 97v6q-96 -2 -129 -2h-315l49 248h840l-45 -240l-453 -432l-135 -119v-6q96 2 143 2h371l-49 -252h-909zM625 1495q77 0 128.5 -49t51.5 -125t-51.5 -125t-128.5 -49t-129 49t-52 125t52 125t129 49z" />
    <glyph glyph-name="Zcaron" unicode="&#x17d;" horiz-adv-x="1288" 
d="M694 1536l-172 256h269l73 -113h4l109 113h291l-256 -256h-318zM-53 0l53 281l752 759l129 123v6q-105 -2 -144 -2h-514l58 297h1112l-54 -276l-729 -739l-153 -144v-6q110 2 155 2h580l-57 -301h-1188z" />
    <glyph glyph-name="zcaron" unicode="&#x17e;" horiz-adv-x="989" 
d="M457 1169l-170 283h270l70 -135h4l112 135h289l-260 -283h-315zM-59 0l45 242l479 456l108 97v6q-96 -2 -129 -2h-315l49 248h840l-45 -240l-453 -432l-135 -119v-6q96 2 143 2h371l-49 -252h-909z" />
    <glyph glyph-name="uni0192" unicode="&#x192;" horiz-adv-x="856" 
d="M131 854h168l59 264q34 160 134 238q128 101 440 63l-45 -233q-62 5 -102.5 1t-64.5 -28t-36 -78l-51 -227h207l-41 -209h-211l-146 -668q-30 -148 -110 -219q-47 -43 -121.5 -62t-143 -18t-157.5 13l43 217q36 -3 62.5 -1.5t45.5 11.5t32 33.5t22 64.5l137 629h-162z
" />
    <glyph glyph-name="AEacute" unicode="&#x1fc;" horiz-adv-x="1988" 
d="M1251 1536l127 266h371l-248 -266h-250zM844 1167l-334 -659h344l127 659h-137zM758 0l49 260h-422l-131 -260h-358l766 1464h1423l-57 -295h-689l-49 -268h588l-53 -278h-590l-61 -318h710l-59 -305h-1067z" />
    <glyph glyph-name="aeacute" unicode="&#x1fd;" horiz-adv-x="1759" 
d="M850 1171l156 304h378l-282 -304h-252zM1249 844q-84 0 -141.5 -54t-85.5 -153h399q3 91 -40 149t-132 58zM305 305q0 -59 36.5 -89t98.5 -30q86 0 144 47.5t78 139.5l22 119q-61 -30 -178 -48q-7 -1 -32 -5t-35.5 -6t-32.5 -7.5t-32.5 -11t-26.5 -16t-23 -23t-13 -30.5
t-6 -40zM1513 70q-141 -99 -331 -99q-285 0 -406 191q-133 -189 -403 -189q-179 0 -282 80.5t-103 227.5q0 74 22.5 130.5t60.5 93.5t96 62t122 37.5t145 18.5q169 11 230 35t61 96q0 46 -33.5 73t-97.5 27q-152 0 -186 -137h-306q30 169 158 264.5t350 95.5q238 0 328 -112
q130 114 319 114q167 0 277 -69q121 -78 167.5 -226t16.5 -346h-723q2 -109 45.5 -170t149.5 -61q133 0 180 106h320q-48 -153 -177 -243z" />
    <glyph glyph-name="Oslashacute" unicode="&#x1fe;" horiz-adv-x="1488" 
d="M422 608q0 -72 16 -141l606 668q-76 67 -208 67q-85 0 -156 -36.5t-117.5 -96t-79 -137.5t-47 -159.5t-14.5 -164.5zM735 258q85 0 155.5 35.5t116.5 93t78 134t46 156t14 161.5q0 91 -21 161l-608 -667q77 -74 219 -74zM725 -35q-255 0 -426 127l-149 -164l-109 103
l149 166q-124 158 -124 407q1 179 56 339.5t153.5 283t247.5 194.5t327 72q243 0 412 -121l133 148l110 -101l-137 -149q133 -169 133 -428q0 -175 -53.5 -333t-151 -279t-245.5 -192.5t-326 -72.5zM754 1536l127 266h370l-247 -266h-250z" />
    <glyph glyph-name="oslashacute" unicode="&#x1ff;" horiz-adv-x="1161" 
d="M350 426q0 -19 4 -55l396 420q-50 53 -134 53q-67 0 -120.5 -40t-84.5 -103.5t-46.5 -134.5t-14.5 -140zM539 201q68 0 122 39.5t84.5 102t46.5 133t15 140.5q0 22 -4 54l-395 -420q49 -49 131 -49zM532 -33q-176 0 -309 86l-119 -127l-88 86l115 123q-104 120 -104 314
q0 172 73.5 314.5t212 228t316.5 85.5q179 0 309 -86l115 121l88 -84l-111 -119q103 -124 103 -309q0 -174 -73 -317.5t-211.5 -229.5t-316.5 -86zM522 1171l156 304h379l-283 -304h-252z" />
    <glyph glyph-name="uni0218" unicode="&#x218;" horiz-adv-x="1284" 
d="M367 -539l22 105q125 21 148 98q-65 4 -99.5 37t-34.5 88q0 54 41.5 91.5t106.5 37.5q70 0 112 -50t42 -132q0 -114 -92.5 -191t-245.5 -84zM616 -35q-100 0 -189 16t-171 53t-140.5 92.5t-91.5 141.5t-30 193h358q-3 -109 71.5 -160t203.5 -51q65 0 115.5 14t85 50.5
t34.5 93.5q0 60 -61 98t-228 98q-86 30 -146 56.5t-117 63.5t-91 78.5t-54 98.5t-20 127q0 221 155 342t407 121q89 0 169.5 -14t155.5 -47.5t128.5 -83.5t83.5 -128.5t26 -177.5h-348q1 86 -59 132.5t-169 46.5q-50 0 -94 -13t-77 -46t-34 -81q0 -57 50 -86t211 -84
q35 -12 53 -18q102 -35 172.5 -70.5t131 -86t90.5 -119t30 -156.5q0 -121 -48.5 -216.5t-133 -155.5t-194 -91t-235.5 -31z" />
    <glyph glyph-name="uni0219" unicode="&#x219;" horiz-adv-x="1005" 
d="M207 -539l22 105q125 21 148 98q-65 4 -99 37t-34 88q0 54 41 91.5t106 37.5q70 0 112 -50t42 -132q0 -114 -92.5 -191t-245.5 -84zM469 -33q-77 0 -145 11.5t-131 38.5t-108.5 69t-74 107t-30.5 147h311q11 -154 184 -154q68 0 108 24.5t40 76.5q0 32 -29 55.5t-60 35
t-108 33.5q-8 2 -12.5 3.5t-11.5 3.5t-13 4q-73 21 -124.5 44t-97 58t-68.5 86.5t-23 118.5q0 166 125.5 258t326.5 92q89 0 166 -19t139 -58.5t100 -105.5t42 -153h-301q-6 57 -47.5 90t-110.5 33q-57 0 -98 -22t-41 -66q0 -43 63 -72q35 -16 162 -53q55 -15 97.5 -31
t88 -42t75 -57.5t48.5 -78.5t19 -104q0 -181 -122 -277t-339 -96z" />
    <glyph glyph-name="uni021A" unicode="&#x21a;" horiz-adv-x="1245" 
d="M285 -539l22 105q125 21 148 98q-65 4 -99 37t-34 88q0 54 41 91.5t106 37.5q70 0 112 -50t42 -132q0 -114 -92.5 -191t-245.5 -84zM340 0l225 1161h-411l57 303h1184l-58 -303h-415l-226 -1161h-356z" />
    <glyph glyph-name="uni021B" unicode="&#x21b;" horiz-adv-x="702" 
d="M59 -539l23 105q124 21 147 98q-65 4 -99 37t-34 88q0 54 41.5 91.5t106.5 37.5q70 0 111.5 -50t41.5 -132q0 -114 -92.5 -191t-245.5 -84zM401 -12q-177 0 -249 79t-39 244l102 529h-133l41 209h133l63 331h322l-66 -331h187l-41 -209h-186l-95 -490q-10 -61 9.5 -85.5
t78.5 -24.5q54 0 78 4l-47 -238q-52 -18 -158 -18z" />
    <glyph glyph-name="uni0237" unicode="&#x237;" horiz-adv-x="485" 
d="M-78 -352q-100 0 -176 20l43 232q40 -3 71 -1.5t53 10t36.5 28.5t21.5 55l207 1057h328l-211 -1090q-35 -168 -123 -240q-95 -71 -250 -71z" />
    <glyph glyph-name="circumflex" unicode="&#x2c6;" 
d="M258 1176l260 280h316l170 -280h-271l-69 135h-5l-112 -135h-289z" />
    <glyph glyph-name="caron" unicode="&#x2c7;" 
d="M477 1169l-170 283h271l69 -135h4l113 135h289l-260 -283h-316z" />
    <glyph glyph-name="uni02C9" unicode="&#x2c9;" 
d="M352 1202l41 205h578l-41 -205h-578z" />
    <glyph glyph-name="breve" unicode="&#x2d8;" 
d="M700 1159q-146 0 -230 80t-81 217h184q3 -44 36.5 -70t95.5 -26q59 0 98.5 27.5t50.5 68.5h184q-20 -137 -112 -217t-226 -80z" />
    <glyph glyph-name="dotaccent" unicode="&#x2d9;" 
d="M641 1495q77 0 128.5 -49t51.5 -125t-51.5 -125t-128.5 -49t-128.5 49t-51.5 125t51.5 125t128.5 49z" />
    <glyph glyph-name="ring" unicode="&#x2da;" 
d="M664 1143q-87 0 -148 58t-61 142q0 85 61.5 144t147.5 59q85 0 146.5 -59.5t61.5 -143.5t-61 -142t-147 -58zM664 1257q36 0 60 25t24 61t-24 62.5t-60 26.5q-37 0 -61.5 -26.5t-24.5 -62.5t24 -61t62 -25z" />
    <glyph glyph-name="ogonek" unicode="&#x2db;" 
d="M403 -362q-107 0 -169 43t-62 120q0 68 50 115t132 84h211q-116 -80 -116 -135q0 -45 53 -45q23 0 47 8h2l-33 -172q-49 -18 -115 -18z" />
    <glyph glyph-name="tilde" unicode="&#x2dc;" 
d="M768 1171q-49 0 -92.5 18t-77 36t-57.5 18q-25 0 -45 -19.5t-27 -54.5h-170q23 134 89.5 205.5t156.5 71.5q47 0 89.5 -19t75.5 -38t56 -19q54 0 74 72h168q-21 -125 -82 -198t-158 -73z" />
    <glyph glyph-name="hungarumlaut" unicode="&#x2dd;" 
d="M711 1171l131 304h317l-244 -304h-204zM317 1171l132 304h317l-244 -304h-205z" />
    <glyph glyph-name="pi" unicode="&#x3c0;" horiz-adv-x="1275" 
d="M977 -10q-59 0 -104.5 10t-82.5 32.5t-56 60.5t-25.5 93.5t10.5 130.5l100 525h-266l-162 -842h-319l161 842h-143l41 207h1198l-41 -207h-147l-99 -506q-13 -63 13 -84.5t94 -13.5l-45 -234q-61 -14 -127 -14z" />
    <glyph glyph-name="Wgrave" unicode="&#x1e80;" horiz-adv-x="1886" 
d="M1006 1536l-170 266h358l59 -266h-247zM301 0l-127 1464h356l29 -614q3 -65 3.5 -157.5t-0.5 -152.5l-1 -59h4q74 205 133 359l246 624h330l26 -622l7 -361h4q80 223 137 373l244 610h362l-641 -1464h-350l-31 705q-3 55 -4 125.5t0 113.5v43h-4q-49 -157 -98 -282
l-275 -705h-350z" />
    <glyph glyph-name="wgrave" unicode="&#x1e81;" horiz-adv-x="1574" 
d="M223 0l-123 1049h328l31 -435l8 -211h4q49 132 86 218l186 428h277l37 -428l12 -220h4q49 129 86 213l182 435h330l-491 -1049h-306l-43 477l-12 205h-4q-43 -121 -80 -205l-207 -477h-305zM772 1171l-199 304h359l88 -304h-248z" />
    <glyph glyph-name="Wacute" unicode="&#x1e82;" horiz-adv-x="1886" 
d="M1001 1536l127 266h371l-248 -266h-250zM301 0l-127 1464h356l29 -614q3 -65 3.5 -157.5t-0.5 -152.5l-1 -59h4q74 205 133 359l246 624h330l26 -622l7 -361h4q80 223 137 373l244 610h362l-641 -1464h-350l-31 705q-3 55 -4 125.5t0 113.5v43h-4q-49 -157 -98 -282
l-275 -705h-350z" />
    <glyph glyph-name="wacute" unicode="&#x1e83;" horiz-adv-x="1574" 
d="M772 1171l156 304h379l-283 -304h-252zM223 0l-123 1049h328l31 -435l8 -211h4q49 132 86 218l186 428h277l37 -428l12 -220h4q49 129 86 213l182 435h330l-491 -1049h-306l-43 477l-12 205h-4q-43 -121 -80 -205l-207 -477h-305z" />
    <glyph glyph-name="Wdieresis" unicode="&#x1e84;" horiz-adv-x="1886" 
d="M1364 1853q71 0 118.5 -45.5t47.5 -115.5q0 -69 -47.5 -114.5t-118.5 -45.5t-118.5 45.5t-47.5 114.5q0 70 47.5 115.5t118.5 45.5zM897 1853q71 0 118.5 -45.5t47.5 -115.5q0 -69 -47.5 -114.5t-118.5 -45.5t-118.5 45.5t-47.5 114.5q0 70 47.5 115.5t118.5 45.5zM301 0
l-127 1464h356l29 -614q3 -65 3.5 -157.5t-0.5 -152.5l-1 -59h4q74 205 133 359l246 624h330l26 -622l7 -361h4q80 223 137 373l244 610h362l-641 -1464h-350l-31 705q-3 55 -4 125.5t0 113.5v43h-4q-49 -157 -98 -282l-275 -705h-350z" />
    <glyph glyph-name="wdieresis" unicode="&#x1e85;" horiz-adv-x="1574" 
d="M1135 1468q71 0 118 -45.5t47 -115.5q0 -69 -47 -114.5t-118 -45.5t-118.5 45.5t-47.5 114.5q0 70 47.5 115.5t118.5 45.5zM680 1468q71 0 118.5 -45.5t47.5 -115.5q0 -69 -47.5 -114.5t-118.5 -45.5t-118.5 45.5t-47.5 114.5q0 70 47.5 115.5t118.5 45.5zM223 0
l-123 1049h328l31 -435l8 -211h4q49 132 86 218l186 428h277l37 -428l12 -220h4q49 129 86 213l182 435h330l-491 -1049h-306l-43 477l-12 205h-4q-43 -121 -80 -205l-207 -477h-305z" />
    <glyph glyph-name="Ygrave" unicode="&#x1ef2;" horiz-adv-x="1308" 
d="M369 0l104 547l-297 917h375l106 -372q13 -44 26 -101t19 -92l7 -35h4q71 121 139 223l254 377h387l-664 -929l-102 -535h-358zM719 1536l-170 266h358l60 -266h-248z" />
    <glyph glyph-name="ygrave" unicode="&#x1ef3;" horiz-adv-x="1067" 
d="M-31 -346l51 258h111q154 0 154 149q0 49 -27 181l-160 807h342l58 -443q6 -45 12 -108.5t9 -104.5l3 -41h4q54 144 103 248l207 449h329l-553 -1102q-78 -155 -174.5 -224t-247.5 -69h-221zM528 1171l-198 304h358l88 -304h-248z" />
    <glyph glyph-name="uni2009" unicode="&#x2009;" horiz-adv-x="194" 
 />
    <glyph glyph-name="endash" unicode="&#x2013;" horiz-adv-x="1148" 
d="M57 381l56 283h974l-55 -283h-975z" />
    <glyph glyph-name="emdash" unicode="&#x2014;" horiz-adv-x="1880" 
d="M57 381l56 283h1706l-56 -283h-1706z" />
    <glyph glyph-name="quoteleft" unicode="&#x2018;" horiz-adv-x="438" 
d="M322 893q-80 0 -128.5 55.5t-48.5 141.5q0 163 108.5 267.5t276.5 112.5l-28 -135q-124 -21 -166 -127q71 -3 109 -45t38 -108q0 -71 -45.5 -116.5t-115.5 -45.5z" />
    <glyph glyph-name="quoteright" unicode="&#x2019;" horiz-adv-x="438" 
d="M145 899l29 135q124 21 166 127q-71 3 -109 45.5t-38 108.5q0 71 45.5 116.5t115.5 45.5q80 0 128 -55.5t48 -141.5q0 -164 -108.5 -268.5t-276.5 -112.5z" />
    <glyph glyph-name="quotesinglbase" unicode="&#x201a;" horiz-adv-x="438" 
d="M-78 -260l29 135q124 21 166 127q-71 3 -109.5 45.5t-38.5 108.5q0 71 46 116t116 45q80 0 128 -55t48 -141q0 -164 -108.5 -268.5t-276.5 -112.5z" />
    <glyph glyph-name="quotedblleft" unicode="&#x201c;" horiz-adv-x="862" 
d="M322 891q-81 0 -129 55t-48 141q0 164 108.5 268.5t276.5 112.5l-28 -135q-124 -21 -166 -127q71 -3 109 -45t38 -108q0 -71 -45.5 -116.5t-115.5 -45.5zM745 891q-80 0 -128 55t-48 141q0 164 108.5 268.5t276.5 112.5l-28 -135q-124 -21 -166 -127q71 -3 109 -45
t38 -108q0 -71 -46 -116.5t-116 -45.5z" />
    <glyph glyph-name="quotedblright" unicode="&#x201d;" horiz-adv-x="862" 
d="M569 899l29 135q124 21 166 127q-71 3 -109.5 45.5t-38.5 108.5q0 71 46 116.5t116 45.5q80 0 128 -55.5t48 -141.5q0 -164 -108.5 -268.5t-276.5 -112.5zM145 899l29 135q124 21 166 127q-71 3 -109 45.5t-38 108.5q0 71 45.5 116.5t115.5 45.5q80 0 128 -55.5
t48 -141.5q0 -164 -108.5 -268.5t-276.5 -112.5z" />
    <glyph glyph-name="quotedblbase" unicode="&#x201e;" horiz-adv-x="862" 
d="M-78 -260l29 135q124 21 166 127q-71 3 -109.5 45.5t-38.5 108.5q0 71 46 116t116 45q80 0 128 -55t48 -141q0 -164 -108.5 -268.5t-276.5 -112.5zM346 -260l29 135q124 21 166 127q-71 3 -109.5 45.5t-38.5 108.5q0 71 46 116t116 45q80 0 128 -55t48 -141
q0 -164 -108.5 -268.5t-276.5 -112.5z" />
    <glyph glyph-name="dagger" unicode="&#x2020;" horiz-adv-x="1187" 
d="M264 -293l207 1075h-354l53 271h354l80 411h340l-78 -411h355l-54 -271h-354l-209 -1075h-340z" />
    <glyph glyph-name="daggerdbl" unicode="&#x2021;" horiz-adv-x="1187" 
d="M264 -293l78 412h-354l53 272h356l74 391h-354l53 271h354l80 411h340l-78 -411h355l-54 -271h-354l-76 -391h357l-54 -272h-356l-80 -412h-340z" />
    <glyph glyph-name="bullet" unicode="&#x2022;" horiz-adv-x="753" 
d="M399 348q-126 0 -216.5 90.5t-90.5 216.5t90.5 217t216.5 91t217 -91t91 -217t-91 -216.5t-217 -90.5z" />
    <glyph glyph-name="ellipsis" unicode="&#x2026;" horiz-adv-x="1523" 
d="M694 365q84 0 138.5 -53t54.5 -134q0 -82 -55 -135t-138 -53t-136.5 53t-53.5 135t53.5 134.5t136.5 52.5zM168 365q83 0 137.5 -52.5t54.5 -134.5t-54.5 -135t-137.5 -53t-137 53t-54 135t54 134.5t137 52.5zM1219 365q83 0 137.5 -52.5t54.5 -134.5t-54.5 -135
t-137.5 -53t-137 53t-54 135t54 134.5t137 52.5z" />
    <glyph glyph-name="perthousand" unicode="&#x2030;" horiz-adv-x="2525" 
d="M453 612q-153 0 -242.5 94.5t-89.5 243.5q0 130 50 239.5t146.5 177t219.5 67.5q151 0 241 -92t90 -246q0 -130 -49 -239.5t-145 -177t-221 -67.5zM279 0l1038 1405h194l-1038 -1405h-194zM463 788q42 0 74.5 33t51 85t27.5 107t9 107q0 61 -23.5 100.5t-73.5 39.5
q-42 0 -74.5 -33t-51 -84t-28 -105.5t-9.5 -105.5q0 -144 98 -144zM2050 -35q-153 0 -242.5 94.5t-89.5 243.5q0 97 29.5 184.5t82.5 154t132 105.5t172 39q151 0 241.5 -91.5t90.5 -243.5q0 -97 -29 -185t-81.5 -155t-132 -106.5t-173.5 -39.5zM1249 -35q-151 0 -240 94.5
t-89 243.5q0 130 49.5 239.5t145 176.5t218.5 67q152 0 243 -91.5t91 -243.5q0 -130 -49.5 -240t-146 -178t-222.5 -68zM2060 141q42 0 74.5 33t51 85t27.5 107t9 107q0 62 -23 101.5t-73 39.5q-42 0 -75 -33t-51.5 -84.5t-28 -106t-9.5 -105.5q0 -144 98 -144zM1260 141
q42 0 74.5 33t50.5 85t27 107t9 107q0 141 -96 141q-42 0 -75 -33t-51.5 -84.5t-28 -106t-9.5 -105.5q0 -144 99 -144z" />
    <glyph glyph-name="uni2032" unicode="&#x2032;" horiz-adv-x="448" 
d="M113 913l194 551h285l-195 -551h-284z" />
    <glyph glyph-name="uni2033" unicode="&#x2033;" horiz-adv-x="856" 
d="M520 913l193 551h286l-194 -551h-285zM113 913l194 551h285l-195 -551h-284z" />
    <glyph glyph-name="guilsinglleft" unicode="&#x2039;" horiz-adv-x="534" 
d="M344 70l-289 297l62 313l399 281l-61 -316l-201 -139v-4l147 -140z" />
    <glyph glyph-name="guilsinglright" unicode="&#x203a;" horiz-adv-x="534" 
d="M12 70l62 315l200 139v4l-147 140l57 293l289 -297l-61 -314z" />
    <glyph glyph-name="fraction" unicode="&#x2044;" horiz-adv-x="573" 
d="M-426 0l1296 1464h205l-1294 -1464h-207z" />
    <glyph glyph-name="Euro" unicode="&#x20ac;" horiz-adv-x="1312" 
d="M1300 498q-52 -253 -211.5 -392t-396.5 -139q-246 0 -393.5 139t-159.5 396h-112l24 131h90q6 61 15 117h-82l24 131h88q80 257 263.5 405t400.5 148q248 0 376 -130t128 -374h-330q1 47 -7.5 86t-28.5 73t-58.5 53t-93.5 19q-93 0 -172 -72t-125 -208h325l-24 -131h-334
q-6 -40 -14 -117h325l-24 -131h-306q10 -260 215 -260q98 -1 168 67t101 189h329z" />
    <glyph glyph-name="uni2113" unicode="&#x2113;" horiz-adv-x="808" 
d="M387 -10q-377 0 -309 344l4 22q-40 -10 -100 -20l38 196q11 3 47.5 13t55.5 16l119 608q65 312 370 312q143 0 215 -68t72 -211q0 -224 -128.5 -409.5t-350.5 -307.5l-19 -98q-14 -75 10 -109t93 -34q18 0 108 10l-47 -244q-103 -20 -178 -20zM553 1163l-82 -424l37 37
q76 78 120 205.5t44 222.5q0 68 -47 68q-27 0 -43.5 -25t-28.5 -84z" />
    <glyph glyph-name="trademark" unicode="&#x2122;" horiz-adv-x="1409" 
d="M291 901l82 416h-156l27 147h493l-28 -147h-158l-80 -416h-180zM705 901l108 563h244l26 -317h4l148 317h246l-109 -563h-164l66 338h-4l-170 -338h-129l-35 338h-4l-66 -338h-161z" />
    <glyph glyph-name="Omega" unicode="&#x2126;" horiz-adv-x="1492" 
d="M-41 0l53 270h228v6q-75 55 -118.5 157.5t-43.5 221.5q0 165 56 316t156 267t251 185.5t329 69.5q129 0 242 -38.5t200.5 -111.5t138 -188.5t50.5 -259.5q0 -201 -77 -363.5t-226 -255.5v-6h191l-54 -270h-622l49 262q76 9 140 52t106.5 106t72 142.5t43 159.5t13.5 159
q-2 146 -72.5 232.5t-220.5 86.5q-90 0 -163 -38.5t-119.5 -100t-78 -143t-44.5 -164.5t-13 -168q0 -271 195 -324l-52 -262h-610z" />
    <glyph glyph-name="estimated" unicode="&#x212e;" horiz-adv-x="1302" 
d="M698 -23q-289 0 -453.5 180.5t-164.5 475.5q0 287 170.5 469t437.5 182q223 0 363 -121q109 -91 153.5 -225t42.5 -322h-848v-454q117 -86 299 -86q177 0 280 77.5t157 227.5h104q-42 -183 -180.5 -293.5t-360.5 -110.5zM399 707h537v419q-107 66 -248 66
q-176 0 -289 -88v-397z" />
    <glyph glyph-name="onethird" unicode="&#x2153;" horiz-adv-x="1705" 
d="M238 651l94 482h-182l30 163q207 10 269 177h192l-160 -822h-243zM78 0l1296 1464h205l-1294 -1464h-207zM1264 -20q-152 0 -250.5 77t-95.5 219h225q0 -58 31.5 -91t91.5 -33q51 0 82.5 27t31.5 75q0 90 -116 90h-50l31 152h55q53 0 86 22.5t33 65.5q0 39 -26.5 59.5
t-67.5 20.5q-50 0 -82 -29.5t-43 -75.5h-219q21 120 118.5 195t241.5 75q132 0 218.5 -58.5t85.5 -166.5q-1 -64 -41 -111.5t-103 -70.5v-2q51 -23 82 -66.5t31 -103.5q0 -87 -52 -150t-129.5 -91.5t-168.5 -28.5z" />
    <glyph glyph-name="twothirds" unicode="&#x2154;" horiz-adv-x="1878" 
d="M78 651q28 181 184 291q43 31 87 57.5t102.5 57.5t76.5 41q47 28 68.5 54.5t21.5 68.5q0 36 -22 56.5t-61 20.5q-51 0 -86.5 -37.5t-49.5 -105.5h-223q23 157 126.5 241.5t254.5 84.5q124 0 210.5 -62t86.5 -178q0 -146 -149 -246q-44 -32 -141 -81t-128 -76h352
l-36 -187h-674zM1436 -20q-152 0 -250.5 77t-95.5 219h225q0 -58 31.5 -91t91.5 -33q51 0 82.5 27t31.5 75q0 90 -116 90h-50l31 152h56q53 0 85.5 22.5t32.5 65.5q0 39 -26.5 59.5t-67.5 20.5q-50 0 -82 -29.5t-43 -75.5h-219q21 120 118.5 195t241.5 75q132 0 218.5 -58.5
t85.5 -166.5q-1 -64 -41 -111.5t-103 -70.5v-2q51 -23 82 -66.5t31 -103.5q0 -87 -52 -150t-129.5 -91.5t-168.5 -28.5zM283 0l1296 1464h205l-1295 -1464h-206z" />
    <glyph glyph-name="oneeighth" unicode="&#x215b;" horiz-adv-x="1716" 
d="M238 651l94 482h-182l30 163q207 10 269 177h192l-160 -822h-243zM82 0l1296 1464h205l-1294 -1464h-207zM1262 -20q-67 0 -127 13t-110.5 40t-80 74t-29.5 108q0 160 185 221v4q-42 24 -64 63t-22 83q0 51 20.5 92.5t53.5 69t76.5 46.5t88.5 27t90 8q66 0 122 -12
t102 -37t71.5 -68t24.5 -100q-3 -129 -139 -188v-4q114 -52 114 -174q0 -70 -32.5 -123.5t-87.5 -83.5t-119.5 -44.5t-136.5 -14.5zM1331 496q47 0 79 26t32 70q0 45 -29 68.5t-72 23.5q-46 0 -77 -28.5t-31 -71.5t27.5 -65.5t70.5 -22.5zM1272 139q56 0 93.5 32t37.5 87
q0 48 -34.5 74t-84.5 26q-55 0 -93 -30.5t-38 -85.5q0 -49 36 -76t83 -27z" />
    <glyph glyph-name="threeeighths" unicode="&#x215c;" horiz-adv-x="1818" 
d="M453 633q-152 0 -249.5 76.5t-94.5 218.5h225q0 -59 30.5 -92t90.5 -33q51 0 82.5 27t31.5 75q0 90 -114 90h-49l30 152h53q53 0 86 22.5t33 65.5q0 39 -26.5 59.5t-67.5 20.5q-50 0 -82 -29.5t-43 -75.5h-219q22 121 119.5 196t242.5 75q130 0 217 -59t87 -167
q-1 -64 -41.5 -111.5t-104.5 -70.5v-2q51 -24 83 -67t32 -103q0 -87 -52.5 -149.5t-130.5 -90.5t-169 -28zM215 0l1296 1464h205l-1294 -1464h-207zM1366 -20q-67 0 -127 13t-110 40t-79.5 74t-29.5 108q0 160 184 221v4q-42 24 -64 63t-22 83q0 51 20.5 92.5t54 69t77 46.5
t88.5 27t90 8q89 0 159 -20.5t116 -71t44 -125.5q-3 -129 -139 -188v-4q115 -53 115 -174q0 -70 -32.5 -123.5t-87.5 -83.5t-120 -44.5t-137 -14.5zM1436 496q47 0 78.5 26t31.5 70q0 45 -28.5 68.5t-71.5 23.5q-46 0 -77.5 -28.5t-31.5 -71.5q0 -42 28 -65t71 -23z
M1376 139q56 0 93.5 32t37.5 87q0 48 -34.5 74t-83.5 26q-56 0 -94 -30.5t-38 -85.5q0 -49 36 -76t83 -27z" />
    <glyph glyph-name="fiveeighths" unicode="&#x215d;" horiz-adv-x="1792" 
d="M438 633q-143 0 -236.5 70t-99.5 190h220q7 -42 38.5 -65t79.5 -23q58 0 92.5 38.5t34.5 100.5q0 52 -28 80.5t-74 28.5q-75 0 -115 -52h-194l139 463h532l-34 -176h-363l-41 -137h2q74 55 166 55q112 0 178 -69.5t66 -182.5q0 -153 -103.5 -237t-259.5 -84zM180 0
l1297 1464h204l-1294 -1464h-207zM1339 -20q-67 0 -127 13t-110 40t-79.5 74t-29.5 108q0 160 185 221v4q-42 24 -64 63t-22 83q0 51 20.5 92.5t53.5 69t76.5 46.5t88.5 27t90 8q66 0 122 -12t102 -37t71.5 -68t24.5 -100q-3 -129 -139 -188v-4q114 -52 114 -174
q0 -70 -32.5 -123.5t-87.5 -83.5t-120 -44.5t-137 -14.5zM1409 496q47 0 79 26t32 70q0 45 -29 68.5t-72 23.5q-46 0 -77 -28.5t-31 -71.5t27.5 -65.5t70.5 -22.5zM1350 139q56 0 93.5 32t37.5 87q0 48 -34.5 74t-84.5 26q-55 0 -93 -30.5t-38 -85.5q0 -49 36 -76t83 -27z
" />
    <glyph glyph-name="seveneighths" unicode="&#x215e;" horiz-adv-x="1675" 
d="M35 0l1296 1464h205l-1294 -1464h-207zM1223 -20q-67 0 -127 13t-110 40t-79.5 74t-29.5 108q0 160 184 221v4q-42 24 -64 63t-22 83q0 51 20.5 92.5t54 69t77 46.5t88.5 27t90 8q89 0 159 -20.5t116 -71t44 -125.5q-3 -129 -139 -188v-4q114 -52 114 -174
q0 -70 -32.5 -123.5t-87.5 -83.5t-119.5 -44.5t-136.5 -14.5zM1292 496q47 0 79 26t32 70q0 45 -28.5 68.5t-71.5 23.5q-46 0 -77.5 -28.5t-31.5 -71.5t27.5 -65.5t70.5 -22.5zM1233 139q56 0 93.5 32t37.5 87q0 48 -34.5 74t-84.5 26q-55 0 -93 -30.5t-38 -85.5
q0 -49 36 -76t83 -27zM190 651q43 191 147 349t238 270v2h-391l37 192h631l-35 -172q-132 -110 -231 -276t-140 -365h-256z" />
    <glyph glyph-name="partialdiff" unicode="&#x2202;" horiz-adv-x="1187" 
d="M559 -31q-245 0 -378.5 129.5t-133.5 341.5q0 232 141.5 378.5t364.5 146.5q157 0 238 -78q-63 260 -480 309v283q410 -20 622 -232.5t212 -603.5q0 -320 -147.5 -497t-438.5 -177zM563 207q110 0 170 91t60 220q0 105 -48 160t-133 55q-104 0 -167.5 -78.5t-63.5 -214.5
q0 -116 48 -174.5t134 -58.5z" />
    <glyph glyph-name="Delta" unicode="&#x2206;" horiz-adv-x="1363" 
d="M-59 0l43 225l671 1239h365l242 -1237l-43 -227h-1278zM354 270h551l-100 615q-6 36 -13 93t-10 96l-4 40h-2q-61 -145 -100 -219z" />
    <glyph glyph-name="product" unicode="&#x220f;" horiz-adv-x="1533" 
d="M178 -205v1669h1256v-1669h-357v1372h-542v-1372h-357z" />
    <glyph glyph-name="summation" unicode="&#x2211;" horiz-adv-x="1361" 
d="M156 -205v297l516 553v4l-516 529v286h1106v-282h-699v-4l457 -453v-143l-471 -492v-4h733v-291h-1126z" />
    <glyph glyph-name="minus" unicode="&#x2212;" horiz-adv-x="1140" 
d="M82 543l53 264h979l-51 -264h-981z" />
    <glyph glyph-name="uni2215" unicode="&#x2215;" horiz-adv-x="573" 
d="M-426 0l1296 1464h205l-1294 -1464h-207z" />
    <glyph glyph-name="uni2219" unicode="&#x2219;" horiz-adv-x="473" 
d="M260 844q84 0 138.5 -53t54.5 -134q0 -82 -55 -135t-138 -53t-136.5 53t-53.5 135t53.5 134.5t136.5 52.5z" />
    <glyph glyph-name="radical" unicode="&#x221a;" horiz-adv-x="1273" 
d="M471 -205l-266 615h-154v282h383l101 -254q21 -53 40.5 -110t28.5 -88l10 -31h4q25 112 64 231l330 1024h331l-550 -1669h-322z" />
    <glyph glyph-name="infinity" unicode="&#x221e;" horiz-adv-x="1484" 
d="M389 244q-157 0 -245.5 108.5t-88.5 272.5q0 163 89 272t245 109q62 0 116 -16t98.5 -48t80.5 -69.5t74 -90.5q78 110 159.5 167t196.5 57q149 0 242.5 -104.5t93.5 -276.5q0 -173 -93.5 -277t-242.5 -104q-116 0 -197 56t-159 165q-52 -71 -100 -116t-117.5 -75
t-151.5 -30zM1087 485q55 0 83 39t28 101q0 60 -28 98.5t-83 38.5q-48 0 -85.5 -36.5t-75.5 -102.5q39 -65 76 -101.5t85 -36.5zM418 485q51 0 90.5 37t77.5 101q-38 65 -77.5 102t-90.5 37q-54 0 -81.5 -38t-27.5 -99q0 -62 27.5 -101t81.5 -39z" />
    <glyph glyph-name="integral" unicode="&#x222b;" horiz-adv-x="747" 
d="M199 -360q-112 0 -195 22v246h4q50 -8 90 -8q66 0 95.5 22.5t29.5 83.5v1170q0 169 78 254q47 47 114 67.5t169 20.5q99 0 192 -21v-248h-4q-42 11 -86 11q-68 0 -98.5 -22.5t-30.5 -84.5v-1171q0 -171 -78 -252q-47 -47 -113.5 -68.5t-166.5 -21.5z" />
    <glyph glyph-name="approxequal" unicode="&#x2248;" horiz-adv-x="1099" 
d="M100 684q21 177 102.5 260.5t209.5 83.5q75 0 224 -33.5t187 -33.5q37 0 54.5 15.5t23.5 51.5h217q-39 -334 -297 -334q-83 0 -234 33t-188 33q-63 0 -84 -76h-215zM35 256q18 176 99 261t208 85q76 0 225 -35t187 -35q37 0 54.5 16.5t25.5 51.5h215q-40 -334 -297 -334
q-82 0 -233 33t-189 33q-64 0 -82 -76h-213z" />
    <glyph glyph-name="notequal" unicode="&#x2260;" horiz-adv-x="1134" 
d="M995 289h-501l-103 -170h-207l103 170h-238l51 256h338l107 178h-412l51 256h514l105 174h207l-105 -174h223l-49 -256h-327l-107 -178h399z" />
    <glyph glyph-name="lessequal" unicode="&#x2264;" horiz-adv-x="1011" 
d="M866 266l-776 289l62 311l882 273l-51 -273l-395 -114l-205 -52v-4q114 -28 186 -51l349 -113zM-16 0l45 229h829l-43 -229h-831z" />
    <glyph glyph-name="greaterequal" unicode="&#x2265;" horiz-adv-x="1011" 
d="M43 266l53 275l393 112l205 54v4q-112 26 -184 49l-348 112l51 267l774 -289l-59 -311zM-8 0l45 229h829l-43 -229h-831z" />
    <glyph glyph-name="uni24C5" unicode="&#x24c5;" horiz-adv-x="1658" 
d="M868 -35q-209 0 -381 98.5t-272 273.5t-100 390q0 161 58.5 303.5t159 243t240 159t295.5 58.5q209 0 381.5 -99t272.5 -274.5t100 -390.5t-100 -390t-272.5 -273.5t-381.5 -98.5zM868 72q177 0 321 85t226 235t82 335q0 139 -48.5 261.5t-131.5 209t-200 136.5t-249 50
q-177 0 -320.5 -85t-225.5 -235.5t-82 -336.5q0 -185 82 -335t225.5 -235t320.5 -85zM555 297v848h395q149 0 236 -80q90 -81 90 -215q0 -122 -81 -202.5t-208 -80.5h-194v-270h-238zM793 748h137q51 0 79.5 27.5t28.5 74.5q0 48 -28.5 75t-81.5 27h-135v-204z" />
    <glyph glyph-name="lozenge" unicode="&#x25ca;" horiz-adv-x="1220" 
d="M483 0l-413 733l411 731h330l414 -733l-412 -731h-330zM647 285h4l232 440l-236 457h-4l-231 -445z" />
    <glyph glyph-name="zero.denominator" unicode="&#xe402;" horiz-adv-x="829" 
d="M358 -18q-156 0 -252 89t-96 253q0 97 30.5 187t85 161t138 114t182.5 43q151 0 245.5 -90.5t94.5 -253.5q0 -98 -29 -187.5t-82 -160.5t-135.5 -113t-181.5 -42zM365 158q49 1 87 36.5t58 90t29.5 109.5t9.5 106q0 162 -111 162q-49 0 -87.5 -37.5t-59 -94.5t-31 -114
t-10.5 -107q0 -151 115 -151z" />
    <glyph glyph-name="one.denominator" unicode="&#xe403;" horiz-adv-x="536" 
d="M100 0l95 481h-183l33 164q204 9 268 176h193l-160 -821h-246z" />
    <glyph glyph-name="two.denominator" unicode="&#xe404;" horiz-adv-x="755" 
d="M-59 0q17 102 65 170.5t121 120.5q43 31 87.5 57.5t101.5 56.5t77 41q47 28 68.5 54.5t21.5 68.5q0 36 -22.5 57t-61.5 21q-51 0 -86 -37.5t-49 -105.5h-223q23 157 126.5 241t254.5 84q124 0 210.5 -61.5t86.5 -177.5q0 -145 -150 -246q-44 -32 -140 -81.5t-128 -76.5
h352l-37 -186h-675z" />
    <glyph glyph-name="three.denominator" unicode="&#xe405;" horiz-adv-x="759" 
d="M326 -20q-152 0 -250.5 77t-95.5 219h225q0 -58 31.5 -91t91.5 -33q51 0 82.5 27t31.5 75q0 90 -116 90h-50l31 152h55q53 0 86 22.5t33 65.5q0 39 -26.5 59.5t-67.5 20.5q-50 0 -82 -29.5t-43 -75.5h-219q21 120 118.5 195t241.5 75q132 0 218.5 -58.5t85.5 -166.5
q-1 -64 -41 -111.5t-103 -70.5v-2q51 -23 82 -66.5t31 -103.5q0 -87 -52 -150t-129.5 -91.5t-168.5 -28.5z" />
    <glyph glyph-name="four.denominator" unicode="&#xe406;" horiz-adv-x="798" 
d="M182 336h207l49 252h-2l-254 -248v-4zM707 172h-119l-33 -172h-231l32 172h-387l37 190l471 459h238l-97 -485h121z" />
    <glyph glyph-name="five.denominator" unicode="&#xe407;" horiz-adv-x="747" 
d="M309 -20q-142 0 -236 71t-100 191h220q19 -88 118 -88q59 0 94 38.5t35 100.5q0 52 -29 80t-75 28q-74 0 -113 -51h-196l141 463h532l-36 -176h-361l-43 -137h4q70 55 166 55q110 0 177 -69.5t67 -182.5q0 -153 -104.5 -238t-260.5 -85z" />
    <glyph glyph-name="six.denominator" unicode="&#xe408;" horiz-adv-x="763" 
d="M338 -18q-154 0 -244.5 88t-89.5 249q0 114 40.5 225.5t123.5 184.5q109 100 270 100q123 0 202.5 -55.5t92.5 -171.5h-225q-9 70 -82 70q-60 0 -108 -55t-72 -146h2q74 80 190 80q107 0 180.5 -64.5t73.5 -179.5q0 -146 -100.5 -235.5t-253.5 -89.5zM340 147
q54 0 91.5 38.5t37.5 99.5q0 50 -29.5 80t-81.5 30q-55 0 -93 -39.5t-38 -101.5q0 -49 31 -78t82 -29z" />
    <glyph glyph-name="seven.denominator" unicode="&#xe409;" horiz-adv-x="706" 
d="M63 0q43 191 146.5 349t236.5 269v3h-389l37 192h629l-33 -172q-133 -110 -232 -276.5t-139 -364.5h-256z" />
    <glyph glyph-name="eight.denominator" unicode="&#xe40a;" horiz-adv-x="776" 
d="M324 -20q-67 0 -127 13t-110.5 40t-80 74t-29.5 108q0 160 185 221v4q-42 24 -64 63t-22 83q0 51 20.5 92.5t54 69t77 46.5t88.5 27t90 8q89 0 159 -20.5t116 -71t44 -125.5q-3 -129 -139 -188v-4q114 -52 114 -174q0 -70 -32.5 -123.5t-87.5 -83.5t-119.5 -44.5
t-136.5 -14.5zM393 496q47 0 79 26t32 70q0 45 -29 68.5t-72 23.5q-46 0 -77 -28.5t-31 -71.5t27.5 -65.5t70.5 -22.5zM334 139q56 0 93.5 32t37.5 87q0 48 -34.5 74t-84.5 26q-55 0 -93 -30.5t-38 -85.5q0 -49 36 -76t83 -27z" />
    <glyph glyph-name="nine.denominator" unicode="&#xe40b;" horiz-adv-x="768" 
d="M362 414q55 0 93.5 40.5t38.5 102.5q0 49 -30 78t-81 29q-56 0 -94.5 -38.5t-38.5 -99.5q0 -51 30 -81.5t82 -30.5zM285 -20q-126 0 -211.5 58.5t-96.5 172.5h228q10 -72 92 -72q65 0 111.5 50t66.5 149h-2q-79 -82 -188 -82q-110 0 -184 67t-74 183q0 143 102 233
t258 90q153 0 241.5 -84.5t88.5 -246.5q0 -114 -36.5 -226.5t-111.5 -185.5q-103 -106 -284 -106z" />
    <glyph glyph-name="zero.numerator" unicode="&#xe416;" horiz-adv-x="829" 
d="M479 633q-156 0 -252 89t-96 253q0 97 30.5 187.5t85 161.5t138 114t182.5 43q151 0 245.5 -90.5t94.5 -253.5q0 -98 -29 -188t-82 -160.5t-135.5 -113t-181.5 -42.5zM485 809q49 1 87 36.5t58 90t30 109.5t10 106q0 162 -111 162q-49 0 -87.5 -37t-59 -94t-31 -114
t-10.5 -107q0 -152 114 -152z" />
    <glyph glyph-name="one.numerator" unicode="&#xe417;" horiz-adv-x="536" 
d="M227 651l95 482h-183l31 163q206 9 268 177h193l-160 -822h-244z" />
    <glyph glyph-name="two.numerator" unicode="&#xe418;" horiz-adv-x="755" 
d="M63 651q28 180 185 291q43 31 87 57.5t102.5 57.5t76.5 41q47 28 68.5 54.5t21.5 68.5q0 36 -22.5 56.5t-61.5 20.5q-51 0 -86 -37.5t-49 -105.5h-223q23 157 126.5 241.5t254.5 84.5q124 0 210.5 -62t86.5 -178q0 -145 -150 -246q-44 -32 -140.5 -81t-127.5 -76h352
l-37 -187h-674z" />
    <glyph glyph-name="three.numerator" unicode="&#xe419;" horiz-adv-x="759" 
d="M446 633q-152 0 -249.5 76.5t-94.5 218.5h226q0 -59 30.5 -92t90.5 -33q51 0 82.5 27t31.5 75q0 90 -114 90h-50l31 152h53q53 0 86 22.5t33 65.5q0 39 -26.5 59.5t-67.5 20.5q-50 0 -82 -29.5t-43 -75.5h-219q22 121 119.5 196t242.5 75q130 0 216.5 -59t86.5 -167
q-1 -64 -41 -111.5t-104 -70.5v-2q51 -24 83 -67t32 -103q0 -87 -53 -149.5t-131 -90.5t-169 -28z" />
    <glyph glyph-name="four.numerator" unicode="&#xe41a;" horiz-adv-x="798" 
d="M305 987h207l49 252h-4l-252 -248v-4zM827 823h-118l-33 -172h-230l33 172h-387l37 191l471 459h236l-95 -486h119z" />
    <glyph glyph-name="five.numerator" unicode="&#xe41b;" horiz-adv-x="747" 
d="M432 633q-143 0 -236.5 70t-99.5 190h219q7 -42 39 -65t80 -23q58 0 92.5 38.5t34.5 100.5q0 52 -28 80.5t-74 28.5q-75 0 -115 -52h-194l139 463h532l-35 -176h-362l-41 -137h2q74 55 166 55q112 0 178 -69.5t66 -182.5q0 -153 -103.5 -237t-259.5 -84z" />
    <glyph glyph-name="six.numerator" unicode="&#xe41c;" horiz-adv-x="763" 
d="M459 633q-154 0 -244 88.5t-90 249.5q0 113 41 224t123 185q58 51 122 76t150 25q121 0 200.5 -56t92.5 -172h-223q-9 70 -82 70q-61 0 -109.5 -55.5t-70.5 -145.5h2q74 80 188 80q107 0 181.5 -64.5t74.5 -179.5q0 -146 -100.5 -235.5t-255.5 -89.5zM461 799
q55 0 93 37.5t38 99.5q0 50 -30 80.5t-83 30.5q-55 0 -92 -40t-37 -102q0 -49 30 -77.5t81 -28.5z" />
    <glyph glyph-name="seven.numerator" unicode="&#xe41d;" horiz-adv-x="706" 
d="M184 651q43 191 147 349t238 270v2h-391l37 192h631l-35 -172q-132 -110 -231 -276t-140 -365h-256z" />
    <glyph glyph-name="eight.numerator" unicode="&#xe41e;" horiz-adv-x="776" 
d="M446 633q-68 0 -128 13t-110 39.5t-79 73t-29 107.5q0 159 183 221v5q-40 24 -62 62.5t-22 82.5q0 51 20 93t53 69.5t76.5 46t88.5 27t91 8.5q66 0 122 -12t101.5 -37t71.5 -68t25 -100q-1 -67 -40 -114.5t-101 -74.5v-4q114 -51 114 -174q0 -70 -32.5 -123t-87.5 -82.5
t-119 -44t-136 -14.5zM514 1147q49 0 81 26t32 70t-29.5 68t-71.5 24q-46 0 -77 -28.5t-31 -71.5t26.5 -65.5t69.5 -22.5zM455 791q57 0 94 31.5t37 86.5q0 48 -34.5 74.5t-82.5 26.5q-56 0 -94.5 -31t-38.5 -86q0 -49 36 -75.5t83 -26.5z" />
    <glyph glyph-name="nine.numerator" unicode="&#xe41f;" horiz-adv-x="768" 
d="M485 1065q54 0 91.5 40.5t37.5 102.5q0 50 -29 78.5t-81 28.5q-55 0 -93 -38.5t-38 -98.5q-2 -51 28 -82t84 -31zM408 633q-83 0 -147.5 23t-108.5 76t-52 130h226q13 -71 94 -71q65 0 111.5 50t64.5 148h-2q-79 -82 -186 -82q-111 0 -186 67t-75 183q0 143 102.5 233.5
t258.5 90.5q153 0 242.5 -85t89.5 -247q0 -114 -36.5 -226.5t-111.5 -185.5q-104 -104 -284 -104z" />
    <glyph glyph-name="R.alt" unicode="&#xe491;" horiz-adv-x="1355" 
d="M514 801h260q103 0 167.5 49t64.5 156q0 74 -46.5 114.5t-132.5 40.5h-243zM358 0h-362l283 1464h577q271 0 399 -131q113 -116 113 -295q0 -172 -93.5 -294.5t-250.5 -180.5l225 -563h-379l-192 520h-219z" />
    <glyph glyph-name="a.alt" unicode="&#xe4c0;" horiz-adv-x="1087" 
d="M440 186q85 0 142.5 46.5t76.5 132.5l25 129q-61 -30 -178 -48q-6 -1 -28.5 -4.5t-31.5 -5t-29 -6t-30 -9t-25.5 -12t-23.5 -17t-17 -22t-12.5 -29t-3.5 -36.5q0 -59 36.5 -89t98.5 -30zM317 -27q-144 0 -236.5 80t-92.5 223q0 75 22.5 132.5t61.5 95.5t99 64t127 38.5
t153 18.5q54 4 87 7.5t68 9.5t54 14.5t35.5 22t23 32t6.5 43.5q0 46 -33.5 73t-97.5 27q-152 0 -186 -137h-306q30 169 158 264.5t350 95.5q218 0 326 -92q137 -113 92 -338l-76 -383q-6 -37 8.5 -51t49.5 -8h6l-37 -195q-58 -28 -139 -28q-100 0 -145 34t-64 107h-2
q-53 -72 -133.5 -111t-178.5 -39z" />
    <glyph glyph-name="uniF8FF" unicode="&#xf8ff;" horiz-adv-x="1742" 
d="M176 0v1466h1466v-1466h-1466zM762 242h295v346h344v295h-344v334h-295v-334h-344v-295h344v-346z" />
    <glyph glyph-name="idotaccent" horiz-adv-x="485" 
d="M379 1495q77 0 128.5 -49t51.5 -125t-51.5 -125t-128.5 -49t-128.5 49t-51.5 125t51.5 125t128.5 49zM-25 0l203 1049h328l-203 -1049h-328z" />
    <glyph glyph-name="space_uni0326" 
d="M170 -539l23 105q124 21 147 98q-65 4 -99 37t-34 88q0 54 41 91.5t106 37.5q70 0 112 -50t42 -132q0 -114 -92.5 -191t-245.5 -84z" />
    <glyph glyph-name="Racute.alt" horiz-adv-x="1355" 
d="M684 1536l127 266h371l-248 -266h-250zM514 801h260q103 0 167.5 49t64.5 156q0 74 -46.5 114.5t-132.5 40.5h-243zM358 0h-362l283 1464h577q271 0 399 -131q113 -116 113 -295q0 -172 -93.5 -294.5t-250.5 -180.5l225 -563h-379l-192 520h-219z" />
    <glyph glyph-name="Rcaron.alt" horiz-adv-x="1355" 
d="M647 1536l-172 256h268l74 -113h4l109 113h291l-256 -256h-318zM514 801h260q103 0 167.5 49t64.5 156q0 74 -46.5 114.5t-132.5 40.5h-243zM358 0h-362l283 1464h577q271 0 399 -131q113 -116 113 -295q0 -172 -93.5 -294.5t-250.5 -180.5l225 -563h-379l-192 520h-219z
" />
    <glyph glyph-name="Rcommaaccent.alt" horiz-adv-x="1355" 
d="M385 -539l23 105q124 21 147 98q-65 4 -99 37t-34 88q0 54 41 91.5t106 37.5q70 0 112 -50t42 -132q0 -114 -92.5 -191t-245.5 -84zM514 801h260q103 0 167.5 49t64.5 156q0 74 -46.5 114.5t-132.5 40.5h-243zM358 0h-362l283 1464h577q271 0 399 -131q113 -116 113 -295
q0 -172 -93.5 -294.5t-250.5 -180.5l225 -563h-379l-192 520h-219z" />
    <glyph glyph-name="aacute.alt" horiz-adv-x="1087" 
d="M512 1171l156 304h379l-283 -304h-252zM440 186q85 0 142.5 46.5t76.5 132.5l25 129q-61 -30 -178 -48q-6 -1 -28.5 -4.5t-31.5 -5t-29 -6t-30 -9t-25.5 -12t-23.5 -17t-17 -22t-12.5 -29t-3.5 -36.5q0 -59 36.5 -89t98.5 -30zM317 -27q-144 0 -236.5 80t-92.5 223
q0 75 22.5 132.5t61.5 95.5t99 64t127 38.5t153 18.5q54 4 87 7.5t68 9.5t54 14.5t35.5 22t23 32t6.5 43.5q0 46 -33.5 73t-97.5 27q-152 0 -186 -137h-306q30 169 158 264.5t350 95.5q218 0 326 -92q137 -113 92 -338l-76 -383q-6 -37 8.5 -51t49.5 -8h6l-37 -195
q-58 -28 -139 -28q-100 0 -145 34t-64 107h-2q-53 -72 -133.5 -111t-178.5 -39z" />
    <glyph glyph-name="abreve.alt" horiz-adv-x="1087" 
d="M440 186q85 0 142.5 46.5t76.5 132.5l25 129q-61 -30 -178 -48q-6 -1 -28.5 -4.5t-31.5 -5t-29 -6t-30 -9t-25.5 -12t-23.5 -17t-17 -22t-12.5 -29t-3.5 -36.5q0 -59 36.5 -89t98.5 -30zM317 -27q-144 0 -236.5 80t-92.5 223q0 75 22.5 132.5t61.5 95.5t99 64t127 38.5
t153 18.5q54 4 87 7.5t68 9.5t54 14.5t35.5 22t23 32t6.5 43.5q0 46 -33.5 73t-97.5 27q-152 0 -186 -137h-306q30 169 158 264.5t350 95.5q218 0 326 -92q137 -113 92 -338l-76 -383q-6 -37 8.5 -51t49.5 -8h6l-37 -195q-58 -28 -139 -28q-100 0 -145 34t-64 107h-2
q-53 -72 -133.5 -111t-178.5 -39zM659 1159q-146 0 -230 80t-81 217h184q3 -44 36.5 -70t95.5 -26q59 0 98.5 27.5t50.5 68.5h184q-20 -137 -112 -217t-226 -80z" />
    <glyph glyph-name="acircumflex.alt" horiz-adv-x="1087" 
d="M268 1176l260 280h316l170 -280h-271l-69 135h-4l-113 -135h-289zM440 186q85 0 142.5 46.5t76.5 132.5l25 129q-61 -30 -178 -48q-6 -1 -28.5 -4.5t-31.5 -5t-29 -6t-30 -9t-25.5 -12t-23.5 -17t-17 -22t-12.5 -29t-3.5 -36.5q0 -59 36.5 -89t98.5 -30zM317 -27
q-144 0 -236.5 80t-92.5 223q0 75 22.5 132.5t61.5 95.5t99 64t127 38.5t153 18.5q54 4 87 7.5t68 9.5t54 14.5t35.5 22t23 32t6.5 43.5q0 46 -33.5 73t-97.5 27q-152 0 -186 -137h-306q30 169 158 264.5t350 95.5q218 0 326 -92q137 -113 92 -338l-76 -383q-6 -37 8.5 -51
t49.5 -8h6l-37 -195q-58 -28 -139 -28q-100 0 -145 34t-64 107h-2q-53 -72 -133.5 -111t-178.5 -39z" />
    <glyph glyph-name="adieresis.alt" horiz-adv-x="1087" 
d="M893 1468q71 0 118.5 -45.5t47.5 -115.5q0 -69 -47.5 -114.5t-118.5 -45.5t-118.5 45.5t-47.5 114.5q0 70 47.5 115.5t118.5 45.5zM438 1468q71 0 118.5 -45.5t47.5 -115.5q0 -69 -47.5 -114.5t-118.5 -45.5t-118.5 45.5t-47.5 114.5q0 70 47.5 115.5t118.5 45.5z
M440 186q85 0 142.5 46.5t76.5 132.5l25 129q-61 -30 -178 -48q-6 -1 -28.5 -4.5t-31.5 -5t-29 -6t-30 -9t-25.5 -12t-23.5 -17t-17 -22t-12.5 -29t-3.5 -36.5q0 -59 36.5 -89t98.5 -30zM317 -27q-144 0 -236.5 80t-92.5 223q0 75 22.5 132.5t61.5 95.5t99 64t127 38.5
t153 18.5q54 4 87 7.5t68 9.5t54 14.5t35.5 22t23 32t6.5 43.5q0 46 -33.5 73t-97.5 27q-152 0 -186 -137h-306q30 169 158 264.5t350 95.5q218 0 326 -92q137 -113 92 -338l-76 -383q-6 -37 8.5 -51t49.5 -8h6l-37 -195q-58 -28 -139 -28q-100 0 -145 34t-64 107h-2
q-53 -72 -133.5 -111t-178.5 -39z" />
    <glyph glyph-name="agrave.alt" horiz-adv-x="1087" 
d="M440 186q85 0 142.5 46.5t76.5 132.5l25 129q-61 -30 -178 -48q-6 -1 -28.5 -4.5t-31.5 -5t-29 -6t-30 -9t-25.5 -12t-23.5 -17t-17 -22t-12.5 -29t-3.5 -36.5q0 -59 36.5 -89t98.5 -30zM317 -27q-144 0 -236.5 80t-92.5 223q0 75 22.5 132.5t61.5 95.5t99 64t127 38.5
t153 18.5q54 4 87 7.5t68 9.5t54 14.5t35.5 22t23 32t6.5 43.5q0 46 -33.5 73t-97.5 27q-152 0 -186 -137h-306q30 169 158 264.5t350 95.5q218 0 326 -92q137 -113 92 -338l-76 -383q-6 -37 8.5 -51t49.5 -8h6l-37 -195q-58 -28 -139 -28q-100 0 -145 34t-64 107h-2
q-53 -72 -133.5 -111t-178.5 -39zM543 1171l-199 304h358l89 -304h-248z" />
    <glyph glyph-name="amacron.alt" horiz-adv-x="1087" 
d="M440 186q85 0 142.5 46.5t76.5 132.5l25 129q-61 -30 -178 -48q-6 -1 -28.5 -4.5t-31.5 -5t-29 -6t-30 -9t-25.5 -12t-23.5 -17t-17 -22t-12.5 -29t-3.5 -36.5q0 -59 36.5 -89t98.5 -30zM317 -27q-144 0 -236.5 80t-92.5 223q0 75 22.5 132.5t61.5 95.5t99 64t127 38.5
t153 18.5q54 4 87 7.5t68 9.5t54 14.5t35.5 22t23 32t6.5 43.5q0 46 -33.5 73t-97.5 27q-152 0 -186 -137h-306q30 169 158 264.5t350 95.5q218 0 326 -92q137 -113 92 -338l-76 -383q-6 -37 8.5 -51t49.5 -8h6l-37 -195q-58 -28 -139 -28q-100 0 -145 34t-64 107h-2
q-53 -72 -133.5 -111t-178.5 -39zM354 1202l41 205h578l-41 -205h-578z" />
    <glyph glyph-name="aogonek.alt" horiz-adv-x="1087" 
d="M793 -362q-108 0 -170 43t-62 120q0 119 172 195q-81 30 -102 127h-2q-53 -72 -133.5 -111t-178.5 -39q-144 0 -236.5 80t-92.5 223q0 75 22.5 132.5t61.5 95.5t99 64t127 38.5t153 18.5q54 4 87 7.5t68 9.5t54 14.5t35.5 22t23 32t6.5 43.5q0 46 -33.5 73t-97.5 27
q-152 0 -186 -137h-306q30 169 158 264.5t350 95.5q217 0 328 -92q135 -114 90 -338l-76 -383q-6 -37 8.5 -51t49.5 -8h6l-37 -195q-56 -29 -99.5 -67.5t-43.5 -77.5q0 -45 55 -45q19 0 47 8h2l-35 -172q-45 -18 -112 -18zM440 186q85 0 142.5 46.5t76.5 132.5l25 129
q-61 -30 -178 -48q-6 -1 -28.5 -4.5t-31.5 -5t-29 -6t-30 -9t-25.5 -12t-23.5 -17t-17 -22t-12.5 -29t-3.5 -36.5q0 -59 36.5 -89t98.5 -30z" />
    <glyph glyph-name="aring.alt" horiz-adv-x="1087" 
d="M666 1143q-87 0 -148 58t-61 142q0 85 61.5 144t147.5 59q85 0 146.5 -59.5t61.5 -143.5t-61 -142t-147 -58zM666 1257q36 0 60 25t24 61t-24 62.5t-60 26.5q-37 0 -61.5 -26.5t-24.5 -62.5t24 -61t62 -25zM440 186q85 0 142.5 46.5t76.5 132.5l25 129q-61 -30 -178 -48
q-6 -1 -28.5 -4.5t-31.5 -5t-29 -6t-30 -9t-25.5 -12t-23.5 -17t-17 -22t-12.5 -29t-3.5 -36.5q0 -59 36.5 -89t98.5 -30zM317 -27q-144 0 -236.5 80t-92.5 223q0 75 22.5 132.5t61.5 95.5t99 64t127 38.5t153 18.5q54 4 87 7.5t68 9.5t54 14.5t35.5 22t23 32t6.5 43.5
q0 46 -33.5 73t-97.5 27q-152 0 -186 -137h-306q30 169 158 264.5t350 95.5q218 0 326 -92q137 -113 92 -338l-76 -383q-6 -37 8.5 -51t49.5 -8h6l-37 -195q-58 -28 -139 -28q-100 0 -145 34t-64 107h-2q-53 -72 -133.5 -111t-178.5 -39z" />
    <glyph glyph-name="atilde.alt" horiz-adv-x="1087" 
d="M440 186q85 0 142.5 46.5t76.5 132.5l25 129q-61 -30 -178 -48q-6 -1 -28.5 -4.5t-31.5 -5t-29 -6t-30 -9t-25.5 -12t-23.5 -17t-17 -22t-12.5 -29t-3.5 -36.5q0 -59 36.5 -89t98.5 -30zM317 -27q-144 0 -236.5 80t-92.5 223q0 75 22.5 132.5t61.5 95.5t99 64t127 38.5
t153 18.5q54 4 87 7.5t68 9.5t54 14.5t35.5 22t23 32t6.5 43.5q0 46 -33.5 73t-97.5 27q-152 0 -186 -137h-306q30 169 158 264.5t350 95.5q218 0 326 -92q137 -113 92 -338l-76 -383q-6 -37 8.5 -51t49.5 -8h6l-37 -195q-58 -28 -139 -28q-100 0 -145 34t-64 107h-2
q-53 -72 -133.5 -111t-178.5 -39zM770 1171q-49 0 -92.5 18t-77 36t-57.5 18q-25 0 -45 -19.5t-27 -54.5h-170q23 134 89.5 205.5t156.5 71.5q47 0 89.5 -19t75.5 -38t56 -19q54 0 74 72h168q-21 -125 -82 -198t-158 -73z" />
    <glyph glyph-name="space_uni0326.alt" 
d="M848 1645l-23 -105q-124 -21 -147 -98q65 -4 99 -37t34 -88q0 -54 -41 -91.5t-106 -37.5q-70 0 -112 50t-42 132q0 114 92.5 191t245.5 84z" />
    <glyph glyph-name="registered.alt" horiz-adv-x="1658" 
d="M868 -35q-209 0 -381 98.5t-272 273.5t-100 390q0 161 58.5 303.5t159 243t240 159t295.5 58.5q209 0 381.5 -99t272.5 -274.5t100 -390.5t-100 -390t-272.5 -273.5t-381.5 -98.5zM868 72q177 0 321 85t226 235t82 335q0 139 -48.5 261.5t-131.5 209t-200 136.5t-249 50
q-177 0 -320.5 -85t-225.5 -235.5t-82 -336.5q0 -185 82 -335t225.5 -235t320.5 -85zM762 780h135q119 0 119 92q0 93 -115 93h-139v-185zM530 315v830h408q135 0 223 -63t88 -181q0 -144 -139 -201v-4q53 -18 80.5 -53.5t38.5 -95.5q7 -37 10.5 -94t9 -86t19.5 -35v-17
h-234q-10 6 -14.5 34t-8.5 77t-10 80q-9 56 -36.5 80t-85.5 24h-117v-295h-232z" />
    <glyph glyph-name="caron.alt" 
d="M485 1116l103 348h241l-161 -348h-183z" />
    <glyph glyph-name="dollar.cap" horiz-adv-x="1275" 
d="M614 -27h-22l-37 -194h-125l39 205q-216 30 -344 151t-121 330h346q0 -174 172 -209l68 346q-225 88 -323.5 183.5t-98.5 252.5q0 144 75 247.5t202.5 154.5t293.5 51h21l26 133h127l-28 -143q89 -14 161 -45t130.5 -82.5t89.5 -131t30 -180.5h-327q-3 134 -135 170
l-62 -315q232 -88 334 -188t102 -260q0 -118 -46.5 -210.5t-128.5 -149.5t-188.5 -86.5t-230.5 -29.5zM860 403q0 52 -31.5 84t-121.5 70l-60 -309q92 7 152.5 45t60.5 110zM506 1090q-2 -48 31.5 -81.5t117.5 -66.5l56 285q-87 -2 -146 -35.5t-59 -101.5z" />
    <glyph glyph-name="Euro.cap" horiz-adv-x="1378" 
d="M1350 520q-54 -265 -217.5 -409t-411.5 -144q-253 0 -403.5 143t-163.5 414h-121l26 135h97q8 82 16 125h-90l27 136h94q82 266 270 419.5t414 153.5q256 0 387 -134t133 -388h-344q0 241 -193 241q-96 0 -176 -75t-129 -217h338l-29 -136h-342q-9 -42 -16 -125h336
l-27 -135h-313q7 -274 221 -274q101 0 170.5 71t102.5 199h344z" />
    <glyph glyph-name="sterling.cap" horiz-adv-x="1243" 
d="M1159 88q-67 -54 -151 -87.5t-172 -33.5q-66 0 -134 16.5t-115 36t-106 36t-110 16.5q-59 0 -114 -22.5t-124 -65.5l-133 256q106 58 179 149.5t73 202.5q0 21 -2 31h-180l39 190h94q-43 123 -43 209q0 112 45.5 203.5t124 149.5t179.5 89t214 31q262 0 397 -121
q154 -135 135 -413h-342q15 256 -192 256q-90 0 -143.5 -56t-53.5 -157q0 -55 33 -191h299l-37 -190h-231v-7q0 -165 -193 -301l4 -6q79 27 133 27q64 0 163 -26.5t153 -26.5q98 0 192 75z" />
    <glyph glyph-name="yen.cap" horiz-adv-x="1347" 
d="M389 0l51 274h-348l27 136h348l22 122h-348l27 138h303l-295 792h385l111 -358q14 -46 28 -101.5t22 -87.5l7 -32h4q61 113 127 207l262 372h389l-600 -792h303l-28 -138h-355l-22 -122h354l-28 -136h-353l-51 -274h-342z" />
    <glyph glyph-name="zero.cap" horiz-adv-x="1372" 
d="M647 -33q-265 0 -419 166t-154 449q0 133 29 262.5t90 247t146 207.5t206 143t262 53q258 0 411.5 -164.5t153.5 -449.5q0 -133 -28 -262.5t-87.5 -247.5t-143.5 -208t-204.5 -143t-261.5 -53zM655 250q78 0 141 45.5t102.5 115t66 159.5t37 173.5t10.5 161.5
q0 309 -219 309q-78 0 -142 -47t-103.5 -119.5t-66.5 -164t-38 -174.5t-11 -158q0 -301 223 -301z" />
    <glyph glyph-name="one.cap" horiz-adv-x="835" 
d="M240 0l180 940h-307l47 238q168 5 277 75t163 220h281l-285 -1473h-356z" />
    <glyph glyph-name="two.cap" horiz-adv-x="1210" 
d="M-51 0q17 99 49 179.5t78.5 143t97.5 109t119 94.5q92 67 258.5 168.5t185.5 114.5q80 54 117 108.5t37 126.5q0 74 -43.5 118t-120.5 44q-104 3 -170 -69q-66 -69 -92 -213h-336q18 133 57 224t105 161q76 86 192 135t262 49q81 0 154 -16t135.5 -50.5t108.5 -84
t72 -120t26 -155.5q0 -90 -26 -166t-77 -136t-107.5 -105t-135.5 -93q-43 -26 -145 -82.5t-171 -101.5t-118 -94v-2h651l-55 -287h-1108z" />
    <glyph glyph-name="three.cap" horiz-adv-x="1249" 
d="M604 -31q-274 0 -434.5 143t-142.5 392h342q-5 -120 55.5 -192t185.5 -72q102 0 166 57.5t64 153.5q2 90 -60.5 139t-181.5 49h-63l47 246h94q95 0 159 46t64 138q2 71 -47 115.5t-131 44.5q-106 0 -169 -61.5t-81 -166.5h-336q30 224 190.5 359t407.5 135
q105 0 196.5 -23.5t164 -70t114 -122.5t41.5 -173q0 -124 -69.5 -211t-196.5 -131v-4q96 -36 156.5 -113.5t60.5 -197.5q0 -146 -80.5 -256.5t-215 -167t-300.5 -56.5z" />
    <glyph glyph-name="four.cap" horiz-adv-x="1300" 
d="M608 0l64 328h-670l61 319l828 830h346l-170 -885h209l-53 -264h-209l-62 -328h-344zM334 592h389l96 493h-4l-481 -489v-4z" />
    <glyph glyph-name="five.cap" horiz-adv-x="1249" 
d="M580 -35q-117 0 -217 28t-179.5 84t-126.5 148.5t-51 212.5h344q8 -88 70 -139t162 -51q115 0 188.5 78.5t73.5 203.5q0 98 -56 159t-157 61q-62 0 -115.5 -26t-89.5 -71h-324l238 811h917l-55 -280h-649l-82 -277h6q46 41 123.5 67.5t173.5 26.5q198 0 314 -120.5
t116 -331.5q0 -259 -173.5 -421.5t-450.5 -162.5z" />
    <glyph glyph-name="six.cap" horiz-adv-x="1290" 
d="M637 -35q-261 0 -413.5 155.5t-151.5 432.5q0 212 74.5 423.5t218.5 346.5q181 172 460 172q95 0 176 -21.5t148 -66.5t110 -123t54 -182h-342q-7 67 -50.5 102t-117.5 35q-122 0 -210 -99.5t-130 -275.5h4q141 144 336 144q87 0 167.5 -32t143 -89.5t100 -146
t37.5 -193.5q-1 -170 -82 -303.5t-220.5 -205.5t-311.5 -73zM637 229q117 0 193.5 80t76.5 209q0 100 -59 163.5t-162 63.5q-117 0 -195.5 -79.5t-78.5 -206.5q0 -101 61.5 -165.5t163.5 -64.5z" />
    <glyph glyph-name="seven.cap" horiz-adv-x="1144" 
d="M154 0q40 188 120 372t179 331.5t197 262t196 201.5v4h-688l57 293h1065l-51 -264q-244 -209 -438 -526t-267 -674h-370z" />
    <glyph glyph-name="eight.cap" horiz-adv-x="1275" 
d="M598 -35q-110 0 -210.5 24.5t-187 73.5t-138 134.5t-50.5 197.5q0 151 85 250t233 146v6q-71 43 -107.5 111t-36.5 149q0 135 80 237t206 151.5t276 49.5q102 0 194 -23t168 -68t121 -121.5t45 -174.5q0 -227 -248 -338v-6q94 -43 143.5 -125.5t49.5 -185.5
q0 -120 -51.5 -215t-139 -153.5t-198 -89t-234.5 -30.5zM719 887q96 0 158.5 47t62.5 141q-1 81 -55.5 127.5t-143.5 46.5q-92 -2 -158 -51.5t-67 -142.5q0 -83 55 -125.5t148 -42.5zM610 229q109 2 183.5 64t74.5 174q-1 92 -67 144.5t-168 52.5q-67 0 -125 -24.5
t-97.5 -80t-39.5 -131.5q0 -93 66 -146t173 -53z" />
    <glyph glyph-name="nine.cap" horiz-adv-x="1302" 
d="M688 715q116 0 195.5 78.5t79.5 205.5q0 102 -63 168t-165 66q-116 0 -194 -82t-78 -209q-2 -102 59.5 -164.5t165.5 -62.5zM557 -35q-98 0 -184.5 22t-159 68t-119 125.5t-55.5 184.5h346q9 -66 58.5 -105t129.5 -39q129 0 210.5 94.5t123.5 280.5h-4
q-73 -68 -149 -103.5t-174 -35.5q-198 0 -331.5 119.5t-133.5 324.5q0 176 83.5 312t223.5 208.5t311 73.5q260 0 415 -148t155 -427q0 -223 -66 -429t-195 -341q-176 -185 -485 -185z" />
    <glyph glyph-name="percent.cap" horiz-adv-x="1728" 
d="M465 672q-151 0 -240.5 94.5t-89.5 243.5q0 97 29.5 184.5t82 154t131 105.5t171.5 39q152 0 243 -92t91 -246q0 -130 -49.5 -239t-146 -176.5t-222.5 -67.5zM268 0l1084 1464h192l-1083 -1464h-193zM475 848q42 0 74.5 33t51 85t27.5 107t9 107q0 139 -96 139
q-42 0 -75 -33t-51.5 -84t-28 -105.5t-9.5 -105.5q0 -143 98 -143zM1257 -35q-152 0 -241.5 94.5t-89.5 243.5q0 130 50 239.5t146 176.5t219 67q151 0 241.5 -91.5t90.5 -243.5q0 -97 -29 -185t-81.5 -155t-132 -106.5t-173.5 -39.5zM1268 141q42 0 74.5 33t51 85t27.5 107
t9 107q0 62 -23.5 101.5t-73.5 39.5q-42 0 -75 -33t-51.5 -84.5t-28 -106t-9.5 -105.5q0 -144 99 -144z" />
    <glyph glyph-name="perthousand.cap" horiz-adv-x="2527" 
d="M465 672q-151 0 -240.5 94.5t-89.5 243.5q0 97 29.5 184.5t82 154t131 105.5t171.5 39q152 0 243 -92t91 -246q0 -130 -49.5 -239t-146 -176.5t-222.5 -67.5zM264 0l1088 1464h194l-1089 -1464h-193zM475 848q42 0 74.5 33t51 85t27.5 107t9 107q0 139 -96 139
q-42 0 -75 -33t-51.5 -84t-28 -105.5t-9.5 -105.5q0 -143 98 -143zM2056 -35q-153 0 -242.5 94.5t-89.5 243.5q0 97 29.5 184.5t82.5 154t132 105.5t172 39q151 0 241.5 -91.5t90.5 -243.5q0 -97 -29 -185t-81.5 -155t-132 -106.5t-173.5 -39.5zM1249 -35q-151 0 -240 94.5
t-89 243.5q0 130 49.5 239.5t145 176.5t218.5 67q152 0 243 -91.5t91 -243.5q0 -130 -49.5 -240t-146 -178t-222.5 -68zM2066 141q42 0 74.5 33t51 85t27.5 107t9 107q0 62 -23 101.5t-73 39.5q-42 0 -75 -33t-51.5 -84.5t-28 -106t-9.5 -105.5q0 -144 98 -144zM1260 141
q42 0 74.5 33t50.5 85t27 107t9 107q0 141 -96 141q-42 0 -75 -33t-51.5 -84.5t-28 -106t-9.5 -105.5q0 -144 99 -144z" />
    <glyph glyph-name="questiondown.cap" horiz-adv-x="1101" 
d="M815 985q-20 -104 -49.5 -170t-64 -102.5t-95.5 -77.5q-23 -16 -64.5 -39.5t-70 -41.5t-58.5 -42.5t-45.5 -56t-15.5 -68.5q0 -67 43 -103t117 -36q88 0 150.5 54t80.5 159h330q-39 -234 -196 -361t-392 -127q-73 0 -139.5 12.5t-129.5 41t-109 71.5t-73.5 109t-27.5 147
q0 129 63 222.5t189 162.5q25 14 65.5 35.5t58 31t38.5 23t35 25.5q50 42 65 131h295zM707 1100q-84 0 -138.5 52.5t-54.5 133.5q0 82 55 135.5t138 53.5t136.5 -53.5t53.5 -135.5t-53.5 -134t-136.5 -52z" />
    <glyph glyph-name="exclamdown.cap" horiz-adv-x="532" 
d="M440 985l-43 -645l-65 -340h-340l69 362l211 623h168zM393 1100q-84 0 -138 52.5t-54 133.5q0 82 54.5 135.5t137.5 53.5t137 -53.5t54 -135.5t-54 -134t-137 -52z" />
    <glyph glyph-name="hyphen.cap" horiz-adv-x="690" 
d="M41 504l61 309h594l-61 -309h-594z" />
    <glyph glyph-name="endash.cap" horiz-adv-x="1148" 
d="M84 526l55 281h977l-55 -281h-977z" />
    <glyph glyph-name="emdash.cap" horiz-adv-x="1878" 
d="M84 526l55 281h1706l-55 -281h-1706z" />
    <glyph glyph-name="guilsinglleft.cap" horiz-adv-x="534" 
d="M369 197l-289 297l61 315l400 281l-62 -316l-200 -141v-4l147 -140z" />
    <glyph glyph-name="guilsinglright.cap" horiz-adv-x="534" 
d="M39 197l59 315l201 141v4l-145 140l57 293l287 -297l-62 -316z" />
    <glyph glyph-name="guillemotleft.cap" horiz-adv-x="886" 
d="M723 213l-252 281l61 319l357 260l-58 -299l-186 -139v-4l131 -137zM338 213l-256 281l61 319l361 260l-60 -299l-190 -139v-4l137 -137z" />
    <glyph glyph-name="guillemotright.cap" horiz-adv-x="886" 
d="M426 213l59 299l191 139v4l-137 138l53 280l256 -280l-62 -320zM41 213l57 299l187 139v4l-131 138l53 280l252 -280l-62 -320z" />
    <glyph glyph-name="parenleft.cap" horiz-adv-x="686" 
d="M240 -195q-127 287 -127 596q0 345 125 651t337 539h291q-206 -267 -322 -576t-116 -638q0 -310 82 -572h-270z" />
    <glyph glyph-name="parenright.cap" horiz-adv-x="686" 
d="M-117 -195q206 267 322.5 576.5t116.5 638.5q0 306 -82 571h270q127 -287 127 -596q0 -344 -125.5 -650t-337.5 -540h-291z" />
    <glyph glyph-name="bracketleft.cap" horiz-adv-x="796" 
d="M-25 -195l347 1786h618l-49 -254h-309l-248 -1280h309l-49 -252h-619z" />
    <glyph glyph-name="bracketright.cap" horiz-adv-x="796" 
d="M-80 -195l49 252h310l247 1280h-309l51 254h619l-346 -1786h-621z" />
    <glyph glyph-name="braceleft.cap" horiz-adv-x="796" 
d="M565 -195q-246 0 -348.5 97.5t-58.5 322.5l41 209q16 77 -14.5 116t-123.5 46l48 242q98 1 140 32.5t56 108.5l47 244q20 109 57 181.5t95 113t127.5 57t167.5 16.5h141l-51 -258h-64q-81 0 -118 -31t-52 -116l-55 -287q-18 -92 -58 -135t-116 -70v-6q64 -33 85.5 -83.5
t2.5 -145.5l-51 -256q-16 -82 18 -112t123 -30h37l-49 -256h-27z" />
    <glyph glyph-name="braceright.cap" horiz-adv-x="796" 
d="M-80 -195l49 256h66q81 0 118 31.5t52 116.5l55 293q19 93 59 135.5t117 69.5v6q-64 33 -86.5 83.5t-3.5 145.5l51 250q16 82 -18 111.5t-123 29.5h-39l51 258h27q246 0 348.5 -97.5t58.5 -322.5l-40 -204q-14 -77 15.5 -116t121.5 -46l-47 -242q-97 -1 -140 -33
t-57 -108l-47 -248q-20 -108 -57 -180.5t-94.5 -113.5t-128 -58t-167.5 -17h-141z" />
    <glyph glyph-name="grave.cap" 
d="M610 1536l-170 266h359l59 -266h-248z" />
    <glyph glyph-name="dieresis.cap" 
d="M946 1853q71 0 118.5 -45.5t47.5 -115.5q0 -69 -47.5 -114.5t-118.5 -45.5t-118.5 45.5t-47.5 114.5q0 70 47.5 115.5t118.5 45.5zM479 1853q71 0 118.5 -45.5t47.5 -115.5q0 -69 -47.5 -114.5t-118.5 -45.5t-118.5 45.5t-47.5 114.5q0 70 47.5 115.5t118.5 45.5z" />
    <glyph glyph-name="macron.cap" 
d="M420 1561l41 204h577l-41 -204h-577z" />
    <glyph glyph-name="acute.cap" 
d="M541 1536l127 266h370l-247 -266h-250z" />
    <glyph glyph-name="circumflex.cap" 
d="M328 1536l256 256h315l172 -256h-268l-74 113h-4l-107 -113h-290z" />
    <glyph glyph-name="caron.cap" 
d="M549 1536l-172 256h268l74 -113h4l108 113h291l-256 -256h-317z" />
    <glyph glyph-name="breve.cap" 
d="M776 1524q-146 0 -229.5 80t-81.5 217h184q3 -45 36 -71t95 -26q59 0 99 28t51 69h186q-22 -137 -114 -217t-226 -80z" />
    <glyph glyph-name="dotaccent.cap" 
d="M721 1888q77 0 128.5 -49t51.5 -125t-51.5 -125t-128.5 -49t-128.5 49t-51.5 125t51.5 125t128.5 49z" />
    <glyph glyph-name="ring.cap" 
d="M735 1513q-86 0 -147.5 58t-61.5 143q0 84 61.5 142.5t147.5 58.5q87 0 148 -58.5t61 -142.5q0 -85 -61 -143t-148 -58zM735 1626q37 0 61.5 26t24.5 62t-24.5 62t-61.5 26q-36 0 -60 -26t-24 -62t24 -62t60 -26z" />
    <glyph glyph-name="tilde.cap" 
d="M844 1540q-49 0 -96 18t-83.5 36t-60.5 18q-25 0 -45 -19.5t-27 -54.5h-170q23 134 89.5 205.5t156.5 71.5q47 0 92.5 -19t81 -38t58.5 -19q30 0 46.5 18t26.5 53h170q-21 -124 -82.5 -197t-156.5 -73z" />
    <glyph glyph-name="hungarumlaut.cap" 
d="M782 1536l119 287h318l-232 -287h-205zM389 1536l119 287h317l-231 -287h-205z" />
    <glyph glyph-name="eight.subscript" horiz-adv-x="776" 
d="M291 -188q-67 0 -127 13t-110 40t-79.5 74t-29.5 108q0 160 184 221v4q-42 24 -64 63t-22 83q0 63 30.5 112t80.5 76.5t106 41.5t113 14q89 0 159 -20.5t116 -71.5t44 -126q-3 -129 -139 -188v-4q115 -53 115 -174q0 -70 -32.5 -123.5t-87.5 -83.5t-120 -44.5t-137 -14.5
zM360 328q47 0 79 26t32 70q0 45 -28.5 68.5t-71.5 23.5q-46 0 -77.5 -28.5t-31.5 -71.5t27.5 -65.5t70.5 -22.5zM301 -29q56 0 93.5 32t37.5 87q0 48 -34.5 74t-84.5 26q-55 0 -93 -30.5t-38 -85.5q0 -49 36 -76t83 -27z" />
    <glyph glyph-name="eight.superscript" horiz-adv-x="776" 
d="M446 633q-68 0 -128 13t-110 39.5t-79 73t-29 107.5q0 159 183 221v5q-40 24 -62 62.5t-22 82.5q0 51 20 93t53 69.5t76.5 46t88.5 27t91 8.5q66 0 122 -12t101.5 -37t71.5 -68t25 -100q-1 -67 -40 -114.5t-101 -74.5v-4q114 -51 114 -174q0 -70 -32.5 -123t-87.5 -82.5
t-119 -44t-136 -14.5zM514 1147q49 0 81 26t32 70t-29.5 68t-71.5 24q-46 0 -77 -28.5t-31 -71.5t26.5 -65.5t69.5 -22.5zM455 791q57 0 94 31.5t37 86.5q0 48 -34.5 74.5t-82.5 26.5q-56 0 -94.5 -31t-38.5 -86q0 -49 36 -75.5t83 -26.5z" />
    <glyph glyph-name="five.subscript" horiz-adv-x="747" 
d="M276 -188q-142 0 -235.5 71t-99.5 191h219q9 -42 40 -65t79 -23q59 0 94 38.5t35 100.5q0 52 -29.5 80t-75.5 28q-74 0 -113 -51h-196l141 463h533l-37 -176h-361l-43 -137h4q70 55 166 55q110 0 177 -69.5t67 -182.5q0 -153 -104.5 -238t-260.5 -85z" />
    <glyph glyph-name="five.superscript" horiz-adv-x="747" 
d="M432 633q-143 0 -236.5 70t-99.5 190h219q7 -42 39 -65t80 -23q58 0 92.5 38.5t34.5 100.5q0 52 -28 80.5t-74 28.5q-75 0 -115 -52h-194l139 463h532l-35 -176h-362l-41 -137h2q74 55 166 55q112 0 178 -69.5t66 -182.5q0 -153 -103.5 -237t-259.5 -84z" />
    <glyph glyph-name="four.subscript" horiz-adv-x="798" 
d="M150 168h206l50 252h-3l-253 -248v-4zM674 4h-119l-33 -172h-231l33 172h-387l36 191l471 458h238l-96 -485h121z" />
    <glyph glyph-name="four.superscript" horiz-adv-x="798" 
d="M305 987h207l49 252h-4l-252 -248v-4zM827 823h-118l-33 -172h-230l33 172h-387l37 191l471 459h236l-95 -486h119z" />
    <glyph glyph-name="nine.subscript" horiz-adv-x="768" 
d="M330 246q55 0 93 40.5t38 102.5q0 49 -30 78t-81 29q-56 0 -94.5 -38.5t-38.5 -99.5q0 -51 30.5 -81.5t82.5 -30.5zM252 -188q-82 0 -146.5 23.5t-108.5 77t-52 130.5h227q10 -72 92 -72q65 0 111.5 50t66.5 149h-2q-79 -82 -188 -82q-110 0 -184 67t-74 183
q0 143 102.5 233.5t257.5 90.5q153 0 241.5 -85t88.5 -247q0 -115 -36.5 -227t-110.5 -185q-103 -106 -285 -106z" />
    <glyph glyph-name="nine.superscript" horiz-adv-x="768" 
d="M485 1065q54 0 91.5 40.5t37.5 102.5q0 50 -29 78.5t-81 28.5q-55 0 -93 -38.5t-38 -98.5q-2 -51 28 -82t84 -31zM408 633q-83 0 -147.5 23t-108.5 76t-52 130h226q13 -71 94 -71q65 0 111.5 50t64.5 148h-2q-79 -82 -186 -82q-111 0 -186 67t-75 183q0 143 102.5 233.5
t258.5 90.5q153 0 242.5 -85t89.5 -247q0 -114 -36.5 -226.5t-111.5 -185.5q-104 -104 -284 -104z" />
    <glyph glyph-name="one.subscript" horiz-adv-x="536" 
d="M68 -168l94 481h-182l32 164q205 9 269 176h192l-160 -821h-245z" />
    <glyph glyph-name="one.superscript" horiz-adv-x="536" 
d="M227 651l95 482h-183l31 163q206 9 268 177h193l-160 -822h-244z" />
    <glyph glyph-name="seven.subscript" horiz-adv-x="706" 
d="M31 -168q43 191 146.5 349.5t236.5 269.5v2h-389l36 192h629l-33 -172q-133 -110 -231.5 -276t-138.5 -365h-256z" />
    <glyph glyph-name="seven.superscript" horiz-adv-x="706" 
d="M184 651q43 191 147 349t238 270v2h-391l37 192h631l-35 -172q-132 -110 -231 -276t-140 -365h-256z" />
    <glyph glyph-name="six.subscript" horiz-adv-x="763" 
d="M305 -186q-154 0 -244.5 88.5t-89.5 249.5q0 114 40.5 225t123.5 184q110 101 271 101q123 0 202 -56t92 -172h-225q-9 70 -82 70q-60 0 -108 -55t-72 -146h2q74 80 191 80q107 0 180 -64.5t73 -179.5q0 -146 -100.5 -235.5t-253.5 -89.5zM307 -20q54 0 91.5 38t37.5 99
q0 50 -29 80t-81 30q-55 0 -93 -39.5t-38 -101.5q0 -49 30.5 -77.5t81.5 -28.5z" />
    <glyph glyph-name="six.superscript" horiz-adv-x="763" 
d="M459 633q-154 0 -244 88.5t-90 249.5q0 113 41 224t123 185q58 51 122 76t150 25q121 0 200.5 -56t92.5 -172h-223q-9 70 -82 70q-61 0 -109.5 -55.5t-70.5 -145.5h2q74 80 188 80q107 0 181.5 -64.5t74.5 -179.5q0 -146 -100.5 -235.5t-255.5 -89.5zM461 799
q55 0 93 37.5t38 99.5q0 50 -30 80.5t-83 30.5q-55 0 -92 -40t-37 -102q0 -49 30 -77.5t81 -28.5z" />
    <glyph glyph-name="three.subscript" horiz-adv-x="759" 
d="M293 -188q-152 0 -250.5 77.5t-95.5 219.5h225q0 -58 31.5 -91.5t91.5 -33.5q51 0 83 27t32 75q0 90 -117 90h-49l30 152h56q53 0 86 22.5t33 65.5q0 39 -27 59.5t-68 20.5q-50 0 -82 -29.5t-43 -75.5h-219q21 120 119 195.5t242 75.5q131 0 217.5 -59t85.5 -167
q-1 -64 -41 -111.5t-103 -70.5v-2q51 -23 82 -66.5t31 -103.5q0 -87 -52 -150t-129.5 -91.5t-168.5 -28.5z" />
    <glyph glyph-name="three.superscript" horiz-adv-x="759" 
d="M446 633q-152 0 -249.5 76.5t-94.5 218.5h226q0 -59 30.5 -92t90.5 -33q51 0 82.5 27t31.5 75q0 90 -114 90h-50l31 152h53q53 0 86 22.5t33 65.5q0 39 -26.5 59.5t-67.5 20.5q-50 0 -82 -29.5t-43 -75.5h-219q22 121 119.5 196t242.5 75q130 0 216.5 -59t86.5 -167
q-1 -64 -41 -111.5t-104 -70.5v-2q51 -24 83 -67t32 -103q0 -87 -53 -149.5t-131 -90.5t-169 -28z" />
    <glyph glyph-name="two.subscript" horiz-adv-x="755" 
d="M-92 -168q17 102 65 170.5t121 120.5q43 31 87 57.5t102.5 57.5t76.5 41q47 28 69 54t22 68q0 36 -22.5 57t-61.5 21q-51 0 -86.5 -37.5t-49.5 -105.5h-223q23 157 126.5 241.5t254.5 84.5q124 0 210.5 -62t86.5 -178q0 -146 -149 -246q-44 -32 -140.5 -81.5
t-128.5 -76.5h353l-37 -186h-676z" />
    <glyph glyph-name="two.superscript" horiz-adv-x="755" 
d="M63 651q28 180 185 291q43 31 87 57.5t102.5 57.5t76.5 41q47 28 68.5 54.5t21.5 68.5q0 36 -22.5 56.5t-61.5 20.5q-51 0 -86 -37.5t-49 -105.5h-223q23 157 126.5 241.5t254.5 84.5q124 0 210.5 -62t86.5 -178q0 -145 -150 -246q-44 -32 -140.5 -81t-127.5 -76h352
l-37 -187h-674z" />
    <glyph glyph-name="zero.subscript" horiz-adv-x="829" 
d="M326 -186q-156 0 -252.5 89t-96.5 253q0 130 51.5 244.5t153 188t232.5 73.5q151 0 245.5 -91t94.5 -254q0 -98 -29 -187.5t-82 -160.5t-135.5 -113t-181.5 -42zM332 -10q49 1 87 36.5t58 90t29.5 109.5t9.5 106q0 162 -110 162q-49 0 -87.5 -37.5t-59.5 -94.5
t-31.5 -114t-10.5 -107q0 -151 115 -151z" />
    <glyph glyph-name="zero.superscript" horiz-adv-x="829" 
d="M479 633q-156 0 -252 89t-96 253q0 97 30.5 187.5t85 161.5t138 114t182.5 43q151 0 245.5 -90.5t94.5 -253.5q0 -98 -29 -188t-82 -160.5t-135.5 -113t-181.5 -42.5zM485 809q49 1 87 36.5t58 90t30 109.5t10 106q0 162 -111 162q-49 0 -87.5 -37t-59 -94t-31 -114
t-10.5 -107q0 -152 114 -152z" />
    </font>
</defs>
</svg>
